<svg width="128" height="125" viewBox="0 0 128 125" fill="none" xmlns="http://www.w3.org/2000/svg">
<g clip-path="url(#clip0_1579_20)">
<path d="M106.75 0H21.25C9.51395 0 0 9.51395 0 21.25V103.55C0 115.286 9.51395 124.8 21.25 124.8H106.75C118.486 124.8 128 115.286 128 103.55V21.25C128 9.51395 118.486 0 106.75 0Z" fill="#470137"/>
<path d="M67.2892 32.82L51.3177 59.1815L68.4052 87.174C68.5152 87.37 68.5457 87.6 68.4912 87.818C68.4647 87.911 68.4077 87.934 68.3202 87.9375L68.2232 87.936L68.1052 87.933C68.0412 87.933 67.9697 87.936 67.8902 87.949H55.5702L55.3282 87.945C54.6642 87.9275 54.1857 87.8325 53.8942 87.3455C52.7542 85.1248 51.6092 82.9066 50.4592 80.691C49.4305 78.715 48.3737 76.7536 47.2892 74.8075L46.8102 73.9505C45.5131 71.6452 44.2393 69.3267 42.9892 66.9955H42.9032C41.7487 69.3024 40.5608 71.5923 39.3397 73.8645C38.108 76.1545 36.8915 78.43 35.6902 80.691C34.488 82.9533 33.2572 85.2004 31.9982 87.4315C31.7957 87.8865 31.4592 87.9815 30.9907 87.997L30.7957 88H19.0322L18.9812 88.0015L18.8132 88.0165C18.7197 88.022 18.6637 88.002 18.6457 87.861C18.6137 87.6517 18.6596 87.4378 18.7747 87.26L35.3467 60.04L19.2037 32.735C19.0324 32.507 19.0037 32.321 19.1177 32.177C19.1811 32.1037 19.2606 32.0461 19.3501 32.0088C19.4396 31.9714 19.5365 31.9554 19.6332 31.962H31.7402C32.0042 31.9478 32.2681 31.9918 32.5132 32.091C32.7182 32.2075 32.8947 32.369 33.0282 32.5635C34.0585 34.8535 35.2035 37.1432 36.4632 39.4325C37.7129 41.7071 38.9867 43.9684 40.2842 46.216C41.5618 48.4289 42.7506 50.6919 43.8477 52.9995H43.9337C45.058 50.6924 46.2173 48.4025 47.4112 46.1305C48.5839 43.8979 49.7859 41.6509 51.0172 39.3895C52.2326 37.1575 53.4205 34.9107 54.5807 32.6495C54.6467 32.4375 54.7647 32.2455 54.9242 32.091C55.1363 31.9836 55.3746 31.9388 55.6112 31.962H66.8597C66.9631 31.9363 67.0721 31.9448 67.1703 31.9863C67.2684 32.0278 67.3505 32.1 67.404 32.1921C67.4576 32.2843 67.4798 32.3913 67.4673 32.4972C67.4548 32.603 67.4083 32.7019 67.3347 32.779L67.2892 32.82ZM92.5242 89.0565L91.9322 89.063C87.9799 89.1234 84.0638 88.3022 80.4687 86.659C77.1196 85.109 74.32 82.5788 72.4402 79.403C70.5445 76.2547 69.572 72.3322 69.5227 67.6355L69.5207 67.253C69.4884 63.3121 70.4956 59.4322 72.4407 56.0045C74.3873 52.612 77.2251 49.8167 80.6467 47.9215L80.9412 47.7615C84.6612 45.7005 89.1549 44.67 94.4222 44.67L94.6522 44.6725L94.9152 44.681L95.2102 44.694L95.5382 44.713L96.0892 44.752L96.7132 44.802L97.1697 44.842V27.926C97.1697 27.5257 97.3414 27.3254 97.6847 27.325H108.504C108.574 27.315 108.645 27.3214 108.713 27.3437C108.78 27.3661 108.841 27.4037 108.891 27.4537C108.941 27.5037 108.978 27.5646 109 27.6317C109.023 27.6987 109.029 27.7701 109.019 27.84V78.5875C109.019 79.4399 109.052 80.3572 109.118 81.3395L109.278 83.567L109.363 84.8555C109.374 85.034 109.33 85.2115 109.238 85.3647C109.146 85.518 109.01 85.6399 108.848 85.7145C106.056 86.8784 103.149 87.7418 100.175 88.29C97.6504 88.7563 95.0913 89.0127 92.5242 89.0565ZM97.1697 78.4155V54.974C96.7057 54.8483 96.2318 54.7622 95.7532 54.7165C95.1682 54.6575 94.5806 54.6287 93.9927 54.6305C91.909 54.6095 89.8498 55.0803 87.9822 56.0045C86.1633 56.9094 84.6101 58.2703 83.4742 59.9545C82.3405 61.6125 81.7544 63.7775 81.7157 66.4495L81.7137 66.738C81.6721 68.6097 81.9778 70.4728 82.6152 72.233C83.1343 73.6516 83.9549 74.9407 85.0202 76.0115C86.0397 76.9967 87.2741 77.7316 88.6262 78.158C90.0544 78.6203 91.5471 78.8524 93.0482 78.8455C93.8492 78.8455 94.5934 78.8167 95.2807 78.759C95.829 78.7178 96.3725 78.6274 96.9047 78.489L97.1697 78.4155Z" fill="#FF61F6"/>
</g>
<defs>
<clipPath id="clip0_1579_20">
<rect width="128" height="125" fill="white"/>
</clipPath>
</defs>
</svg>
