<svg width="26" height="26" viewBox="0 0 26 26" fill="none" xmlns="http://www.w3.org/2000/svg">
<g clip-path="url(#clip0_1094_544)">
<path fill-rule="evenodd" clip-rule="evenodd" d="M9.74085 14.0156H12.8631C12.3256 12.1875 11.7963 10.4975 11.2755 8.77987C10.7701 10.5036 10.2574 12.1875 9.74085 14.0156ZM25.2102 0.203125H0.583565C0.139533 0.203125 0.203111 0.299813 0.203111 0.728203V25.3864C0.203111 25.8143 0.139533 25.7969 0.552283 25.7969H25.2415C25.6541 25.7969 25.7969 25.8143 25.7969 25.3862V0.759484C25.7969 0.299813 25.6543 0.203125 25.2102 0.203125ZM15.7011 19.5C15.3686 19.5 15.0349 19.473 14.704 19.4967C14.4653 19.5146 14.3855 19.4143 14.3219 19.2071C14.0144 18.2055 13.6876 17.2043 13.3798 16.2029C13.3179 16.0014 13.2293 15.9278 13.011 15.9305C11.8891 15.9435 10.7666 15.9423 9.64456 15.9291C9.40833 15.9262 9.29966 15.9892 9.23222 16.2236C8.94663 17.2197 8.63422 18.2077 8.34558 19.2028C8.28302 19.4185 8.18796 19.4939 7.95883 19.488C7.28486 19.4712 6.60988 19.4815 5.87192 19.4815C6.06672 18.863 6.24344 18.291 6.42625 17.7214C7.54628 14.2277 8.67017 10.7339 9.78208 7.23795C9.85967 6.99461 9.96753 6.91966 10.2174 6.92514C11.0067 6.94261 11.7967 6.92961 12.5864 6.92514C12.7341 6.92412 12.8348 6.93286 12.8889 7.10064C14.2102 11.1867 15.5362 15.298 16.861 19.3836C16.8667 19.4021 16.863 19.5 16.8661 19.5H15.7011ZM19.9062 19.5H17.4687V10.3594H19.9062V19.5ZM18.6164 9.1262C17.8719 9.12519 17.3389 8.6127 17.3339 7.89323C17.329 7.1758 17.8837 6.64219 18.6351 6.64137C19.3923 6.64056 19.9259 7.1567 19.9318 7.89486C19.9371 8.61494 19.3901 9.12742 18.6164 9.1262Z" fill="#E2E2E2"/>
</g>
<defs>
<clipPath id="clip0_1094_544">
<rect width="26" height="26" fill="white"/>
</clipPath>
</defs>
</svg>
