<svg width="18" height="19" viewBox="0 0 18 19" fill="none" xmlns="http://www.w3.org/2000/svg">
<path d="M7.4933 10.7051C7.4933 11.4967 6.9308 11.7469 6.23973 11.7469H4.42768V9.57715H6.27589C7.02321 9.58125 7.4933 9.89707 7.4933 10.7051ZM7.18393 7.32949C7.18393 6.60352 6.63348 6.43125 6.02277 6.43125H4.4317V8.26875H6.14732C6.75402 8.26875 7.18393 7.99805 7.18393 7.32949ZM12.4996 8.28105C11.7643 8.28105 11.2741 8.74863 11.2259 9.49922H13.725C13.6567 8.74043 13.271 8.28105 12.4996 8.28105ZM18 1.96875V16.4062C18 17.4932 17.1362 18.375 16.0714 18.375H1.92857C0.863839 18.375 0 17.4932 0 16.4062V1.96875C0 0.881836 0.863839 0 1.92857 0H16.0714C17.1362 0 18 0.881836 18 1.96875ZM10.9165 6.27539H14.0424V5.5002H10.9165V6.27539ZM9.18884 10.7994C9.18884 9.81094 8.7308 8.95781 7.78259 8.68301C8.47366 8.34668 8.83527 7.95703 8.83527 7.16543C8.83527 5.59863 7.69018 5.21719 6.3683 5.21719H2.73214V13.0922H6.47277C7.875 13.084 9.18884 12.399 9.18884 10.7994ZM15.2679 10.1924C15.2679 8.50664 14.2996 7.0998 12.5518 7.0998C10.8482 7.0998 9.69509 8.4041 9.69509 10.1186C9.69509 11.8945 10.792 13.1127 12.5518 13.1127C13.8857 13.1127 14.7496 12.5016 15.1674 11.1932H13.8134C13.6647 11.6812 13.0661 11.9355 12.6 11.9355C11.7 11.9355 11.2299 11.3982 11.2299 10.4877H15.2558C15.2598 10.3934 15.2679 10.2908 15.2679 10.1924Z" fill="#E2E2E2"/>
</svg>
