<svg width="49" height="40" viewBox="0 0 49 40" fill="none" xmlns="http://www.w3.org/2000/svg">
<g clip-path="url(#clip0_1553_16)">
<path d="M20.4167 27.6028C19.6454 27.6028 18.9984 27.3595 18.4757 26.8729C17.9531 26.3863 17.6926 25.7849 17.6944 25.0685V24.5759C17.6944 23.4483 18.6085 22.5343 19.7361 22.5343H21.1442C21.4941 22.5343 21.7778 22.8179 21.7778 23.1678C21.7778 23.5177 22.0614 23.8014 22.4113 23.8014H25.9551C26.6549 23.8014 27.2222 23.2341 27.2222 22.5343C27.2222 21.8344 26.6549 21.2671 25.9551 21.2671H20.4167C19.6454 21.2671 18.9984 21.0238 18.4757 20.5373C17.9531 20.0507 17.6926 19.4492 17.6944 18.7329V14.9315C17.6944 14.2134 17.9558 13.6111 18.4784 13.1246C19.0011 12.638 19.6472 12.3955 20.4167 12.3972H28.5833C29.3546 12.3972 30.0016 12.6405 30.5243 13.1271C31.0469 13.6137 31.3074 14.2151 31.3056 14.9315V15.4241C31.3056 16.5517 30.3915 17.4657 29.2639 17.4657H27.8558C27.5059 17.4657 27.2222 17.1821 27.2222 16.8322C27.2222 16.4823 26.9386 16.1986 26.5887 16.1986H23.0449C22.3451 16.1986 21.7778 16.7659 21.7778 17.4657C21.7778 18.1656 22.3451 18.7329 23.0449 18.7329H28.5833C29.3546 18.7329 30.0016 18.9762 30.5243 19.4627C31.0469 19.9493 31.3074 20.5508 31.3056 21.2671V25.0685C31.3056 25.7865 31.0442 26.3889 30.5216 26.8754C29.9989 27.362 29.3528 27.6045 28.5833 27.6028H20.4167ZM38.1111 27.6028C37.3398 27.6028 36.6928 27.3595 36.1702 26.8729C35.6475 26.3863 35.3871 25.7849 35.3889 25.0685V24.5759C35.3889 23.4483 36.303 22.5343 37.4306 22.5343H38.8387C39.1886 22.5343 39.4722 22.8179 39.4722 23.1678C39.4722 23.5177 39.7559 23.8014 40.1058 23.8014H43.6495C44.3493 23.8014 44.9167 23.2341 44.9167 22.5343C44.9167 21.8344 44.3493 21.2671 43.6495 21.2671H38.1111C37.3398 21.2671 36.6928 21.0238 36.1702 20.5373C35.6475 20.0507 35.3871 19.4492 35.3889 18.7329V14.9315C35.3889 14.2134 35.6502 13.6111 36.1729 13.1246C36.6956 12.638 37.3416 12.3955 38.1111 12.3972H46.2778C47.0491 12.3972 47.696 12.6405 48.2187 13.1271C48.7414 13.6137 49.0018 14.2151 49 14.9315V15.4241C49 16.5517 48.0859 17.4657 46.9583 17.4657H45.5502C45.2003 17.4657 44.9167 17.1821 44.9167 16.8322C44.9167 16.4823 44.633 16.1986 44.2831 16.1986H40.7393C40.0395 16.1986 39.4722 16.7659 39.4722 17.4657C39.4722 18.1656 40.0395 18.7329 40.7393 18.7329H46.2778C47.0491 18.7329 47.696 18.9762 48.2187 19.4627C48.7414 19.9493 49.0018 20.5508 49 21.2671V25.0685C49 25.7865 48.7387 26.3889 48.216 26.8754C47.6933 27.362 47.0473 27.6045 46.2778 27.6028H38.1111ZM2.72223 27.6028C1.95093 27.6028 1.30395 27.3595 0.781287 26.8729C0.25862 26.3863 -0.00180539 25.7849 9.41946e-06 25.0685V14.9315C9.41946e-06 14.2134 0.261343 13.6111 0.784009 13.1246C1.30668 12.638 1.95275 12.3955 2.72223 12.3972H10.8889C11.6602 12.3972 12.3072 12.6405 12.8298 13.1271C13.3525 13.6137 13.6129 14.2151 13.6111 14.9315V15.4241C13.6111 16.5517 12.697 17.4657 11.5694 17.4657H10.1613C9.81144 17.4657 9.52778 17.1821 9.52778 16.8322C9.52778 16.4823 9.24413 16.1986 8.89422 16.1986H6.80556C5.30212 16.1986 4.08334 17.4174 4.08334 18.9208V21.0792C4.08334 22.5826 5.30212 23.8014 6.80556 23.8014H8.89422C9.24413 23.8014 9.52778 23.5177 9.52778 23.1678C9.52778 22.8179 9.81144 22.5343 10.1613 22.5343H11.5694C12.697 22.5343 13.6111 23.4483 13.6111 24.5759V25.0685C13.6111 25.7865 13.3498 26.3889 12.8271 26.8754C12.3044 27.362 11.6584 27.6045 10.8889 27.6028H2.72223Z" fill="#232323"/>
</g>
<defs>
<clipPath id="clip0_1553_16">
<rect width="49" height="40" fill="white"/>
</clipPath>
</defs>
</svg>
