<svg width="87" height="87" viewBox="0 0 87 87" fill="none" xmlns="http://www.w3.org/2000/svg">
<path d="M49.5628 51.3338C49.5628 52.8832 49.1183 54.3977 48.2856 55.686C47.4528 56.9743 46.2693 57.9783 44.8845 58.5712C43.4997 59.1642 41.976 59.3193 40.5059 59.017C39.0359 58.7148 37.6855 57.9687 36.6257 56.8731C35.5658 55.7775 34.8441 54.3817 34.5516 52.8621C34.2592 51.3425 34.4093 49.7674 34.9829 48.3359C35.5565 46.9045 36.5278 45.681 37.7741 44.8202C39.0203 43.9594 40.4855 43.5 41.9844 43.5C43.9943 43.5 45.9219 44.3253 47.3431 45.7945C48.7643 47.2636 49.5628 49.2561 49.5628 51.3338ZM76.8449 27.8324V77.9686C76.8449 79.6307 76.2061 81.2248 75.0691 82.4001C73.9322 83.5754 72.3901 84.2357 70.7822 84.2357H16.218C14.61 84.2357 13.068 83.5754 11.931 82.4001C10.794 81.2248 10.1553 79.6307 10.1553 77.9686V9.03137C10.1553 7.36925 10.794 5.77521 11.931 4.59991C13.068 3.42462 14.61 2.76434 16.218 2.76434H52.5941C52.9923 2.76402 53.3867 2.8448 53.7546 3.00206C54.1226 3.15933 54.457 3.39 54.7388 3.6809L75.9582 25.6155C76.2396 25.9067 76.4627 26.2524 76.6149 26.6328C76.767 27.0132 76.8452 27.4208 76.8449 27.8324ZM57.7701 63.2176L53.5262 58.8346C55.3152 55.896 55.9941 52.3791 55.4332 48.9558C54.8723 45.5325 53.111 42.4428 50.4856 40.2771C47.8603 38.1114 44.5551 37.0214 41.2015 37.2155C37.8479 37.4096 34.681 38.8741 32.306 41.3292C29.9309 43.7843 28.5142 47.0579 28.3264 50.5245C28.1387 53.9911 29.1931 57.4077 31.2882 60.1216C33.3833 62.8354 36.3723 64.6561 39.684 65.2359C42.9956 65.8157 46.3979 65.1139 49.2407 63.2646L53.4808 67.6515C53.7624 67.9427 54.0968 68.1736 54.4647 68.3312C54.8327 68.4887 55.2271 68.5698 55.6254 68.5698C56.0237 68.5698 56.4181 68.4887 56.7861 68.3312C57.1541 68.1736 57.4885 67.9427 57.7701 67.6515C58.0518 67.3604 58.2752 67.0148 58.4276 66.6344C58.58 66.254 58.6585 65.8463 58.6585 65.4346C58.6585 65.0229 58.58 64.6152 58.4276 64.2348C58.2752 63.8544 58.0518 63.5088 57.7701 63.2176ZM69.2665 27.8324L52.5941 10.5981V27.8324H69.2665Z" fill="#5855B7"/>
</svg>
