<svg width="43" height="43" viewBox="0 0 43 43" fill="none" xmlns="http://www.w3.org/2000/svg">
<path d="M14.9722 3.52287C13.5707 3.52287 12.2266 4.07961 11.2356 5.07061C10.2446 6.06161 9.68787 7.4057 9.68787 8.80719C9.68787 10.2087 10.2446 11.5528 11.2356 12.5438C12.2266 13.5348 13.5707 14.0915 14.9722 14.0915H27.3022C28.7037 14.0915 30.0478 13.5348 31.0388 12.5438C32.0298 11.5528 32.5866 10.2087 32.5866 8.80719C32.5866 7.4057 32.0298 6.06161 31.0388 5.07061C30.0478 4.07961 28.7037 3.52287 27.3022 3.52287H14.9722ZM27.3022 15.8529C25.9008 15.8529 24.5567 16.4097 23.5657 17.4007C22.5747 18.3917 22.0179 19.7358 22.0179 21.1373C22.0179 22.5387 22.5747 23.8828 23.5657 24.8738C24.5567 25.8648 25.9008 26.4216 27.3022 26.4216C28.7037 26.4216 30.0478 25.8648 31.0388 24.8738C32.0298 23.8828 32.5866 22.5387 32.5866 21.1373C32.5866 19.7358 32.0298 18.3917 31.0388 17.4007C30.0478 16.4097 28.7037 15.8529 27.3022 15.8529ZM9.68787 21.1373C9.68787 19.7358 10.2446 18.3917 11.2356 17.4007C12.2266 16.4097 13.5707 15.8529 14.9722 15.8529H20.2565V26.4216H14.9722C13.5707 26.4216 12.2266 25.8648 11.2356 24.8738C10.2446 23.8828 9.68787 22.5387 9.68787 21.1373ZM14.9722 28.183C13.927 28.183 12.9054 28.4929 12.0364 29.0736C11.1674 29.6542 10.4901 30.4795 10.0901 31.4451C9.69016 32.4107 9.58551 33.4732 9.78941 34.4982C9.9933 35.5233 10.4966 36.4649 11.2356 37.2039C11.9746 37.9429 12.9162 38.4462 13.9413 38.6501C14.9663 38.854 16.0288 38.7493 16.9944 38.3494C17.96 37.9494 18.7853 37.2721 19.3659 36.4031C19.9466 35.5341 20.2565 34.5125 20.2565 33.4673V28.183H14.9722Z" fill="#232323"/>
</svg>
