<?xml version="1.0" encoding="UTF-8"?>
<svg id="Capa_1" data-name="Capa 1" xmlns="http://www.w3.org/2000/svg" xmlns:xlink="http://www.w3.org/1999/xlink" viewBox="0 0 872 901.3">
  <defs>
    <filter id="drop-shadow-1" filterUnits="userSpaceOnUse">
      <feOffset dx="-15" dy="15"/>
      <feGaussianBlur result="blur" stdDeviation="5"/>
      <feFlood flood-color="#000" flood-opacity=".3"/>
      <feComposite in2="blur" operator="in"/>
      <feComposite in="SourceGraphic"/>
    </filter>
  </defs>
  <g filter="url(#drop-shadow-1)">
    <path d="M651.1,864H107.1c-33.1,0-60-26.9-60-60V88c0-33.1,26.9-60,60-60h544c33.1,0,60,26.9,60,60v716c0,33.1-26.9,60-60,60Z" fill="#fff" stroke-width="0"/>
    <path d="M651.1,864H107.1c-33.1,0-60-26.9-60-60V88c0-33.1,26.9-60,60-60h544c33.1,0,60,26.9,60,60v716c0,33.1-26.9,60-60,60Z" fill="none" stroke="#000" stroke-linecap="round" stroke-linejoin="round" stroke-width="8"/>
  </g>
  <line x1="47.1" y1="122.7" x2="711.1" y2="124" fill="none" stroke="#000" stroke-linecap="round" stroke-linejoin="round" stroke-width="8"/>
  <line x1="169.4" y1="79.6" x2="332.8" y2="79.6" fill="none" stroke="#000" stroke-linecap="round" stroke-linejoin="round" stroke-width="8"/>
  <circle cx="117.2" cy="79.6" r="5.8" fill="#010202" stroke="#000" stroke-linecap="round" stroke-linejoin="round" stroke-width="6.96"/>
  <g>
    <path d="M198.6,229.2c-1.5.3-2.6.4-3.2.4-1.6,0-3.1-.2-4.6-.6-1.4-.4-2.6-1.1-3.5-2.3s-1.3-2.8-1.3-5.1v-7.4c0-1.6-.1-3-.3-4.3s-.6-2.3-1.4-3.1-2-1.2-3.8-1.3v-3c1.7-.1,3-.5,3.8-1.2s1.2-1.7,1.4-3c.2-1.2.3-2.6.3-4v-7.3c0-2.3.4-4,1.3-5.1.9-1.1,2.1-1.9,3.5-2.3,1.4-.4,3-.6,4.6-.6.6,0,1.3,0,1.9.1.6.1,1,.1,1.3.2v3.6c-.7-.1-1.4-.2-2.1-.2-2.3,0-3.8.5-4.5,1.6-.6,1.1-1,2.5-1,4.3l.2,6.7c0,1.3-.1,2.5-.4,3.6-.2,1.1-.7,2.1-1.4,2.9-.7.8-1.8,1.4-3.3,1.8,1.5.5,2.7,1.2,3.4,2.1.7.9,1.2,2,1.4,3.1.2,1.2.4,2.4.4,3.7l-.2,6.8c0,1.8.3,3.3,1,4.4.6,1.1,2.1,1.7,4.5,1.7.6,0,1.3-.1,2.1-.2v4h-.1Z" fill="#5535ba" stroke-width="0"/>
    <path d="M109.8,454.7c.8.1,1.5.2,2.1.2,2.3,0,3.8-.6,4.5-1.7.6-1.1,1-2.6,1-4.4l-.2-6.8c0-1.3.1-2.6.3-3.7.2-1.2.7-2.2,1.4-3.1.7-.9,1.8-1.6,3.2-2.1-1.4-.4-2.5-1-3.2-1.8s-1.2-1.8-1.4-2.9c-.2-1.1-.3-2.3-.3-3.6l.2-6.7c0-1.8-.3-3.2-1-4.3-.6-1.1-2.1-1.6-4.5-1.6-.7,0-1.4.1-2.1.2v-3.6c.3-.1.8-.2,1.4-.2s1.2-.1,1.8-.1c1.7,0,3.4.2,4.8.6,1.5.4,2.7,1.1,3.6,2.3.9,1.1,1.4,2.8,1.4,5.1v7.3c0,1.5.1,2.8.3,4,.2,1.2.7,2.2,1.5,3,.8.7,2,1.2,3.7,1.2v3c-1.8.1-3.1.5-3.8,1.3s-1.2,1.8-1.4,3.1c-.2,1.3-.3,2.7-.3,4.3v7.4c0,2.3-.5,4-1.4,5.1s-2.1,1.9-3.6,2.3-3.1.6-4.8.6c-.6,0-1.7-.1-3.2-.4,0,0,0-4,0-4Z" fill="#5535ba" stroke-width="0"/>
    <g>
      <line x1="118.4" y1="292" x2="214.1" y2="292" fill="none" stroke="#000" stroke-miterlimit="10" stroke-width="3.44"/>
      <line x1="261.2" y1="292" x2="423.4" y2="292" fill="none" stroke="#000" stroke-miterlimit="10" stroke-width="3.44"/>
      <path d="M238.6,278.2c-.7,0-1.3-.2-1.8-.7s-.7-1.1-.7-1.8.2-1.3.7-1.8,1.1-.7,1.8-.7,1.3.2,1.8.7.7,1.1.7,1.8-.2,1.3-.7,1.8c-.5.4-1.1.7-1.8.7ZM238.6,292c-.7,0-1.3-.2-1.8-.7s-.7-1.1-.7-1.8.2-1.3.7-1.8,1.1-.7,1.8-.7,1.3.2,1.8.7.7,1.1.7,1.8-.2,1.3-.7,1.8c-.5.4-1.1.7-1.8.7Z" stroke-width="0"/>
      <path d="M446.1,278.5c-.7,0-1.3-.2-1.8-.7s-.7-1.1-.7-1.8.2-1.3.7-1.8,1.1-.7,1.8-.7,1.3.2,1.8.7.7,1.1.7,1.8-.2,1.3-.7,1.8c-.6.4-1.1.7-1.8.7ZM446.3,292.3c-.7,0-1.3-.2-1.8-.7s-.7-1.1-.7-1.8.2-1.3.7-1.8,1.1-.7,1.8-.7,1.3.2,1.8.7.7,1.1.7,1.8-.2,1.3-.7,1.8c-.5.4-1.1.7-1.8.7ZM443.9,296.7c.6-.6,1.2-1.2,1.7-2.1.5-.8.7-1.6.7-2.3l1.8-4.3c.7.6,1.1,1.3,1.3,2,.2.8.2,1.6.1,2.4s-.4,1.6-.8,2.4-.8,1.4-1.2,2.1c-.4.6-.9,1.1-1.3,1.5l-2.3-1.7Z" stroke-width="0"/>
    </g>
    <g>
      <line x1="123.2" y1="354.5" x2="218.9" y2="354.5" fill="none" stroke="#000" stroke-miterlimit="10" stroke-width="3.44"/>
      <line x1="266" y1="354.5" x2="428.2" y2="354.5" fill="none" stroke="#000" stroke-miterlimit="10" stroke-width="3.44"/>
      <path d="M243.4,340.7c-.7,0-1.3-.2-1.8-.7s-.7-1.1-.7-1.8.2-1.3.7-1.8,1.1-.7,1.8-.7,1.3.2,1.8.7.7,1.1.7,1.8-.2,1.3-.7,1.8c-.6.4-1.2.7-1.8.7ZM243.4,354.5c-.7,0-1.3-.2-1.8-.7s-.7-1.1-.7-1.8.2-1.3.7-1.8,1.1-.7,1.8-.7,1.3.2,1.8.7.7,1.1.7,1.8-.2,1.3-.7,1.8c-.6.4-1.2.7-1.8.7Z" stroke-width="0"/>
      <path d="M450.8,341c-.7,0-1.3-.2-1.8-.7s-.7-1.1-.7-1.8.2-1.3.7-1.8,1.1-.7,1.8-.7,1.3.2,1.8.7.7,1.1.7,1.8-.2,1.3-.7,1.8c-.5.4-1.1.7-1.8.7ZM451.1,354.8c-.7,0-1.3-.2-1.8-.7s-.7-1.1-.7-1.8.2-1.3.7-1.8,1.1-.7,1.8-.7,1.3.2,1.8.7.7,1.1.7,1.8-.2,1.3-.7,1.8c-.5.4-1.1.7-1.8.7ZM448.7,359.2c.6-.6,1.2-1.2,1.7-2.1.5-.8.7-1.6.7-2.3l1.8-4.3c.7.6,1.1,1.3,1.3,2,.2.8.2,1.6.1,2.4s-.4,1.6-.8,2.4-.8,1.4-1.2,2.1c-.4.6-.9,1.1-1.3,1.5l-2.3-1.7Z" stroke-width="0"/>
    </g>
  </g>
  <g>
    <path d="M266.2,573.6c-1.5.3-2.6.4-3.2.4-1.6,0-3.1-.2-4.6-.6-1.4-.4-2.6-1.1-3.5-2.3s-1.3-2.8-1.3-5.1v-7.4c0-1.6-.1-3-.3-4.3s-.6-2.3-1.4-3.1-2-1.2-3.8-1.3v-3c1.7-.1,3-.5,3.8-1.2s1.2-1.7,1.4-3c.2-1.2.3-2.6.3-4v-7.3c0-2.3.4-4,1.3-5.1.9-1.1,2.1-1.9,3.5-2.3,1.4-.4,3-.6,4.6-.6.6,0,1.3,0,1.9.1s1,.1,1.3.2v3.6c-.7-.1-1.4-.2-2.1-.2-2.3,0-3.8.5-4.5,1.6-.6,1.1-1,2.5-1,4.3l.2,6.7c0,1.3-.1,2.5-.4,3.6-.2,1.1-.7,2.1-1.4,2.9-.7.8-1.8,1.4-3.3,1.8,1.5.5,2.7,1.2,3.4,2.1.7.9,1.2,2,1.4,3.1.2,1.2.4,2.4.4,3.7l-.2,6.8c0,1.8.3,3.3,1,4.4.6,1.1,2.1,1.7,4.5,1.7.6,0,1.3-.1,2.1-.2v4h-.1Z" fill="#5535ba" stroke-width="0"/>
    <path d="M109.8,799.1c.8.1,1.5.2,2.1.2,2.3,0,3.8-.6,4.5-1.7.6-1.1,1-2.6,1-4.4l-.2-6.8c0-1.3.1-2.6.3-3.7.2-1.2.7-2.2,1.4-3.1.7-.9,1.8-1.6,3.2-2.1-1.4-.4-2.5-1-3.2-1.8s-1.2-1.8-1.4-2.9c-.2-1.1-.3-2.3-.3-3.6l.2-6.7c0-1.8-.3-3.2-1-4.3-.6-1.1-2.1-1.6-4.5-1.6-.7,0-1.4.1-2.1.2v-3.6c.3-.1.8-.2,1.4-.2s1.2-.1,1.8-.1c1.7,0,3.4.2,4.8.6,1.5.4,2.7,1.1,3.6,2.3.9,1.1,1.4,2.8,1.4,5.1v7.3c0,1.5.1,2.8.3,4,.2,1.2.7,2.2,1.5,3,.8.7,2,1.2,3.7,1.2v3c-1.8.1-3.1.5-3.8,1.3s-1.2,1.8-1.4,3.1c-.2,1.3-.3,2.7-.3,4.3v7.4c0,2.3-.5,4-1.4,5.1s-2.1,1.9-3.6,2.3c-1.5.4-3.1.6-4.8.6-.6,0-1.7-.1-3.2-.4,0,0,0-4,0-4Z" fill="#5535ba" stroke-width="0"/>
    <g>
      <line x1="118.4" y1="636.4" x2="214.1" y2="636.4" fill="none" stroke="#000" stroke-miterlimit="10" stroke-width="3.44"/>
      <line x1="261.2" y1="636.4" x2="423.4" y2="636.4" fill="none" stroke="#000" stroke-miterlimit="10" stroke-width="3.44"/>
      <path d="M238.6,622.6c-.7,0-1.3-.2-1.8-.7s-.7-1.1-.7-1.8.2-1.3.7-1.8,1.1-.7,1.8-.7,1.3.2,1.8.7.7,1.1.7,1.8-.2,1.3-.7,1.8c-.5.4-1.1.7-1.8.7ZM238.6,636.4c-.7,0-1.3-.2-1.8-.7s-.7-1.1-.7-1.8.2-1.3.7-1.8,1.1-.7,1.8-.7,1.3.2,1.8.7.7,1.1.7,1.8-.2,1.3-.7,1.8c-.5.4-1.1.7-1.8.7Z" stroke-width="0"/>
      <path d="M446.1,622.9c-.7,0-1.3-.2-1.8-.7s-.7-1.1-.7-1.8.2-1.3.7-1.8,1.1-.7,1.8-.7,1.3.2,1.8.7.7,1.1.7,1.8-.2,1.3-.7,1.8c-.6.5-1.1.7-1.8.7ZM446.3,636.7c-.7,0-1.3-.2-1.8-.7s-.7-1.1-.7-1.8.2-1.3.7-1.8,1.1-.7,1.8-.7,1.3.2,1.8.7.7,1.1.7,1.8-.2,1.3-.7,1.8c-.5.5-1.1.7-1.8.7ZM443.9,641.1c.6-.6,1.2-1.2,1.7-2.1.5-.8.7-1.6.7-2.3l1.8-4.3c.7.6,1.1,1.3,1.3,2,.2.8.2,1.6.1,2.4-.1.8-.4,1.6-.8,2.4-.4.8-.8,1.4-1.2,2.1-.4.6-.9,1.1-1.3,1.5l-2.3-1.7Z" stroke-width="0"/>
    </g>
    <g>
      <line x1="123.2" y1="698.9" x2="218.9" y2="698.9" fill="none" stroke="#000" stroke-miterlimit="10" stroke-width="3.44"/>
      <line x1="266" y1="698.9" x2="428.2" y2="698.9" fill="none" stroke="#000" stroke-miterlimit="10" stroke-width="3.44"/>
      <path d="M243.4,685.1c-.7,0-1.3-.2-1.8-.7s-.7-1.1-.7-1.8.2-1.3.7-1.8,1.1-.7,1.8-.7,1.3.2,1.8.7.7,1.1.7,1.8-.2,1.3-.7,1.8c-.6.4-1.2.7-1.8.7ZM243.4,698.9c-.7,0-1.3-.2-1.8-.7s-.7-1.1-.7-1.8.2-1.3.7-1.8,1.1-.7,1.8-.7,1.3.2,1.8.7.7,1.1.7,1.8-.2,1.3-.7,1.8c-.6.4-1.2.7-1.8.7Z" stroke-width="0"/>
      <path d="M450.8,685.4c-.7,0-1.3-.2-1.8-.7s-.7-1.1-.7-1.8.2-1.3.7-1.8,1.1-.7,1.8-.7,1.3.2,1.8.7.7,1.1.7,1.8-.2,1.3-.7,1.8c-.5.5-1.1.7-1.8.7ZM451.1,699.2c-.7,0-1.3-.2-1.8-.7s-.7-1.1-.7-1.8.2-1.3.7-1.8,1.1-.7,1.8-.7,1.3.2,1.8.7.7,1.1.7,1.8-.2,1.3-.7,1.8-1.1.7-1.8.7ZM448.7,703.6c.6-.6,1.2-1.2,1.7-2.1.5-.8.7-1.6.7-2.3l1.8-4.3c.7.6,1.1,1.3,1.3,2,.2.8.2,1.6.1,2.4-.1.8-.4,1.6-.8,2.4-.4.8-.8,1.4-1.2,2.1-.4.6-.9,1.1-1.3,1.5l-2.3-1.7Z" stroke-width="0"/>
    </g>
    <g>
      <path d="M126.2,563.1l-5.4-.5v-28.5h5.4v29ZM126.2,563.1l-1.4,2.7h-4.1v-3.2l5.5.5ZM122.4,550.2c.6-1,1.2-1.9,1.8-2.6.6-.7,1.3-1.5,2-2.2s1.6-1.3,2.5-1.8c.9-.5,1.9-.7,2.9-.7l-1.4,3.9c-.7,0-1.5.2-2.3.6-.8.4-1.6.8-2.4,1.3s-1.6,1.1-2.5,1.9l-.6-.4ZM123.1,558.5c.9.8,1.8,1.4,2.5,1.9s1.5.9,2.4,1.3c.8.4,1.6.6,2.3.6l1.4,3.8c-1,0-2-.2-2.9-.7-.9-.5-1.8-1.1-2.5-1.9-.8-.7-1.4-1.5-2-2.2s-1.2-1.6-1.8-2.6l.6-.2ZM130.3,546.7l1.4-3.9c1.5,0,2.9.3,4,1s2,1.6,2.8,2.7c.7,1.1,1.3,2.4,1.6,3.8.3,1.4.5,2.8.5,4.3,0,1.4-.2,2.9-.5,4.3-.3,1.4-.9,2.6-1.6,3.8-.7,1.1-1.6,2-2.8,2.7-1.1.7-2.4,1-4,1l-1.4-3.8c1,0,1.8-.2,2.4-.7.6-.5,1.1-1.1,1.4-1.9.3-.8.6-1.7.7-2.6.1-.9.2-1.8.2-2.6s-.1-1.7-.2-2.6c-.1-.9-.3-1.7-.7-2.5-.3-.8-.8-1.4-1.4-1.9-.6-.9-1.4-1.1-2.4-1.1Z" stroke-width="0"/>
      <path d="M143.1,554.5c0-1.4.2-2.9.5-4.3.4-1.4.9-2.6,1.7-3.8.8-1.1,1.8-2,3.1-2.7s2.9-1,4.8-1,3.5.3,4.8,1,2.3,1.6,3.1,2.7c.8,1.1,1.4,2.4,1.7,3.8.4,1.4.5,2.8.5,4.3,0,1.4-.2,2.9-.5,4.3-.4,1.4-.9,2.6-1.7,3.8-.8,1.1-1.8,2-3.1,2.7s-2.9,1-4.8,1-3.5-.3-4.8-1-2.3-1.6-3.1-2.7c-.8-1.1-1.4-2.4-1.7-3.8-.3-1.5-.5-2.9-.5-4.3ZM148.6,554.5c0,.8.1,1.7.2,2.6.1.9.3,1.8.7,2.6.3.8.8,1.4,1.4,1.9.6.5,1.4.7,2.4.7s1.8-.2,2.4-.7c.6-.5,1.1-1.1,1.4-1.9.3-.8.5-1.7.7-2.6.1-.9.2-1.8.2-2.6s-.1-1.7-.2-2.6-.4-1.7-.7-2.5-.8-1.4-1.4-1.9c-.6-.5-1.4-.7-2.4-.7s-1.8.2-2.4.7c-.6.5-1.1,1.1-1.4,1.9-.3.8-.6,1.6-.7,2.5-.1.8-.2,1.7-.2,2.6Z" stroke-width="0"/>
      <path d="M176.2,546.7c-1,0-1.8.2-2.4.7-.6.5-1.1,1.1-1.4,1.9-.3.8-.6,1.6-.7,2.5-.1.9-.2,1.8-.2,2.6s.1,1.7.2,2.6c.1.9.3,1.8.7,2.6.3.8.8,1.4,1.4,1.9.6.5,1.4.7,2.4.7l-1.4,3.8c-1.5,0-2.9-.3-4-1s-2-1.6-2.8-2.7c-.7-1.1-1.3-2.4-1.6-3.8-.3-1.4-.5-2.8-.5-4.3,0-1.4.2-2.9.5-4.3.3-1.4.9-2.6,1.6-3.8.7-1.1,1.6-2,2.8-2.7,1.1-.7,2.4-1,4-1l1.4,4.3ZM183.4,550.4c-.9-.8-1.8-1.4-2.5-1.9-.8-.5-1.5-.9-2.4-1.3-.8-.4-1.6-.6-2.3-.6l-1.4-3.9c1,0,2,.2,2.9.7s1.8,1.1,2.5,1.8,1.4,1.5,2,2.2,1.2,1.6,1.8,2.6l-.6.4ZM184.2,558.8c-.6,1-1.2,1.9-1.8,2.6-.6.7-1.3,1.5-2,2.2-.8.7-1.6,1.4-2.5,1.9s-1.9.7-2.9.7l1.4-3.8c.7,0,1.5-.2,2.3-.6.8-.4,1.6-.8,2.4-1.3.8-.5,1.6-1.1,2.5-1.9l.6.2ZM180.3,563.1v-29h5.4v28.5l-5.4.5ZM180.3,563.1l5.4-.5v3.2h-4.1l-1.3-2.7Z" stroke-width="0"/>
      <path d="M188.7,570.9c.2,0,.5,0,.8.1.4,0,.9.1,1.5.1.8,0,1.5-.1,2.1-.4.6-.2,1-.6,1.4-1.2.4-.5.8-1.3,1.1-2.2l.5-1.5h4.8c-.8,2.3-1.6,4.2-2.5,5.5s-1.9,2.3-3.1,2.9c-1.2.6-2.7.9-4.5.9h-1.3c-.5,0-1-.1-1.7-.2l.9-4ZM193.9,543.2l4.5,16.8,4.5-16.8h5.6l-7.6,22.6-5,.5-7.7-23.1h5.7Z" stroke-width="0"/>
    </g>
  </g>
  <path d="M752.78,271.98c-9.23,17.03-34.37,63.93-54.4,101.22l-39.99-27.39c24.91-32.72,55.83-73.16,67.01-87.72,19.88-25.81,38.49-42.54,44.05-38.27,3.45,2.33-.53,22.29-16.66,52.15h0ZM693.96,381.53c-7.73,14.41-14.41,26.86-18.46,34.52l-46.97-30.76c5.25-6.98,14.11-18.53,24.31-31.89l41.12,28.14ZM670.99,424.38v-.08c-5.78,92.44-117.5,61.68-117.5,61.68,0,0,43.82-2.93,36.02-42.85-7.5-38.64,31.06-49.82,33.47-50.42l48.1,31.51-.08.15h0Z" fill="#5535ba" stroke-width="0"/>
  <path d="M639.73,716.56c48.78,53.98,129.9,63.57,190,22.76,12.14-8.06,21.43-19.69,26.63-33.37,29.39-80.51-123.78-93.16-53.98-156.43,30.1-27.25,43.06-39.08,23.57-60.61-48.98-54.08-129.9-20-176.33,22.04-59.49,53.98-63.88,146.02-9.9,205.61h0ZM781.57,656.36c13.47,14.9,12.35,37.86-2.55,51.33-14.9,13.47-37.86,12.35-51.33-2.55-13.47-14.9-12.35-37.86,2.55-51.33,14.8-13.47,37.76-12.35,51.33,2.55ZM669.53,630.24c-8.88,8.06-22.76,7.45-30.82-1.53-8.06-8.98-7.45-22.76,1.53-30.82,8.88-8.06,22.76-7.45,30.82,1.53,8.06,8.98,7.45,22.76-1.53,30.82ZM758.3,500.74c8.06,8.88,7.45,22.76-1.53,30.82-8.88,8.06-22.76,7.45-30.82-1.53-8.06-8.98-7.45-22.76,1.53-30.82,8.88-8.06,22.76-7.35,30.82,1.53ZM700.04,533.91c8.06,8.88,7.45,22.76-1.53,30.82-8.88,8.06-22.76,7.45-30.82-1.53-8.06-8.88-7.45-22.76,1.53-30.82,8.88-8.06,22.76-7.35,30.82,1.53Z" fill="#5535ba" stroke-width="0"/>
  <path d="M135.4,199.3l2.3,3.9-19.6,11.4-2.4-3.9,19.7-11.4ZM137.8,210.6l-2.3,3.9-19.7-11.4,2.4-3.9,19.6,11.4ZM124.4,195.6h4.6v22.7h-4.6v-22.7Z" stroke-width="0"/>
</svg>