<svg width="42" height="37" viewBox="0 0 42 37" fill="none" xmlns="http://www.w3.org/2000/svg">
<path d="M40.5845 16.8512L22.5221 0.698064C22.2748 0.476757 21.9811 0.301201 21.6579 0.181425C21.3348 0.0616491 20.9883 0 20.6385 0C20.2887 0 19.9423 0.0616491 19.6191 0.181425C19.2959 0.301201 19.0023 0.476757 18.755 0.698064L18.1693 1.22188C16.4822 2.73087 16.4822 5.37162 18.1693 6.88062L18.45 7.13162C19.2653 7.86087 20.4346 8.00494 21.5053 8.22896C22.0826 8.34975 22.6103 8.61327 23.0281 8.98943C23.446 9.36559 23.7372 9.83926 23.8686 10.3564C24.1034 11.281 24.2419 12.3354 24.9528 12.9716L26.7688 14.5969C27.7522 15.4769 29.1918 15.6204 30.4512 16.0145C31.1299 16.2269 31.7075 16.6397 32.0888 17.1849C32.4702 17.73 32.6327 18.3751 32.5494 19.0139C32.4662 19.6527 32.1422 20.2471 31.6308 20.6992C31.1132 21.1651 30.4307 21.4557 29.7001 21.5215C28.9695 21.5873 28.236 21.4242 27.6249 21.06C27.0138 20.6958 26.563 20.1531 26.3496 19.5247C26.2916 19.3541 26.2522 19.18 26.231 19.0048C26.1295 18.1634 26.0231 17.2281 25.3915 16.6629C24.1508 15.5524 22.1808 16.4331 22.1808 18.0982V21.8161C22.1808 23.0562 23.0857 24.108 23.6535 25.2104C23.9569 25.7992 24.0254 26.4632 23.8477 27.0918C23.67 27.7203 23.2568 28.2754 22.677 28.6645C22.0972 29.0536 21.3858 29.2533 20.6614 29.2301C19.937 29.207 19.2434 28.9625 18.6961 28.5374C18.1488 28.1123 17.7809 27.5322 17.6538 26.8939C17.5267 26.2557 17.648 25.5977 17.9975 25.0297C18.6443 23.9788 19.5746 22.9519 19.5746 21.7179V14.8249C19.5746 14.0973 19.0825 13.4827 18.5393 12.9987C18.2429 12.7346 18.0079 12.4207 17.8479 12.075C17.6878 11.7294 17.6058 11.3588 17.6066 10.9846C17.6081 10.3163 17.5117 9.58991 17.0136 9.14421L15.7251 7.9911C14.2675 6.68669 12.0624 6.68638 10.6044 7.9904L0.780464 16.7772C0.533035 16.9984 0.336756 17.261 0.202841 17.5501C0.0689263 17.8391 0 18.1489 0 18.4618C0 18.7747 0.0689263 19.0846 0.202841 19.3736C0.336756 19.6627 0.533035 19.9253 0.780464 20.1465L18.8429 36.3019C19.0902 36.5232 19.3838 36.6988 19.707 36.8186C20.0302 36.9384 20.3766 37 20.7264 37C21.0763 37 21.4227 36.9384 21.7458 36.8186C22.069 36.6988 22.3627 36.5232 22.61 36.3019L40.5871 20.2228C41.0861 19.7758 41.3665 19.1699 41.3665 18.5382C41.3665 17.9064 41.0861 17.3005 40.5871 16.8535" fill="#232323"/>
</svg>
