<svg width="18" height="18" viewBox="0 0 18 18" fill="none" xmlns="http://www.w3.org/2000/svg">
<path d="M9.00045 0C4.0277 0 1.48058e-06 4.12947 1.48058e-06 9.22787C-0.00108223 11.1649 0.59277 13.0532 1.69732 14.6247C2.80186 16.1963 4.36102 17.3714 6.15361 17.9833C6.60363 18.0636 6.77284 17.7867 6.77284 17.544C6.77284 17.3253 6.76114 16.5991 6.76114 15.8258C4.50023 16.253 3.9152 15.2611 3.73519 14.7415C3.63348 14.4758 3.19516 13.6572 2.81264 13.4376C2.49763 13.2651 2.0476 12.8378 2.80094 12.8267C3.51018 12.8147 4.016 13.4958 4.18521 13.7726C4.99525 15.1678 6.28861 14.7757 6.80614 14.5339C6.88534 13.9341 7.12116 13.5308 7.38037 13.3001C5.37777 13.0694 3.28517 12.2731 3.28517 8.74341C3.28517 7.73942 3.63348 6.90983 4.20771 6.26296C4.11771 6.03226 3.80269 5.0864 4.29772 3.81757C4.29772 3.81757 5.05105 3.5758 6.77284 4.76435C7.50553 4.55586 8.26256 4.45092 9.02295 4.45245C9.78799 4.45245 10.553 4.5558 11.2731 4.76343C12.9949 3.5638 13.7482 3.81849 13.7482 3.81849C14.2432 5.08732 13.9282 6.03318 13.8382 6.26388C14.4115 6.90983 14.7607 7.72834 14.7607 8.74341C14.7607 12.2851 12.6573 13.0694 10.6538 13.3001C10.9805 13.588 11.2623 14.1417 11.2623 15.0073C11.2623 16.2411 11.2506 17.233 11.2506 17.545C11.2506 17.7867 11.4198 18.0746 11.8698 17.9823C13.6562 17.3637 15.2085 16.1864 16.3082 14.616C17.4079 13.0455 17.9996 11.1611 18 9.22787C18 4.12947 13.9723 0 8.99955 0H9.00045Z" fill="#E2E2E2"/>
</svg>
