<svg width="49" height="40" viewBox="0 0 49 40" fill="none" xmlns="http://www.w3.org/2000/svg">
<path d="M10.1385 29.8126C8.64252 29.8126 7.37033 29.335 6.32193 28.3799C5.27354 27.4249 4.75054 26.267 4.75294 24.9063V24.3282C4.75294 22.841 5.95854 21.6354 7.44573 21.6354H8.50308C9.4063 21.6354 10.1385 22.3676 10.1385 23.2709C10.1385 24.1741 10.8707 24.9063 11.7739 24.9063H12.8313C14.3185 24.9063 15.5241 23.7007 15.5241 22.2135V12.8802C15.5241 11.393 16.7297 10.1874 18.2169 10.1874C19.7041 10.1874 20.9097 11.393 20.9097 12.8802V24.9063C20.9097 26.2691 20.3855 27.4281 19.3371 28.3832C18.2887 29.3383 17.0177 29.8148 15.5241 29.8126H10.1385ZM29.8856 29.8126C28.8683 29.8126 28.015 29.4986 27.3257 28.8706C26.6363 28.2426 26.2928 27.4663 26.2952 26.5417V25.9636C26.2952 24.4765 27.5008 23.2709 28.988 23.2709H30.8631C31.3147 23.2709 31.6808 23.637 31.6808 24.0886C31.6808 24.5402 32.0469 24.9063 32.4985 24.9063H37.2261C38.1294 24.9063 38.8616 24.1741 38.8616 23.2709C38.8616 22.3676 38.1294 21.6354 37.2261 21.6354H29.8856C28.8683 21.6354 28.015 21.3214 27.3257 20.6934C26.6363 20.0654 26.2928 19.2891 26.2952 18.3646V13.4583C26.2952 12.5315 26.6399 11.7541 27.3293 11.1261C28.0186 10.4981 28.8707 10.1852 29.8856 10.1874H40.6568C41.674 10.1874 42.5274 10.5014 43.2167 11.1294C43.9061 11.7574 44.2495 12.5337 44.2471 13.4583V14.0363C44.2471 15.5235 43.0415 16.7291 41.5544 16.7291H39.6793C39.2277 16.7291 38.8616 16.363 38.8616 15.9114C38.8616 15.4598 38.4955 15.0937 38.0439 15.0937H33.3162C32.413 15.0937 31.6808 15.8259 31.6808 16.7291C31.6808 17.6323 32.413 18.3646 33.3162 18.3646H40.6568C41.674 18.3646 42.5274 18.6786 43.2167 19.3066C43.9061 19.9346 44.2495 20.7109 44.2471 21.6354V26.5417C44.2471 27.4685 43.9025 28.2458 43.2131 28.8738C42.5238 29.5019 41.6716 29.8148 40.6568 29.8126H29.8856Z" fill="#232323"/>
</svg>
