<svg width="99" height="61" viewBox="0 0 99 61" fill="none" xmlns="http://www.w3.org/2000/svg">
<g clip-path="url(#clip0_1206_32)">
<path d="M48.9412 60.824C48.6061 60.824 48.2932 60.7342 48.0026 60.5771L45.0305 58.8034C44.5834 58.5563 44.807 58.4666 44.9411 58.4217C45.5444 58.2196 45.6562 58.1746 46.2819 57.8156C46.349 57.7705 46.4385 57.793 46.5054 57.8379L48.7849 59.2075C48.8743 59.2524 48.986 59.2524 49.0529 59.2075L57.9697 54.0209C58.059 53.9761 58.1039 53.8861 58.1039 53.774V43.4235C58.1039 43.311 58.059 43.2214 57.9697 43.1763L49.0529 38.0123C48.9636 37.9673 48.8518 37.9673 48.7849 38.0123L39.8682 43.1763C39.7788 43.2212 39.734 43.3335 39.734 43.4233V53.7738C39.734 53.8638 39.7788 53.9759 39.8682 54.0209L42.3041 55.4354C43.6226 56.1089 44.4494 55.3231 44.4494 54.5373V44.3214C44.4494 44.1867 44.5612 44.0519 44.7176 44.0519H45.8573C45.9915 44.0519 46.1255 44.1642 46.1255 44.3214V54.5373C46.1255 56.311 45.1645 57.3439 43.4884 57.3439C42.9745 57.3439 42.5723 57.3439 41.4324 56.7825L39.086 55.4354C38.505 55.0987 38.1475 54.4699 38.1475 53.7964V43.4458C38.1475 42.7723 38.505 42.1434 39.086 41.8068L48.0026 36.6202C48.5614 36.3059 49.3213 36.3059 49.8799 36.6202L58.7965 41.8068C59.3775 42.1434 59.7353 42.7723 59.7353 43.4458V53.7964C59.7353 54.4699 59.3775 55.0987 58.7965 55.4354L49.8799 60.622C49.5893 60.7568 49.254 60.824 48.9412 60.824ZM51.6902 53.7066C47.7795 53.7066 46.9749 51.9104 46.9749 50.3837C46.9749 50.2488 47.0867 50.1142 47.2431 50.1142H48.4052C48.5392 50.1142 48.6509 50.204 48.6509 50.3388C48.8298 51.5287 49.3437 52.1125 51.7126 52.1125C53.5897 52.1125 54.3945 51.6858 54.3945 50.6755C54.3945 50.0917 54.1708 49.6653 51.2433 49.3733C48.8074 49.1262 47.2878 48.5875 47.2878 46.6341C47.2878 44.8154 48.8076 43.7376 51.3551 43.7376C54.2154 43.7376 55.6235 44.7256 55.8023 46.8808C55.8023 46.9483 55.78 47.0157 55.7352 47.0831C55.6904 47.1279 55.6235 47.1728 55.5564 47.1728H54.3943C54.2825 47.1728 54.1708 47.0831 54.1485 46.9708C53.8803 45.736 53.1875 45.3317 51.3551 45.3317C49.2991 45.3317 49.0531 46.0503 49.0531 46.589C49.0531 47.2402 49.3437 47.4423 52.1148 47.8015C54.8636 48.1609 56.1599 48.6772 56.1599 50.608C56.1374 52.5839 54.5285 53.7066 51.6902 53.7066Z" fill="#539E43"/>
<path d="M21.275 20.3421C21.275 19.9381 21.0514 19.5561 20.6939 19.3541L11.2185 13.8757C11.0619 13.7858 10.8832 13.7409 10.7046 13.7184H10.6151C10.4364 13.7184 10.2575 13.7858 10.1011 13.8757L0.625723 19.3541C0.268008 19.5561 0.0446777 19.9379 0.0446777 20.3421L0.0671074 35.0709C0.0671074 35.2729 0.178869 35.475 0.357533 35.5649C0.536391 35.6772 0.759721 35.6772 0.916342 35.5649L6.54793 32.3317C6.90545 32.1297 7.12898 31.748 7.12898 31.3439V24.4509C7.12898 24.0468 7.35231 23.6651 7.71002 23.463L10.1011 22.0709C10.28 21.9586 10.4811 21.9136 10.6822 21.9136C10.8832 21.9136 11.0843 21.9586 11.241 22.0709L13.632 23.463C13.9898 23.6651 14.2131 24.0466 14.2131 24.4509V31.3439C14.2131 31.748 14.4366 32.1297 14.7941 32.3317L20.4257 35.5649C20.5127 35.62 20.6134 35.6492 20.7162 35.6492C20.8191 35.6492 20.9198 35.62 21.0068 35.5649C21.1856 35.475 21.2974 35.2729 21.2974 35.0709L21.275 20.3421ZM66.8194 0.0673984C66.6407 -0.0225475 66.4172 -0.0225475 66.2606 0.0673984C66.0819 0.179685 65.9702 0.359188 65.9702 0.561226V15.1556C65.9702 15.2902 65.9033 15.4248 65.7691 15.5148C65.635 15.582 65.501 15.582 65.3669 15.5148L62.998 14.1452C62.8244 14.0459 62.628 13.9937 62.4281 13.9937C62.2283 13.9937 62.0319 14.0459 61.8582 14.1452L52.3828 19.6461C52.0253 19.8481 51.8018 20.2298 51.8018 20.6339V31.6131C51.8018 32.0172 52.0253 32.3991 52.3828 32.6012L61.8582 38.1021C62.0319 38.2014 62.2283 38.2536 62.4281 38.2536C62.628 38.2536 62.8244 38.2014 62.998 38.1021L72.4734 32.6012C72.831 32.3991 73.0545 32.0174 73.0545 31.6131V4.24357C73.0545 3.81696 72.831 3.43541 72.4734 3.23318L66.8194 0.0673984ZM65.9479 27.9984C65.9479 28.1107 65.9033 28.2004 65.8137 28.2453L62.5734 30.1313C62.5282 30.1535 62.4785 30.1651 62.4281 30.1651C62.3778 30.1651 62.3281 30.1535 62.2828 30.1313L59.0425 28.2453C58.953 28.2004 58.9083 28.0882 58.9083 27.9984V24.2263C58.9083 24.114 58.953 24.0243 59.0425 23.9794L62.2828 22.0933C62.3281 22.071 62.3778 22.0595 62.4281 22.0595C62.4785 22.0595 62.5282 22.071 62.5734 22.0933L65.8137 23.9794C65.9033 24.0241 65.9479 24.1366 65.9479 24.2263V27.9984ZM98.3519 24.1366C98.7096 23.9345 98.9107 23.5528 98.9107 23.1485V20.4768C98.9107 20.0727 98.6872 19.6909 98.3519 19.4889L88.9436 14.0106C88.7699 13.9113 88.5735 13.8591 88.3737 13.8591C88.1738 13.8591 87.9774 13.9113 87.8037 14.0106L78.3284 19.5112C77.9706 19.7133 77.7473 20.095 77.7473 20.4991V31.4785C77.7473 31.8826 77.9708 32.2643 78.3284 32.4664L87.7366 37.855C88.0944 38.057 88.519 38.057 88.8543 37.855L94.5527 34.667C94.7316 34.5771 94.8434 34.375 94.8434 34.173C94.8434 33.971 94.7316 33.7689 94.5527 33.679L85.0327 28.1781C84.8538 28.0658 84.7421 27.8863 84.7421 27.6843V24.249C84.7421 24.047 84.8538 23.845 85.0327 23.755L88.0048 22.0486C88.0918 21.9935 88.1925 21.9643 88.2953 21.9643C88.3982 21.9643 88.4989 21.9935 88.5859 22.0486L91.5582 23.755C91.737 23.8673 91.8486 24.0468 91.8486 24.249V26.9433C91.8486 27.1454 91.9604 27.3474 92.1392 27.4372C92.2262 27.4922 92.327 27.5214 92.4298 27.5214C92.5326 27.5214 92.6333 27.4922 92.7203 27.4372L98.3519 24.1366Z" fill="white"/>
<path d="M88.2283 23.62C88.2615 23.598 88.3003 23.5863 88.3401 23.5863C88.3798 23.5863 88.4187 23.598 88.4518 23.62L90.2621 24.6753C90.329 24.7203 90.3736 24.7875 90.3736 24.8773V26.988C90.3736 27.0778 90.3292 27.1452 90.2621 27.19L88.4518 28.2453C88.4187 28.2673 88.3798 28.279 88.3401 28.279C88.3003 28.279 88.2615 28.2673 88.2283 28.2453L86.4183 27.19C86.3512 27.1452 86.3065 27.0778 86.3065 26.988V24.8775C86.3065 24.7875 86.351 24.7201 86.4183 24.6754L88.2283 23.62Z" fill="#539E43"/>
<path d="M37.1195 14.0554C36.9458 13.9562 36.7494 13.904 36.5496 13.904C36.3498 13.904 36.1535 13.9562 35.9798 14.0554L26.5715 19.5111C26.2138 19.7131 26.0127 20.0948 26.0127 20.4989V31.4334C26.0127 31.8375 26.2362 32.2193 26.5715 32.4213L35.9798 37.8773C36.1535 37.9766 36.3498 38.0287 36.5496 38.0287C36.7494 38.0287 36.9458 37.9766 37.1195 37.8773L46.5279 32.4213C46.8855 32.2193 47.0867 31.8375 47.0867 31.4334V20.4991C47.0867 20.095 46.863 19.7133 46.5279 19.5112L37.1195 14.0554Z" fill="url(#paint0_linear_1206_32)"/>
<mask id="mask0_1206_32" style="mask-type:luminance" maskUnits="userSpaceOnUse" x="26" y="13" width="22" height="26">
<path d="M37.1195 14.0554C36.9458 13.9562 36.7494 13.904 36.5496 13.904C36.3498 13.904 36.1535 13.9562 35.9798 14.0554L26.5715 19.5111C26.2138 19.7131 26.0127 20.0948 26.0127 20.4989V31.4334C26.0127 31.8375 26.2362 32.2193 26.5715 32.4213L35.9798 37.8773C36.1535 37.9766 36.3498 38.0287 36.5496 38.0287C36.7494 38.0287 36.9458 37.9766 37.1195 37.8773L46.5279 32.4213C46.8855 32.2193 47.0867 31.8375 47.0867 31.4334V20.4991C47.0867 20.095 46.863 19.7133 46.5279 19.5112L37.1195 14.0554Z" fill="white"/>
</mask>
<g mask="url(#mask0_1206_32)">
<path d="M46.5501 19.5112L37.0972 14.0554C37.0043 14.0083 36.9069 13.9707 36.8066 13.9431L26.2137 32.1748C26.3015 32.2823 26.4075 32.3736 26.5268 32.4442L35.9797 37.9002C36.2479 38.0574 36.5608 38.1023 36.8512 38.0123L46.7961 19.736C46.729 19.6463 46.6395 19.5785 46.5501 19.5112Z" fill="url(#paint1_linear_1206_32)"/>
</g>
<mask id="mask1_1206_32" style="mask-type:luminance" maskUnits="userSpaceOnUse" x="26" y="13" width="22" height="26">
<path d="M37.1195 14.0554C36.9458 13.9562 36.7494 13.904 36.5496 13.904C36.3498 13.904 36.1535 13.9562 35.9798 14.0554L26.5715 19.5111C26.2138 19.7131 26.0127 20.0948 26.0127 20.4989V31.4334C26.0127 31.8375 26.2362 32.2193 26.5715 32.4213L35.9798 37.8773C36.1535 37.9766 36.3498 38.0287 36.5496 38.0287C36.7494 38.0287 36.9458 37.9766 37.1195 37.8773L46.5279 32.4213C46.8855 32.2193 47.0867 31.8375 47.0867 31.4334V20.4991C47.0867 20.095 46.863 19.7133 46.5279 19.5112L37.1195 14.0554Z" fill="white"/>
</mask>
<g mask="url(#mask1_1206_32)">
<path fill-rule="evenodd" clip-rule="evenodd" d="M46.5726 32.4215C46.8408 32.2643 47.0419 31.9949 47.1314 31.7031L36.7617 13.9206C36.4935 13.8757 36.2029 13.8981 35.9573 14.0552L26.5713 19.4889L36.6946 38.0346C36.8419 38.0106 36.9849 37.9652 37.1192 37.9L46.5726 32.4215Z" fill="url(#paint2_linear_1206_32)"/>
<path fill-rule="evenodd" clip-rule="evenodd" d="M46.5726 32.4215L37.1419 37.8775C37.0087 37.9456 36.8653 37.9911 36.7173 38.0121L36.8961 38.349L47.3548 32.2645V32.1297L47.0866 31.6805C47.0419 31.9949 46.8408 32.2643 46.5726 32.4215Z" fill="url(#paint3_linear_1206_32)"/>
<path fill-rule="evenodd" clip-rule="evenodd" d="M46.5726 32.4215L37.1419 37.8775C37.0087 37.9456 36.8653 37.9911 36.7173 38.0121L36.8961 38.349L47.3548 32.2645V32.1297L47.0866 31.6805C47.0419 31.9949 46.8408 32.2643 46.5726 32.4215Z" fill="url(#paint4_linear_1206_32)"/>
</g>
</g>
<defs>
<linearGradient id="paint0_linear_1206_32" x1="1463.01" y1="435.774" x2="424.889" y2="2059.35" gradientUnits="userSpaceOnUse">
<stop stop-color="#41873F"/>
<stop offset="0.3288" stop-color="#418B3D"/>
<stop offset="0.6352" stop-color="#419637"/>
<stop offset="0.9319" stop-color="#3FA92D"/>
<stop offset="1" stop-color="#3FAE2A"/>
</linearGradient>
<linearGradient id="paint1_linear_1206_32" x1="916.955" y1="1344.35" x2="3505.15" y2="-55.256" gradientUnits="userSpaceOnUse">
<stop offset="0.1376" stop-color="#41873F"/>
<stop offset="0.4032" stop-color="#54A044"/>
<stop offset="0.7136" stop-color="#66B848"/>
<stop offset="0.9081" stop-color="#6CC04A"/>
</linearGradient>
<linearGradient id="paint2_linear_1206_32" x1="-63.667" y1="1220.55" x2="2113.4" y2="1220.55" gradientUnits="userSpaceOnUse">
<stop offset="0.09192" stop-color="#6CC04A"/>
<stop offset="0.2864" stop-color="#66B848"/>
<stop offset="0.5968" stop-color="#54A044"/>
<stop offset="0.8624" stop-color="#41873F"/>
</linearGradient>
<linearGradient id="paint3_linear_1206_32" x1="-1068.1" y1="366.936" x2="1108.94" y2="366.936" gradientUnits="userSpaceOnUse">
<stop offset="0.09192" stop-color="#6CC04A"/>
<stop offset="0.2864" stop-color="#66B848"/>
<stop offset="0.5968" stop-color="#54A044"/>
<stop offset="0.8624" stop-color="#41873F"/>
</linearGradient>
<linearGradient id="paint4_linear_1206_32" x1="1426.11" y1="-1375.82" x2="869.571" y2="1526.8" gradientUnits="userSpaceOnUse">
<stop stop-color="#41873F"/>
<stop offset="0.3288" stop-color="#418B3D"/>
<stop offset="0.6352" stop-color="#419637"/>
<stop offset="0.9319" stop-color="#3FA92D"/>
<stop offset="1" stop-color="#3FAE2A"/>
</linearGradient>
<clipPath id="clip0_1206_32">
<rect width="99" height="61" fill="white"/>
</clipPath>
</defs>
</svg>
