<svg width="26" height="26" viewBox="0 0 26 26" fill="none" xmlns="http://www.w3.org/2000/svg">
<g clip-path="url(#clip0_1094_530)">
<path d="M10.2172 7.82031H8.71405V12.025H10.2172C11.2328 12.025 12.0656 11.1922 12.0656 10.1766V9.68906C12.0656 8.65313 11.2328 7.82031 10.2172 7.82031Z" fill="#E2E2E2"/>
<path d="M0 0V26H26V0H0ZM10.4 13.7109H8.71406V18.0375H6.76406V6.15469H10.5219C12.4312 6.13437 13.9953 7.65781 14.0156 9.56719V10.0344C14.0156 12.0453 12.3906 13.6906 10.4 13.7109ZM19.7641 10.8266C19.7641 10.8266 18.3422 10.8266 17.7125 11.0906V18.0375H15.6609V9.93281C15.6609 9.93281 17.7328 8.89687 19.7641 9.16094V10.8266Z" fill="#E2E2E2"/>
</g>
<defs>
<clipPath id="clip0_1094_530">
<rect width="26" height="26" fill="white"/>
</clipPath>
</defs>
</svg>
