<svg width="45" height="37" viewBox="0 0 45 37" fill="none" xmlns="http://www.w3.org/2000/svg">
<path d="M43.7826 18.2756C43.7826 22.8047 34.2054 26.4756 22.3913 26.4756C10.5772 26.4756 1 22.8047 1 18.2756C1 13.7464 10.5772 10.0756 22.3913 10.0756C34.2054 10.0756 43.7826 13.7464 43.7826 18.2756Z" stroke="#232323" stroke-width="2"/>
<path d="M12.2029 35.0992C16.6554 37.2585 24.8238 31.4721 30.4528 22.1815C36.0787 12.8881 37.0321 3.60848 32.5797 1.45188C28.1272 -0.707452 19.9588 5.07902 14.3298 14.3696C8.70391 23.6629 7.75047 32.9426 12.2029 35.0992Z" stroke="#232323" stroke-width="2"/>
<path d="M32.5797 35.0992C28.1272 37.2585 19.9588 31.4721 14.3298 22.1815C8.70391 12.8881 7.75047 3.60848 12.2029 1.45188C16.6554 -0.707452 24.8238 5.07902 30.4528 14.3696C36.0787 23.6629 37.0321 32.9426 32.5797 35.0992Z" stroke="#232323" stroke-width="2"/>
<path d="M19.3354 18.2755C19.3354 19.0004 19.6574 19.6957 20.2305 20.2083C20.8036 20.7209 21.5808 21.0088 22.3913 21.0088C23.2018 21.0088 23.9791 20.7209 24.5522 20.2083C25.1253 19.6957 25.4472 19.0004 25.4472 18.2755C25.4472 17.5506 25.1253 16.8553 24.5522 16.3427C23.9791 15.8301 23.2018 15.5422 22.3913 15.5422C21.5808 15.5422 20.8036 15.8301 20.2305 16.3427C19.6574 16.8553 19.3354 17.5506 19.3354 18.2755Z" stroke="#232323" stroke-width="2"/>
</svg>
