<svg width="40" height="36" viewBox="0 0 40 36" fill="none" xmlns="http://www.w3.org/2000/svg">
<mask id="mask0_1521_190" style="mask-type:luminance" maskUnits="userSpaceOnUse" x="0" y="0" width="40" height="36">
<path d="M0 10C0 4.47716 4.47715 0 10 0H29.883C35.4059 0 39.883 4.47715 39.883 10V25.6731C39.883 31.196 35.4059 35.6732 29.883 35.6732H9.99999C4.47714 35.6732 0 31.196 0 25.6732V10Z" fill="white"/>
</mask>
<g mask="url(#mask0_1521_190)">
<path d="M27.6347 24.62C27.6354 24.6194 27.6363 24.619 27.6372 24.6189C29.1072 24.4815 30.2232 23.3358 30.1733 21.9614C30.1484 21.3005 29.8388 20.6739 29.3091 20.2126C28.7795 19.7513 28.0709 19.4912 27.3316 19.4866H27.2286C25.6549 19.5311 24.4368 20.7232 24.4867 22.1442C24.5734 23.267 24.9261 24.5505 24.2528 25.4532C22.5586 27.7245 20.2068 29.5011 16.9754 31.0343C14.2866 32.3185 11.4948 32.7763 8.70461 32.4552C6.41964 32.1803 4.64319 31.2632 3.52646 29.7515C1.90289 27.5071 1.75167 25.0768 3.12098 22.6481C3.87871 21.2797 4.98256 20.1934 5.88831 19.4801C6.28031 19.1714 6.45761 18.6529 6.31446 18.1749C6.09438 17.44 5.22831 17.0926 4.6251 17.5666C-1.34609 22.2583 -0.544992 28.157 1.54561 31.0357C3.22069 33.3277 6.62072 34.7487 10.378 34.7487C11.4038 34.7549 12.4264 34.6471 13.4224 34.4277C19.9198 33.2832 24.8418 29.7994 27.6337 24.6212C27.634 24.6207 27.6343 24.6203 27.6347 24.62ZM36.5679 18.9366C32.7109 14.858 27.0259 12.612 20.5299 12.612C20.0281 12.612 19.5832 12.3178 19.2116 11.9804C19.0563 11.8394 18.882 11.7148 18.692 11.6097C18.253 11.3669 17.7473 11.2379 17.2313 11.2371H17.1282C15.5562 11.2832 14.3364 12.4753 14.3879 13.8963C14.4378 15.2712 15.7074 16.3696 17.2296 16.3696H17.3326C17.8687 16.3448 18.3861 16.1856 18.8258 15.9101C18.9943 15.8045 19.1488 15.6834 19.2871 15.5493C19.6877 15.1608 20.1746 14.8119 20.7327 14.8119C24.5897 14.8119 28.244 15.8197 31.5426 17.7906C34.0802 19.3037 35.9082 21.2732 36.9219 23.6573C37.786 25.5807 37.7361 27.4595 36.8221 29.0648C35.3997 31.4935 33.015 32.8224 29.8675 32.8224C28.201 32.8224 26.6018 32.4514 25.5209 32.0899C25.1293 31.9589 24.697 32.0185 24.3684 32.2687C23.6404 32.823 23.7555 33.9739 24.6325 34.235C26.1557 34.6883 27.6812 34.9301 29.158 34.9301C34.0303 34.9301 37.6331 32.5013 39.0041 30.0726C40.4748 27.4149 40.3734 22.8324 36.5679 18.9366ZM10.7852 25.3979C10.835 26.7728 12.1046 27.8727 13.6268 27.8727H13.7282C15.3019 27.8281 16.52 26.6361 16.4702 25.2151C16.4453 24.5542 16.1356 23.9276 15.606 23.4663C15.0763 23.005 14.3677 22.7449 13.6285 22.7402H13.5255C13.3125 22.7277 13.0876 22.6628 12.9727 22.4831C11.035 19.4508 10.2366 16.1609 10.5309 12.612C10.7337 9.86224 11.749 7.47957 13.5255 5.50863C14.9978 3.81415 17.8395 2.98921 19.7688 2.94313C24.5745 2.8608 26.9092 7.68027 27.4615 10.4407C27.5657 10.9617 27.8755 11.3883 28.3894 11.5233C29.1931 11.7345 30.046 11.1168 29.8916 10.3003C28.7 4.00068 24.0478 0.743286 19.5644 0.743286C14.9978 0.743286 10.7852 3.722 9.11009 8.12168C6.98199 13.4676 8.05816 18.6234 10.4184 22.8609C10.8284 23.5969 10.6995 24.5597 10.7852 25.3979Z" fill="#232323"/>
</g>
</svg>
