<svg width="87" height="87" viewBox="0 0 87 87" fill="none" xmlns="http://www.w3.org/2000/svg">
<path d="M57.6468 57.3153C52.4898 67.8587 43.4591 74.9526 31.5118 77.2847C29.68 77.7337 27.7995 77.9531 25.9135 77.9379C19.0374 77.9379 12.7343 75.0729 9.67441 70.3799C5.56593 64.1284 4.16778 50.8747 17.7137 41.0704C17.9888 42.566 18.5503 44.6174 18.9228 45.8322C16.2636 47.8077 14.087 50.3605 12.5567 53.2985C10.0354 58.2493 10.3162 63.1944 13.3016 67.767C15.3644 70.8498 18.6306 72.7235 22.8307 73.2966C28.0768 73.9606 33.3989 72.9583 38.0442 70.4315C45.3271 66.6038 50.1805 62.0312 53.355 55.7796C52.4574 54.852 51.9261 53.6307 51.8594 52.3416C51.8115 50.9582 52.3142 49.6124 53.2575 48.5993C54.2007 47.5863 55.5072 46.9888 56.8905 46.9381H57.0853C58.4307 46.9313 59.7272 47.4421 60.7066 48.3646C61.6859 49.2871 62.2731 50.5508 62.3468 51.8942C62.4204 53.2376 61.9747 54.5579 61.102 55.5819C60.2293 56.6059 58.9964 57.2552 57.6583 57.3955L57.6468 57.3153ZM74.0751 45.7405C81.0715 53.6709 81.2606 63.0053 78.556 68.4202C76.0347 73.3653 69.3878 78.3161 60.4489 78.3161C56.276 78.2306 52.1711 77.2435 48.4156 75.4224C49.7278 74.4884 51.5901 72.9929 52.6158 72.0588C55.5115 73.314 58.6282 73.9802 61.784 74.0185C67.5714 74.0185 71.9549 71.3139 74.5678 66.3689C76.2468 63.1027 76.3442 59.275 74.7569 55.3556C72.8096 50.424 69.3439 46.2398 64.861 43.4083C58.9801 39.4439 52.0471 37.3305 44.9547 37.3401H43.2757C42.8842 38.2445 42.2473 39.0212 41.4372 39.5822C40.627 40.1433 39.6759 40.4663 38.6917 40.5146H38.514C37.1526 40.4979 35.8514 39.9511 34.8867 38.9904C33.922 38.0297 33.3698 36.7307 33.3474 35.3694C33.3251 34.0081 33.8343 32.6917 34.7669 31.6998C35.6995 30.7079 36.982 30.1187 38.3421 30.0572H38.5312C39.479 30.0579 40.4083 30.3198 41.217 30.8141C42.0256 31.3084 42.6825 32.016 43.1153 32.8592H44.6109C56.5295 32.8592 66.9926 37.4318 74.0751 45.7405ZM26.6584 58.9197C26.5598 57.9682 26.7904 57.0115 27.3117 56.2094C22.0858 47.1558 19.2895 35.6784 23.5814 23.7312C26.6584 14.7521 34.4055 8.6839 42.8059 8.6839C51.7678 8.6839 61.1021 16.5284 62.2195 31.6444C60.8213 31.1803 58.7814 30.4984 57.5552 30.2463C57.2515 25.3012 53.0742 12.9815 43.1783 13.1648C39.6314 13.2623 34.4055 14.9412 31.7181 18.3907C28.3942 22.5087 26.4604 27.5738 26.1943 32.8592C25.564 40.1065 27.2644 47.3658 31.0477 53.5793C31.2565 53.503 31.4792 53.4717 31.7009 53.4876H31.8843C33.2703 53.4625 34.6095 53.989 35.6072 54.9513C36.605 55.9137 37.1796 57.2329 37.2047 58.6189C37.2298 60.0049 36.7032 61.3441 35.7409 62.3418C34.7786 63.3396 33.4594 63.9142 32.0734 63.9393H31.8843C30.5322 63.9345 29.234 63.4081 28.2605 62.4697C27.2869 61.5314 26.713 60.2536 26.6584 58.9025V58.9197Z" fill="#764ABC"/>
</svg>
