<svg width="39" height="34" viewBox="0 0 39 34" fill="none" xmlns="http://www.w3.org/2000/svg">
<path d="M27.3083 0.00230588C27.3083 0.00103484 27.3072 6.78014e-06 27.306 1.52768e-05C25.7857 0.0101781 24.2738 0.20249 22.8107 0.571822C22.7423 0.590167 22.6709 0.594017 22.6009 0.583668C21.7133 0.452501 20.8161 0.379834 19.9165 0.366275C19.5537 0.360735 19.2005 0.370652 18.8572 0.394925C16.2912 0.576377 13.6463 0.900909 11.0919 0.596132C10.1543 0.484251 9.13826 0.426951 8.10313 0.476003C6.104 0.570276 3.92344 1.09728 2.30789 2.57783C0.695798 4.05839 -0.156037 6.34877 0.0236605 9.46597C0.0720405 10.3268 0.353681 11.7285 0.823659 13.546C1.29018 15.3619 1.95022 17.4869 2.77096 19.4265C3.59169 21.3676 4.4919 23.1109 5.89838 24.2947C6.59989 24.8882 7.56576 25.3873 8.70442 25.3456C9.11047 25.3315 9.49693 25.2461 9.86064 25.1066C10.4606 24.8766 11.1964 24.9273 11.7766 25.2034C12.148 25.3796 12.5109 25.5002 12.8858 25.5805C13.9242 25.8182 15.0056 25.8661 16.0651 25.7212C16.0962 25.7167 16.1273 25.7119 16.1586 25.7069C16.8311 25.5984 17.5233 26.0468 17.5562 26.7273C17.6219 28.1954 17.6651 29.5508 18.1731 30.7393C18.2543 30.934 18.4772 31.9339 19.3601 32.8164C20.2413 33.7004 21.9692 34.2506 23.9355 33.8858C25.323 33.6278 27.0888 33.1626 28.2603 31.716C29.418 30.2849 29.9415 28.231 30.0452 24.9021C30.0556 24.83 30.0669 24.7622 30.0787 24.6976C30.1075 24.5409 30.2527 24.4353 30.4115 24.4477H30.4426C31.9234 24.5064 33.5303 24.3241 34.8728 23.7831C36.0616 23.3041 36.9601 22.8219 37.615 21.9641C37.7791 21.7524 37.9588 21.4959 38.0072 21.0523C38.0556 20.6119 37.7653 19.9195 37.2798 19.6011C36.307 18.9613 35.697 19.2039 35.0422 19.3229C34.2306 19.4786 33.7207 18.5738 34.1439 17.8641C35.4839 15.6172 36.4747 13.3245 37.0931 11.2479C37.5493 9.71788 37.8068 8.30687 37.8275 7.07359C37.8482 5.84031 37.7325 4.74767 36.8806 3.80184C34.218 0.850005 30.4737 0.0340001 27.5778 0.00618178C27.4888 0.00464967 27.3997 0.00311768 27.3106 0.00459703C27.3093 0.0046183 27.3083 0.00358647 27.3083 0.00230588ZM27.2314 0.908735C27.2319 0.907778 27.2329 0.907182 27.234 0.907173C29.9724 0.884291 33.4721 1.55224 35.9839 4.33812C36.5489 4.96403 36.7165 5.87894 36.6975 7.00713C36.6767 8.13378 36.4366 9.48142 35.9977 10.9589C35.1676 13.7481 33.6171 16.9864 31.439 19.9216C31.3474 20.0451 31.3805 20.2233 31.526 20.2734C31.9994 20.4434 33.0776 20.5887 35.2322 20.2054C35.7731 20.1049 36.1705 20.0385 36.5817 20.3105C36.6803 20.3834 36.7586 20.4758 36.8105 20.5804C36.8624 20.685 36.8864 20.7989 36.8806 20.9132C36.8582 21.0859 36.7848 21.2502 36.6681 21.3892C36.2534 21.9317 35.4309 22.4463 34.377 22.8698C33.4456 23.2469 32.1083 23.4431 30.923 23.4555C30.3286 23.4601 29.7808 23.42 29.3161 23.2948C29.2998 23.2899 29.2832 23.3002 29.2812 23.317C29.0995 24.8273 28.6904 27.7613 28.4245 29.1042C28.2085 30.1953 27.8318 31.0623 27.1113 31.7114C26.3925 32.3605 25.3765 32.7515 24.0081 33.0065C22.313 33.3218 21.0776 32.9818 20.2811 32.3991C19.4863 31.8196 19.1217 31.0484 18.9022 30.5755C18.7519 30.2509 18.6742 29.829 18.5981 29.2649C18.5147 28.5895 18.4588 27.9116 18.4305 27.2326C18.4195 26.9695 18.4102 26.7064 18.4025 26.4432C18.3698 25.3302 16.9488 24.5713 15.8474 24.7352C14.7243 24.9005 13.7187 24.7382 13.1191 24.6084C12.8251 24.5438 12.5409 24.4478 12.2725 24.3225C11.9925 24.1942 11.7282 24.049 11.5519 23.7615C11.4481 23.5974 11.4149 23.405 11.4586 23.2206C11.5151 23.0332 11.6405 22.8682 11.8146 22.7523C12.1394 22.5236 12.5662 22.3969 13.2107 22.2794C14.3856 22.0708 14.7951 21.927 15.0439 21.7555C15.2542 21.6103 15.4914 21.3184 15.9079 20.8888C15.9166 20.8798 15.9209 20.8674 15.9197 20.8551C15.9176 20.8337 15.9001 20.817 15.8787 20.8164C15.4583 20.8033 15.0427 20.7423 14.6418 20.6358C14.083 20.4873 13.4658 20.5632 13.0465 20.9613C12.4865 21.4931 11.6567 22.3003 10.7243 23.2731C10.0833 23.9392 9.37483 24.321 8.62667 24.3488C7.87851 24.3766 7.20291 24.049 6.62927 23.5668C5.48024 22.5993 4.56447 20.9349 3.7662 19.054C2.97139 17.1717 2.32171 15.076 1.8621 13.291C1.39904 11.506 1.12603 10.0672 1.08802 9.37324C0.915236 6.42295 1.71005 4.43548 3.07506 3.18211C4.44007 1.92874 6.30961 1.45428 8.13423 1.3631C9.00634 1.31944 9.8668 1.35777 10.6718 1.44153C13.5664 1.74271 16.6226 1.31162 19.5325 1.27179C19.6425 1.27028 19.7538 1.27031 19.8664 1.27192C20.7793 1.28308 21.6879 1.38428 22.5759 1.57365C22.5983 1.57843 22.6216 1.57672 22.6431 1.56865C23.0387 1.4481 23.4413 1.3461 23.8491 1.26574C24.9586 1.0413 26.0914 0.922166 27.2288 0.910297C27.2299 0.910285 27.2309 0.909689 27.2314 0.908735ZM27.4793 1.8561H27.2426C26.4407 1.86578 26.2714 2.9726 26.9361 3.4214C27.744 3.96689 28.4756 4.60235 29.1122 5.31485C29.8615 6.14359 30.4833 7.0584 30.961 8.03487C31.1407 8.40887 31.2616 8.72569 31.329 8.96987C31.3636 9.09351 31.3878 9.19706 31.3947 9.30524C31.4011 9.37169 31.3953 9.43862 31.3773 9.50333C31.3762 9.50726 31.3747 9.51104 31.3727 9.5146C31.3678 9.52322 31.3655 9.53314 31.3659 9.54301C31.4125 10.7757 31.061 11.6144 31.018 12.7934C30.9852 13.6526 31.2374 14.6618 31.2996 15.7606C31.3568 16.7676 31.2227 17.8696 30.5033 18.9558C30.4676 19.0096 30.474 19.082 30.5174 19.1299C30.5749 19.1932 30.6747 19.1874 30.7248 19.1181C32.7219 16.3561 34.1648 13.3155 34.9385 10.7193C35.3584 9.29751 35.583 8.01014 35.602 6.99013C35.6193 5.97013 35.3998 5.22985 35.1199 4.9223C32.929 2.49129 29.9657 1.8731 27.4793 1.8561ZM19.6608 2.21929C17.7308 2.22238 16.345 2.72929 15.2962 3.48657C14.2128 4.27012 13.4871 5.34112 13.0102 6.43995C12.5519 7.53027 12.2704 8.67362 12.1743 9.83521C12.1734 9.84622 12.1847 9.85404 12.1947 9.84924C12.777 9.56488 13.5424 9.28206 14.3614 9.11824C15.1822 8.95442 16.0651 8.90342 16.8651 9.17233C17.6651 9.44279 18.3269 10.0749 18.567 11.0362C19.7161 15.6509 18.2094 17.3664 17.653 18.6599C17.4719 19.0633 17.313 19.4743 17.1769 19.8915C17.1471 19.9825 17.2276 20.0671 17.323 20.0586C17.6265 20.0439 17.9293 20.097 18.2042 20.2131C18.764 20.414 19.1476 20.8344 19.3549 21.3166C19.385 21.3877 19.4107 21.4617 19.4314 21.5376C19.4639 21.6562 19.507 21.7763 19.5035 21.8992C19.4415 23.6638 19.4484 25.4298 19.5243 27.194C19.5623 27.9574 19.6176 28.6282 19.6884 29.1583C19.7575 29.6868 19.8578 30.0886 19.9217 30.2246C20.129 30.679 20.4349 31.2725 20.9878 31.6758C21.5407 32.0777 22.3303 32.3466 23.7765 32.0777C25.031 31.8443 25.805 31.5213 26.3234 31.053C26.8383 30.5878 27.1476 29.9403 27.3446 28.9465C27.64 27.4583 28.2344 23.1449 28.3053 22.332C28.2742 21.7215 28.3778 21.2501 28.6024 20.8916C28.8357 20.5238 29.1951 20.2981 29.5044 20.176C29.6952 20.1002 29.7764 19.8619 29.6399 19.7086C29.6027 19.6668 29.565 19.6253 29.5269 19.5841C29.0814 19.1157 28.7152 18.5914 28.44 18.0278C28.3086 17.7955 28.1686 17.5672 28.0202 17.3432C27.8042 17.0032 27.5294 16.5782 27.2426 16.1006C26.6672 15.144 26.0418 13.9849 25.7169 12.8552C25.3938 11.7285 25.3454 10.5617 26.1748 9.73797C26.8449 9.07251 27.9731 8.76182 29.6313 8.8397C29.8649 8.85067 30.0512 8.61427 29.9485 8.40423C29.509 7.50739 28.9378 6.66697 28.25 5.90522C26.6085 4.08466 23.9528 2.27956 19.8474 2.22083L19.6608 2.21929ZM8.81674 2.29192C8.60939 2.29192 8.40205 2.29811 8.19471 2.30738C6.54633 2.38929 4.9878 2.80502 3.87333 3.83121C2.75541 4.85585 2.02107 6.53731 2.18003 9.32224C2.21286 9.8477 2.47722 11.3252 2.92992 13.0777C3.38262 14.8334 4.02538 16.8966 4.79601 18.7187C5.56663 20.5423 6.50313 22.1295 7.39125 22.8806C7.83877 23.2561 8.22754 23.4076 8.58002 23.3952C8.93423 23.3798 9.35928 23.2036 9.8811 22.6611C10.2326 22.2932 10.589 21.929 10.95 21.5686C11.912 20.6083 11.7613 18.9895 11.2254 17.7404C10.8932 16.9628 10.792 16.1215 10.9316 15.2985C11.0992 14.2507 11.1217 13.2709 11.1027 12.4982C11.082 11.744 11.0198 11.2432 11.0198 10.9295V10.8862C11.0182 9.25292 11.3454 7.63268 11.9856 6.10304C12.6171 4.64384 12.0785 2.55543 10.4974 2.38725C10.1513 2.35043 9.79586 2.32271 9.43531 2.30738C9.22814 2.29771 9.02073 2.29256 8.81328 2.29192H8.81674ZM29.0569 9.77506C27.9493 9.78742 27.3273 10.0362 27.0007 10.3608C26.5377 10.8213 26.4945 11.6281 26.7813 12.6234C27.0664 13.6186 27.6573 14.7329 28.2137 15.6571C28.4901 16.1207 28.7597 16.538 28.9774 16.8749C29.1968 17.2149 29.3575 17.456 29.4543 17.6631C29.5683 17.9023 29.8963 17.8877 29.9857 17.6383C30.2022 17.0345 30.2406 16.4332 30.2059 15.8116C30.1489 14.8164 29.8828 13.7979 29.9225 12.7671C29.9466 12.0953 30.0426 11.5537 30.127 11.0444C30.239 10.369 29.7415 9.7755 29.0569 9.77506ZM15.6141 9.93733C15.2757 9.94015 14.9386 9.97538 14.6085 10.0424C13.9525 10.1806 13.3194 10.3946 12.7252 10.6792C12.5264 10.7719 12.3347 10.8801 12.155 11.0022C12.1333 11.0196 12.1212 11.0464 12.1229 11.0742C12.1367 11.3035 12.1788 11.7874 12.1982 12.4765C12.2154 13.2848 12.1947 14.3156 12.015 15.4284C11.717 17.2776 12.8256 18.8838 14.4257 19.5424C15.3251 19.9126 16.2432 19.2215 16.6267 18.3277C17.2902 16.7776 18.5947 15.6478 17.4958 11.2355C17.3161 10.5138 16.9601 10.2217 16.4694 10.0563C16.1944 9.97199 15.9048 9.93171 15.6141 9.93733ZM28.5394 10.2248C28.539 10.2255 28.5395 10.2263 28.5403 10.2263H28.6215C28.7286 10.2294 28.8288 10.2402 28.9152 10.2572C28.9947 10.2714 29.0707 10.2981 29.1398 10.3361C29.1711 10.3529 29.1981 10.3753 29.2192 10.4019C29.2377 10.4251 29.2513 10.4511 29.2593 10.4787C29.2617 10.4865 29.2625 10.4948 29.2625 10.503C29.2652 10.5707 29.2447 10.6376 29.2037 10.6946C29.1552 10.7724 29.0948 10.8437 29.024 10.9063C28.8569 11.0656 28.636 11.1715 28.3951 11.2077C28.1592 11.2327 27.921 11.1806 27.7247 11.0609C27.6452 11.0147 27.5736 10.9585 27.5122 10.894C27.4594 10.8442 27.4234 10.782 27.4085 10.7147C27.4049 10.6817 27.4091 10.6483 27.421 10.6168C27.433 10.5854 27.4522 10.5566 27.4776 10.5323C27.5318 10.4795 27.597 10.4364 27.6694 10.4056C27.9418 10.2916 28.2378 10.2295 28.5385 10.2233C28.5392 10.2233 28.5398 10.2241 28.5394 10.2248ZM15.7714 10.4673C15.7725 10.4655 15.7744 10.4643 15.7765 10.4643C15.8619 10.4645 15.9523 10.4722 16.0444 10.4829C16.2932 10.5138 16.5161 10.571 16.6854 10.656C16.7683 10.6946 16.8409 10.7441 16.9031 10.8059C16.9354 10.8388 16.9601 10.8772 16.9757 10.9187C16.9912 10.96 16.9965 11.0037 16.9912 11.047C16.9751 11.1288 16.9325 11.2046 16.8686 11.2649C16.8016 11.3367 16.7229 11.3993 16.6353 11.4503C16.4208 11.5812 16.1604 11.6378 15.9027 11.6095C15.641 11.5724 15.4004 11.4589 15.2185 11.2865C15.1418 11.218 15.0766 11.1399 15.0249 11.0547C14.9711 10.9806 14.9473 10.8922 14.9575 10.8043C14.9817 10.6498 15.1286 10.5725 15.2686 10.5262C15.4295 10.4819 15.5978 10.4631 15.766 10.4704C15.7682 10.4705 15.7703 10.4693 15.7714 10.4673ZM30.5636 20.8679C30.5636 20.8682 30.5633 20.8684 30.563 20.8684H30.5591C30.5586 20.8684 30.5582 20.8685 30.5577 20.8686C30.3178 20.9457 30.1211 20.9766 29.9536 21.0384C29.7869 21.0942 29.6487 21.2024 29.5649 21.3429C29.4812 21.4738 29.4088 21.6874 29.3976 22.0233C29.3921 22.1871 29.4836 22.345 29.6426 22.3845C29.9208 22.4587 30.3891 22.5081 30.9126 22.5004C31.9528 22.4896 33.2348 22.2794 33.9156 22.0043C34.332 21.836 34.1442 21.3324 33.6964 21.3671C32.4691 21.4622 31.6642 21.3496 31.1061 21.1497C30.9111 21.0797 30.7286 20.9846 30.5644 20.8674C30.564 20.8672 30.5636 20.8674 30.5636 20.8679ZM17.4526 21.0029C17.4526 21.002 17.4518 21.0013 17.451 21.0013H17.418C17.3316 21.0075 17.2055 21.0322 16.9636 21.2671C16.3934 21.8204 16.1964 22.1666 15.7264 22.4911C15.2599 22.8157 14.65 22.9872 13.4336 23.2036C13.1462 23.2543 12.9511 23.3093 12.8088 23.359C12.7528 23.3786 12.7403 23.4586 12.7943 23.4833C12.9722 23.5683 13.202 23.6425 13.3852 23.6842C13.9087 23.7971 14.7675 23.93 15.6642 23.7971C16.5593 23.6641 17.4923 23.2917 18.2871 22.3242C18.4254 22.1573 18.4392 21.91 18.3269 21.6442C18.2111 21.3815 17.9623 21.1528 17.7861 21.0879C17.681 21.0445 17.5689 21.0164 17.454 21.0046C17.4532 21.0045 17.4526 21.0038 17.4526 21.0029Z" fill="#232323"/>
</svg>
