<svg width="87" height="87" viewBox="0 0 87 87" fill="none" xmlns="http://www.w3.org/2000/svg">
<path d="M62.6641 61.7352C63.1733 57.4975 63.0209 56.8755 66.1772 57.5624L66.9783 57.6325C69.4055 57.7427 72.5807 57.242 74.4462 56.3754C78.462 54.5118 80.8426 51.4015 76.8838 52.2182C67.852 54.0817 67.2313 51.0234 67.2313 51.0234C76.7684 36.873 80.755 18.9099 77.3132 14.5127C67.9273 2.51982 51.6805 8.19098 51.4087 8.33757L51.3218 8.35379C49.5374 7.98341 47.5402 7.76222 45.2965 7.72589C41.2093 7.65843 38.1081 8.79747 35.7555 10.5813C35.7555 10.5813 6.7718 -1.35976 8.12035 25.5982C8.40705 31.3329 16.3401 68.9916 25.8026 57.6169C29.2612 53.4577 32.603 49.9408 32.603 49.9408C34.2623 51.0428 36.2497 51.6058 38.3332 51.4035L38.4947 51.2659C38.4441 51.7823 38.4662 52.2876 38.5589 52.8856C36.122 55.6093 36.8381 56.0874 31.9648 57.0902C27.0337 58.106 29.9306 59.9151 31.8214 60.3879C34.1144 60.9613 39.4184 61.7734 43.0028 56.7568L42.8601 57.3289C43.8163 58.0943 43.752 62.8275 43.887 66.2089C44.0225 69.591 44.2489 72.7467 44.9384 74.6077C45.6279 76.4686 46.4413 81.2602 52.8461 79.8877C58.1988 78.7435 62.2911 77.0926 62.6641 61.7352Z" fill="black"/>
<path d="M50.7605 83.2337C47.9279 83.2337 46.0831 82.1381 44.9629 81.0801C43.2718 79.4845 42.6011 77.4289 42.2003 76.201L42.0271 75.6886C41.2202 73.5104 40.9464 70.3742 40.7843 66.3357C40.7596 65.7292 40.7427 65.1045 40.7239 64.4423C40.7103 63.9577 40.6934 63.3499 40.6688 62.7142C39.6483 63.2008 38.565 63.5431 37.4502 63.7313C35.453 64.0725 33.306 63.9623 31.0675 63.4025C29.488 63.0074 27.8469 62.1888 26.9116 60.9246C24.1853 63.3123 21.5848 62.9886 20.1682 62.5158C17.6689 61.6822 15.4324 59.34 13.3301 55.3566C11.8324 52.5188 10.3839 48.8214 9.02436 44.3665C6.65678 36.6086 5.15256 28.4376 5.01894 25.7548C4.59861 17.358 6.85916 11.3528 11.7364 7.90778C19.43 2.47338 31.0869 5.66929 35.3369 7.12032C38.1922 5.39945 41.5516 4.56204 45.3475 4.62236C47.3862 4.65545 49.3276 4.83447 51.1309 5.1562C53.012 4.56463 56.7274 3.71555 60.9807 3.76874C68.817 3.86215 75.3107 6.91599 79.7585 12.6001C82.933 16.6555 81.3632 25.1716 80.1457 29.8873C78.432 36.5204 75.4294 43.5752 71.7411 49.7166C72.7426 49.7237 74.1937 49.6037 76.2564 49.1776C80.326 48.3375 81.5163 50.5196 81.8393 51.4965C83.1334 55.4156 77.5083 58.3774 75.7537 59.1921C73.5055 60.2358 69.8399 60.8714 66.838 60.7339L66.7069 60.7255L65.9182 60.6561L65.8404 61.3138L65.7651 61.9566C65.5634 69.7398 64.4516 74.6689 62.1638 77.9258C59.7657 81.3403 56.433 82.297 53.4972 82.9262C52.4957 83.1403 51.5856 83.2337 50.7605 83.2337ZM44.7994 54.9064C46.628 56.3698 46.7882 59.1233 46.9315 64.2691C46.9497 64.9112 46.9665 65.519 46.9893 66.0866C47.058 67.8055 47.2195 71.8304 47.85 73.5311C47.9389 73.7718 48.0187 74.0157 48.103 74.2745C48.8055 76.4254 49.1577 77.5041 52.1953 76.8548C54.7452 76.308 56.0561 75.8176 57.0823 74.3569C58.5735 72.2332 59.4077 67.9612 59.5608 61.6595L62.6633 61.7348L59.5822 61.3651L59.673 60.5958C59.9681 58.0595 60.1809 56.2277 61.8758 55.0161C63.236 54.0444 64.7856 54.1384 66.02 54.3609C64.6637 53.3361 64.2888 52.1341 64.1889 51.6411L63.9301 50.3665L64.6572 49.2878C68.8456 43.0737 72.299 35.4365 74.1334 28.3338C76.0183 21.0358 75.4436 17.1601 74.8689 16.4272C67.2609 6.70583 54.068 10.7197 52.6902 11.175L52.4574 11.3009L51.2898 11.5182L50.6918 11.3943C49.0429 11.0518 47.2111 10.8624 45.2476 10.8306C42.1626 10.7787 39.6738 11.5078 37.6331 13.0561L36.2171 14.1296L34.5741 13.4531C31.0636 12.0176 20.7526 9.13179 15.3117 12.9854C12.2916 15.1247 10.9158 19.3163 11.222 25.4441C11.3232 27.4672 12.6977 35.1258 14.9654 42.5535C18.099 52.8184 20.9466 56.2284 22.1355 56.6247C22.3431 56.6948 22.8815 56.2764 23.4173 55.6329C25.6513 52.955 27.9646 50.3441 30.354 47.8037L32.1507 45.9129L34.323 47.3561C35.1987 47.938 36.1646 48.2681 37.1564 48.3304L42.3371 43.9118L41.5866 51.5711C41.5698 51.743 41.5613 51.9771 41.6288 52.4117L41.8545 53.8634L40.8751 54.9583L40.7622 55.0855L43.6085 56.399L44.7994 54.9064Z" fill="black"/>
<path d="M76.8843 52.2182C67.8518 54.0818 67.231 51.0234 67.231 51.0234C76.7682 36.8724 80.7548 18.9087 77.3143 14.5127C67.9283 2.52048 51.6803 8.19164 51.4092 8.33888L51.3216 8.35445C49.5371 7.98407 47.54 7.76353 45.295 7.7272C41.2078 7.66039 38.1079 8.79878 35.7553 10.5826C35.7553 10.5826 6.77094 -1.3578 8.11884 25.5995C8.40554 31.3349 16.3385 68.9936 25.8011 57.6188C29.2597 53.4597 32.6009 49.9427 32.6009 49.9427C34.2608 51.0448 36.2476 51.6078 38.3304 51.4054L38.4926 51.2679C38.442 51.7842 38.4653 52.2895 38.5574 52.8876C36.1198 55.6113 36.8359 56.0893 31.9626 57.0921C27.0316 58.1079 29.9284 59.917 31.8199 60.3899C34.1122 60.9633 39.4169 61.7754 43.0007 56.7587L42.8573 57.3308C43.8128 58.0962 44.4835 62.3073 44.3713 66.1246C44.2591 69.9419 44.1832 72.5631 44.9363 74.6103C45.6887 76.6574 46.4385 81.2628 52.8446 79.8903C58.1973 78.7435 60.9709 75.7707 61.3575 70.8124C61.6312 67.287 62.2507 67.8085 62.2903 64.6567L62.7878 63.1648C63.3612 58.3862 62.8786 56.845 66.177 57.5618L66.9781 57.6318C69.4053 57.7421 72.5818 57.2413 74.4466 56.3747C78.4618 54.5125 80.843 51.4015 76.8843 52.2182Z" fill="#336791"/>
<path d="M51.085 81.3206C45.7453 81.3206 44.0536 77.0921 43.3615 75.3628C42.3483 72.8285 42.1297 62.9936 42.3554 54.9283C42.3588 54.7923 42.389 54.6583 42.4444 54.534C42.4998 54.4097 42.5792 54.2976 42.6781 54.2042C42.7769 54.1107 42.8933 54.0378 43.0205 53.9895C43.1477 53.9412 43.2832 53.9186 43.4192 53.9229C43.5551 53.9266 43.6889 53.957 43.8129 54.0125C43.937 54.0679 44.0489 54.1473 44.1423 54.246C44.2357 54.3448 44.3087 54.461 44.3571 54.5879C44.4056 54.7149 44.4285 54.8502 44.4246 54.986C44.1645 64.2883 44.5336 72.7182 45.2834 74.5941C46.4536 77.5189 48.2283 80.0772 53.2456 79.0023C58.0087 77.9807 59.7925 76.1749 60.5871 71.5688C61.1968 68.0343 62.4026 57.9789 62.5512 55.9947C62.5611 55.8591 62.5977 55.7268 62.6589 55.6054C62.72 55.4839 62.8046 55.3758 62.9076 55.2871C63.0106 55.1984 63.1302 55.1309 63.2594 55.0885C63.3885 55.046 63.5248 55.0295 63.6604 55.0399C63.934 55.0606 64.1882 55.1891 64.3672 55.397C64.5462 55.605 64.6354 55.8754 64.6152 56.1491C64.4602 58.215 63.2602 68.251 62.6271 71.921C61.6891 77.3613 59.2638 79.8287 53.6796 81.0261C52.7306 81.2292 51.8685 81.32 51.085 81.3206ZM22.1318 60.6669C21.6651 60.6655 21.2016 60.5888 20.7592 60.4399C17.2909 59.2827 13.9873 53.6343 10.94 43.6496C8.62039 36.0493 7.15055 28.1163 7.02147 25.5379C6.63941 17.8942 8.60742 12.4864 12.8723 9.46567C21.3093 3.4877 35.5024 9.18026 36.1024 9.42545C36.3566 9.52927 36.5591 9.72981 36.6655 9.98296C36.7718 10.2361 36.7732 10.5211 36.6694 10.7753C36.5655 11.0295 36.365 11.232 36.1118 11.3383C35.8587 11.4446 35.5737 11.446 35.3195 11.3422C35.1826 11.2864 21.5727 5.83387 14.0645 11.1573C10.4178 13.7429 8.74363 18.5468 9.08807 25.4348C9.19639 27.6071 10.5696 35.3494 12.919 43.045C15.6394 51.9588 18.7355 57.5832 21.4137 58.4764C21.8341 58.6165 23.1132 59.0427 24.9417 56.8438C27.0741 54.2827 29.2864 51.7894 31.5755 49.3674C31.767 49.1764 32.0257 49.0679 32.2962 49.0652C32.5668 49.0625 32.8276 49.1658 33.0229 49.353C33.2182 49.5401 33.3325 49.7963 33.3413 50.0667C33.3501 50.3371 33.2527 50.6002 33.07 50.7997C33.0389 50.8321 29.926 54.0864 26.5335 58.1677C24.9268 60.1 23.3869 60.6669 22.1318 60.6669ZM67.167 51.9458C66.9793 51.9456 66.7953 51.8943 66.6345 51.7976C66.4738 51.7008 66.3423 51.5622 66.2542 51.3965C66.1662 51.2308 66.1248 51.0443 66.1345 50.8569C66.1442 50.6695 66.2047 50.4883 66.3095 50.3326C75.9504 36.0266 79.3344 18.7407 76.4362 15.0369C72.7882 10.3757 67.6373 7.94134 61.1254 7.80058C56.304 7.69679 52.4718 8.92793 51.8452 9.14264L51.6876 9.20685C51.0577 9.40469 50.5745 9.05961 50.3922 8.65615C50.2883 8.42499 50.2725 8.16379 50.3479 7.92182C50.4233 7.67985 50.5847 7.47384 50.8015 7.34263C50.8314 7.32512 50.9261 7.2849 51.0798 7.22847C52.1442 6.83863 56.0348 5.67106 60.8537 5.72619C68.0589 5.80273 74.0109 8.58091 78.065 13.7617C79.983 16.2129 79.9876 21.8601 78.0773 29.256C76.13 36.7966 72.4658 44.9002 68.0251 51.4898C67.8267 51.7863 67.4997 51.9458 67.167 51.9458ZM67.66 58.5685C66.0137 58.5685 64.538 58.3363 63.6545 57.807C62.7464 57.2628 62.5732 56.5233 62.5505 56.1309C62.3027 51.7785 64.7041 51.0208 65.9287 50.6751C65.7581 50.4169 65.5155 50.1134 65.2645 49.8001C64.5503 48.9075 63.5722 47.6855 62.8184 45.8576C62.7004 45.5722 62.3306 44.9086 61.9025 44.14C59.581 39.9769 54.7505 31.3142 57.8536 26.8781C59.2898 24.8251 62.1497 24.0169 66.3633 24.4677C65.1237 20.6912 59.221 8.87799 45.2147 8.64837C41.0023 8.57831 37.5476 9.87367 34.9517 12.4949C29.1398 18.3645 29.35 28.9849 29.3532 29.0912C29.3568 29.2271 29.3336 29.3624 29.2849 29.4892C29.2362 29.6161 29.163 29.7322 29.0695 29.8308C28.9759 29.9294 28.8639 30.0086 28.7397 30.0639C28.6156 30.1192 28.4817 30.1495 28.3459 30.1531C28.21 30.1567 28.0748 30.1334 27.9479 30.0848C27.821 30.0361 27.7049 29.9629 27.6063 29.8693C27.5077 29.7758 27.4285 29.6637 27.3732 29.5396C27.3179 29.4154 27.2876 29.2816 27.284 29.1457C27.2711 28.6742 27.0544 17.529 33.4812 11.038C36.489 8.00036 40.4484 6.50068 45.2491 6.57917C54.2095 6.72641 59.9773 11.2819 63.2375 15.0771C66.7914 19.2136 68.5337 23.7762 68.677 25.2992C68.7841 26.4318 67.9713 26.6582 67.8072 26.6919L67.4336 26.7003C63.2984 26.038 60.6454 26.4979 59.5486 28.0651C57.1881 31.4387 61.7579 39.6331 63.709 43.1326C64.2072 44.0251 64.5665 44.6705 64.7313 45.0688C65.3722 46.623 66.2083 47.6673 66.8796 48.5067C67.4705 49.2448 67.9823 49.8851 68.1653 50.6362C68.2502 50.7854 69.4561 52.5692 76.6113 51.0922C78.4049 50.7225 79.4803 51.0384 79.8092 52.0327C80.4559 53.9884 76.8273 56.2697 74.8185 57.2025C73.0185 58.0392 70.1456 58.5685 67.66 58.5685ZM64.6139 55.9603C64.8409 56.1893 65.9767 56.5843 68.3287 56.4831C70.42 56.3936 72.6254 55.9389 73.9486 55.3246C75.641 54.5385 76.7709 53.6596 77.356 53.0596L77.0317 53.1192C72.4567 54.0637 69.2206 53.9378 67.4135 52.745C67.2919 52.6649 67.175 52.578 67.0632 52.4848C66.8673 52.562 66.6863 52.6126 66.5572 52.649C65.5324 52.9363 64.4725 53.234 64.6139 55.9603ZM35.0601 61.743C33.9236 61.743 32.7275 61.588 31.5061 61.2825C30.2406 60.966 28.1072 60.0131 28.1396 58.4479C28.1766 56.692 30.7303 56.1653 31.6916 55.9675C35.1645 55.252 35.3909 54.9653 36.4761 53.5869C36.7926 53.1854 37.1863 52.6853 37.7234 52.0859C38.5206 51.1934 39.3917 50.7413 40.3128 50.7413C40.9543 50.7413 41.4804 50.9586 41.8281 51.1032C42.936 51.5625 43.8603 52.673 44.2404 54.0007C44.5835 55.1988 44.4194 56.3521 43.7799 57.2479C41.6802 60.1882 38.6646 61.743 35.0601 61.743ZM30.3755 58.5368C30.6875 58.7781 31.3128 59.1004 32.0088 59.2743C33.0667 59.5389 34.0929 59.6732 35.0607 59.6732C38.0095 59.6732 40.377 58.4524 42.0966 56.0446C42.4553 55.5426 42.3476 54.905 42.2516 54.5696C42.0506 53.8671 41.5511 53.2282 41.0367 53.0148C40.7578 52.8993 40.5262 52.8111 40.3135 52.8111C40.1993 52.8111 39.8516 52.8111 39.2666 53.4656C38.8628 53.9196 38.4746 54.3874 38.1029 54.868C36.7511 56.5843 36.1316 57.1668 32.11 57.9951C31.1286 58.1962 30.6252 58.4012 30.3755 58.5368ZM38.3338 53.7627C38.0867 53.7623 37.8479 53.6735 37.6606 53.5125C37.4732 53.3514 37.3496 53.1286 37.3122 52.8844C37.2862 52.7126 37.2689 52.5397 37.2603 52.3661C34.6242 52.3168 32.0808 51.1856 30.1498 49.1709C27.7082 46.6236 26.5971 43.0943 27.1018 39.4885C27.6499 35.5726 27.4449 32.1159 27.3346 30.2588C27.3041 29.7425 27.2821 29.3695 27.2834 29.1114C27.2853 28.7838 27.2918 27.9152 30.1952 26.4435C31.2278 25.92 33.2983 25.0067 35.5602 24.7725C39.3074 24.3853 41.7775 26.0543 42.5169 29.4727C44.5128 38.7017 42.6752 42.7836 41.3332 45.7648C41.0834 46.3201 40.8473 46.8442 40.6586 47.3521L40.4919 47.7996C39.7829 49.7008 39.1699 51.3432 39.358 52.5698C39.3787 52.7042 39.3727 52.8412 39.3403 52.9733C39.308 53.1053 39.2499 53.2296 39.1695 53.3392C39.0891 53.4488 38.9879 53.5414 38.8716 53.6119C38.7554 53.6823 38.6264 53.7291 38.4921 53.7497L38.3338 53.7627ZM29.3597 29.3981L29.3999 30.1369C29.5141 32.066 29.7268 35.6556 29.1508 39.7758C28.7351 42.7499 29.6432 45.6526 31.6436 47.7387C33.2244 49.3875 35.3046 50.2976 37.4425 50.2976H37.4867C37.726 49.2889 38.1236 48.2239 38.5517 47.0764L38.7171 46.6314C38.9306 46.058 39.1803 45.5028 39.4449 44.9151C40.7364 42.0455 42.3444 38.4733 40.4925 29.9105C40.126 28.2143 39.2367 27.2329 37.7753 26.9092C34.7734 26.2463 30.2996 28.5042 29.3597 29.3981ZM35.6062 28.9589C35.5543 29.3248 36.2763 30.3016 37.2181 30.432C38.158 30.5637 38.9623 29.7996 39.0136 29.4337C39.0648 29.0679 38.3435 28.6644 37.4017 28.5334C36.4598 28.4024 35.6562 28.5931 35.6062 28.9589ZM37.4341 30.792L37.1701 30.7738C36.5863 30.6928 35.9961 30.325 35.5919 29.7892C35.4499 29.6011 35.2183 29.2365 35.2644 28.9109C35.3299 28.4335 35.9124 28.1475 36.8211 28.1475C37.0242 28.1475 37.2356 28.1624 37.4484 28.1922C37.9453 28.261 38.4064 28.4043 38.747 28.5944C39.3373 28.9239 39.3807 29.2917 39.3541 29.4817C39.2815 30.0091 38.4428 30.792 37.4341 30.792ZM35.9494 29.0199C35.9785 29.2456 36.5377 29.9903 37.2655 30.0908L37.4348 30.1025C38.1068 30.1025 38.6088 29.5738 38.6679 29.4007C38.6056 29.2826 38.1736 28.9894 37.3543 28.8752C37.1779 28.8503 37 28.8375 36.8218 28.837C36.2951 28.837 36.0155 28.9557 35.9494 29.0199ZM64.2338 28.2123C64.285 28.5782 63.5637 29.555 62.6225 29.6861C61.682 29.8171 60.877 29.0536 60.8251 28.6878C60.7758 28.3219 61.4971 27.9178 62.4377 27.7875C63.3782 27.6558 64.1819 27.8471 64.2338 28.2123ZM62.4052 29.8729C61.4997 29.8729 60.7181 29.1684 60.6539 28.7111C60.5793 28.1624 61.4829 27.7453 62.413 27.6162C62.618 27.5877 62.821 27.5734 63.0163 27.5734C63.8193 27.5734 64.3512 27.8089 64.4044 28.189C64.4388 28.4348 64.25 28.8143 63.925 29.1568C63.7103 29.3818 63.2595 29.7717 62.6452 29.8567L62.4052 29.8729ZM63.0169 27.9185C62.837 27.9185 62.6519 27.9317 62.4617 27.9581C61.527 28.0884 60.9691 28.4634 60.9964 28.6644C61.0275 28.8856 61.6243 29.5284 62.4059 29.5284L62.5985 29.5148C63.109 29.4441 63.4924 29.1107 63.6753 28.9187C63.9626 28.6171 64.0768 28.333 64.0632 28.2363C64.045 28.1079 63.6999 27.9185 63.0169 27.9185ZM65.5888 49.2221C65.4013 49.2222 65.2173 49.1714 65.0565 49.0749C64.8957 48.9785 64.7641 48.8401 64.6759 48.6747C64.5876 48.5092 64.5461 48.3229 64.5556 48.1356C64.5651 47.9483 64.6254 47.7672 64.73 47.6115C66.9341 44.3196 66.5307 40.9629 66.1408 37.7164C65.9741 36.3334 65.8029 34.9032 65.847 33.5306C65.8924 32.1185 66.0721 30.9535 66.2452 29.8268C66.4509 28.4919 66.6455 27.2309 66.565 25.7338C66.5577 25.5981 66.5772 25.4623 66.6223 25.3342C66.6675 25.206 66.7375 25.088 66.8282 24.9868C66.919 24.8857 67.0288 24.8034 67.1514 24.7448C67.2739 24.6861 67.4069 24.6521 67.5426 24.6447C67.6782 24.6374 67.8141 24.6569 67.9422 24.7021C68.0704 24.7472 68.1884 24.8172 68.2895 24.9079C68.4938 25.0913 68.6168 25.3482 68.6316 25.6223C68.7237 27.3334 68.5039 28.7604 68.2911 30.1414C68.127 31.2071 67.957 32.3092 67.9162 33.5968C67.8766 34.8124 68.0316 36.1032 68.1957 37.4692C68.6109 40.9213 69.0811 44.834 66.4502 48.7629C66.3553 48.9042 66.2271 49.02 66.0769 49.1001C65.9267 49.1802 65.759 49.2221 65.5888 49.2221Z" fill="white"/>
</svg>
