<svg width="87" height="87" viewBox="0 0 87 87" fill="none" xmlns="http://www.w3.org/2000/svg">
<path fill-rule="evenodd" clip-rule="evenodd" d="M78.8438 61.625C78.8438 66.1917 77.0296 70.5714 73.8005 73.8005C70.5714 77.0296 66.1917 78.8438 61.625 78.8438H25.375C20.8083 78.8438 16.4286 77.0296 13.1995 73.8005C9.97036 70.5714 8.15625 66.1917 8.15625 61.625V25.375C8.15625 20.8083 9.97036 16.4286 13.1995 13.1995C16.4286 9.97036 20.8083 8.15625 25.375 8.15625H61.625C66.1917 8.15625 70.5714 9.97036 73.8005 13.1995C77.0296 16.4286 78.8438 20.8083 78.8438 25.375V61.625ZM24.1606 60.4288C23.5155 60.1067 23.0248 59.5415 22.7964 58.8576C22.568 58.1737 22.6206 57.4271 22.9426 56.782L29.5872 43.5L22.9426 30.2144C22.6272 29.5701 22.5792 28.8272 22.8091 28.1476C23.039 27.4681 23.5282 26.9069 24.17 26.5865C24.8119 26.266 25.5544 26.2122 26.2357 26.4369C26.917 26.6615 27.4819 27.1463 27.8074 27.7856L32.6286 37.4209L37.4426 27.782C37.7652 27.1369 38.3308 26.6463 39.015 26.4183C39.6993 26.1902 40.4461 26.2433 41.0912 26.5658C41.7363 26.8884 42.2268 27.454 42.4549 28.1382C42.683 28.8225 42.6299 29.5693 42.3074 30.2144L35.6664 43.5L42.3074 56.782C42.4671 57.1014 42.5623 57.4492 42.5876 57.8054C42.613 58.1616 42.5679 58.5194 42.4549 58.8582C42.342 59.197 42.1634 59.5102 41.9294 59.78C41.6954 60.0498 41.4106 60.2708 41.0912 60.4306C40.7718 60.5903 40.424 60.6855 40.0678 60.7108C39.7116 60.7361 39.3538 60.691 39.015 60.5781C38.6762 60.4652 38.363 60.2866 38.0932 60.0526C37.8234 59.8186 37.6023 59.5338 37.4426 59.2144L32.625 49.5791L27.8074 59.2144C27.4853 59.8595 26.9201 60.3502 26.2362 60.5786C25.5524 60.807 24.8057 60.7508 24.1606 60.4288ZM54.375 46.2188H58.9062V55.2812H54.375C53.1732 55.2813 52.0207 54.8039 51.1709 53.9541C50.3211 53.1043 49.8438 51.9518 49.8438 50.75C49.8438 49.5482 50.3211 48.3957 51.1709 47.5459C52.0207 46.6961 53.1732 46.2188 54.375 46.2188ZM54.375 60.7188C51.7311 60.7188 49.1955 59.6685 47.326 57.799C45.4565 55.9295 44.4062 53.3939 44.4062 50.75C44.4062 48.1061 45.4565 45.5705 47.326 43.701C49.1955 41.8315 51.7311 40.7812 54.375 40.7812H58.9062V32.625C58.9062 31.9039 59.1927 31.2124 59.7026 30.7026C60.2124 30.1927 60.9039 29.9062 61.625 29.9062C62.3461 29.9062 63.0376 30.1927 63.5474 30.7026C64.0573 31.2124 64.3438 31.9039 64.3438 32.625V55.825C64.3438 57.1229 63.8282 58.3676 62.9104 59.2854C61.9926 60.2032 60.7479 60.7188 59.45 60.7188H54.375Z" fill="#232323"/>
</svg>
