<svg width="77" height="89" viewBox="0 0 77 89" fill="none" xmlns="http://www.w3.org/2000/svg">
<g clip-path="url(#clip0_1202_2)">
<path d="M77 25.0051C77.0046 28.7343 76.1816 32.4172 74.5915 35.7831C73.0015 39.1489 70.6848 42.1122 67.8117 44.455L1.74513 6.56777C1.49245 6.42206 1.25815 6.24602 1.04732 6.04349C0.716249 5.71522 0.453151 5.32371 0.273347 4.89176C0.0935424 4.45982 0.000623449 3.99606 1.16606e-07 3.5275C-0.000118394 3.06435 0.0900993 2.60572 0.265502 2.17779C0.440904 1.74986 0.698055 1.36101 1.02227 1.03345C1.34649 0.705888 1.73142 0.446027 2.15509 0.268707C2.57875 0.0913867 3.03286 7.97697e-05 3.49147 1.64029e-09L52.2517 1.64029e-09C55.5021 -3.7611e-05 58.7207 0.646782 61.7234 1.90349C64.7262 3.1602 67.4542 5.00217 69.7518 7.32412C74.3934 12.0142 77.0006 18.374 77 25.0051Z" fill="#18B4F4"/>
<path d="M77 63.9038C77.0013 67.1879 76.3619 70.4401 75.1183 73.4745C73.8753 76.5091 72.0525 79.2667 69.7539 81.5896C67.4557 83.9115 64.7272 85.7534 61.7241 87.0104C58.721 88.2673 55.5022 88.9146 52.2514 88.9153H3.49206C2.80104 88.908 2.1277 88.6937 1.55744 88.2995C0.987447 87.9055 0.54611 87.3494 0.289345 86.7018C0.0317692 86.054 -0.0294729 85.3435 0.113388 84.6606C0.255251 83.9778 0.594631 83.3529 1.08852 82.8651C1.28564 82.666 1.50627 82.4921 1.74543 82.3475L27.7462 67.4377L67.8069 44.4602C70.6791 46.8028 72.9955 49.765 74.5862 53.1295C76.177 56.494 77.0018 60.1755 77 63.9038Z" fill="#FD6B3C"/>
<path d="M67.8117 44.455L27.7459 67.4377L1.74634 82.3475C1.49628 82.4876 1.26526 82.6598 1.05905 82.8599C10.9734 72.5847 16.5163 58.8017 16.5039 44.455C16.5227 30.1062 10.9812 16.3195 1.06447 6.04349C1.27567 6.24609 1.51038 6.42213 1.76348 6.56777L67.8117 44.455Z" fill="#A97FF2"/>
</g>
<defs>
<clipPath id="clip0_1202_2">
<rect width="77" height="89" fill="white"/>
</clipPath>
</defs>
</svg>
