<svg width="51" height="50" viewBox="0 0 51 50" fill="none" xmlns="http://www.w3.org/2000/svg">
<g clip-path="url(#clip0_1206_26)">
<path d="M39.0469 0H11.9531C5.3516 0 0 5.24666 0 11.7188V38.2812C0 44.7533 5.3516 50 11.9531 50H39.0469C45.6484 50 51 44.7533 51 38.2812V11.7188C51 5.24666 45.6484 0 39.0469 0Z" fill="#0277BD"/>
<path d="M10.7086 20.049L11.2788 26.2877H25.5191V20.049H10.7086ZM25.5189 7.42188H9.5625L10.141 13.6605H25.5189V7.42188ZM25.5189 42.7424V36.2516L25.491 36.2588L18.404 34.3828L17.951 29.407H11.5631L12.4546 39.2027L25.4896 42.7504L25.5189 42.7424Z" fill="#EBEBEB"/>
<path d="M33.3329 26.2877L32.5942 34.3787L25.4971 36.2568V42.7473L38.5425 39.2027L38.6381 38.1486L40.1335 21.7244L40.2887 20.049L41.4376 7.42188H25.4971V13.6605H34.4637L33.8848 20.049H25.4971V26.2877H33.3329Z" fill="white"/>
</g>
<defs>
<clipPath id="clip0_1206_26">
<rect width="51" height="50" fill="white"/>
</clipPath>
</defs>
</svg>
