<?xml version="1.0" encoding="UTF-8"?>
<svg id="Capa_1" data-name="Capa 1" xmlns="http://www.w3.org/2000/svg" viewBox="0 0 698.67 476.89">
  <line x1="27.88" y1="122.7" x2="661.33" y2="124" fill="none" stroke="#000" stroke-linecap="round" stroke-linejoin="round" stroke-width="7.81"/>
  <circle cx="92.18" cy="79.6" r="8.87" fill="#010202" stroke="#000" stroke-linecap="round" stroke-linejoin="round" stroke-width="10.65"/>
  <circle cx="142.22" cy="79.6" r="8.87" fill="none" stroke="#000" stroke-linecap="round" stroke-linejoin="round" stroke-width="6"/>
  <circle cx="190.22" cy="79.6" r="8.87" fill="none" stroke="#000" stroke-linecap="round" stroke-linejoin="round" stroke-width="6"/>
  <rect x="27.88" y="37.78" width="638.79" height="408.22" rx="40.08" ry="40.08" fill="none" stroke="#000" stroke-linecap="round" stroke-linejoin="round" stroke-width="7.27"/>
  <path id="_形状" data-name="形状" d="M88.13,220.93c3.51-3.51,9.02-3.78,12.84-.81l.92.81,55.03,55.03c3.51,3.51,3.78,9.02.81,12.84l-.81.92-55.03,55.03c-3.8,3.8-9.96,3.8-13.76,0-3.51-3.51-3.78-9.02-.81-12.84l.81-.92,48.15-48.15-48.15-48.15c-3.8-3.8-3.8-9.96,0-13.76Z" fill="#020203" stroke-width="0"/>
  <line x1="207.98" y1="343.6" x2="387.56" y2="343.6" fill="none" stroke="#000" stroke-linecap="round" stroke-miterlimit="10" stroke-width="24"/>
  <rect x="470.22" y="198.49" width="44.44" height="149.11" fill="#5535ba" stroke="#5535ba" stroke-linecap="round" stroke-linejoin="round" stroke-width="18.92"/>
</svg>