<?xml version="1.0" encoding="UTF-8"?>
<svg id="Capa_1" data-name="Capa 1" xmlns="http://www.w3.org/2000/svg" viewBox="0 0 846.83 554.2">
  <line x1="29.66" y1="122.7" x2="807.11" y2="124" fill="none" stroke="#000" stroke-linecap="round" stroke-linejoin="round" stroke-width="8.66"/>
  <line x1="151.96" y1="79.6" x2="315.36" y2="79.6" fill="none" stroke="#000" stroke-linecap="round" stroke-linejoin="round" stroke-width="8"/>
  <circle cx="99.76" cy="78.86" r="7.06" fill="#010202" stroke="#000" stroke-linecap="round" stroke-linejoin="round" stroke-width="8.47"/>
  <g>
    <path d="M248.76,231.69c-1.5.3-2.6.4-3.2.4-1.6,0-3.1-.2-4.6-.6-1.4-.4-2.6-1.1-3.5-2.3s-1.3-2.8-1.3-5.1v-7.4c0-1.6-.1-3-.3-4.3s-.6-2.3-1.4-3.1-2-1.2-3.8-1.3v-3c1.7-.1,3-.5,3.8-1.2s1.2-1.7,1.4-3c.2-1.2.3-2.6.3-4v-7.3c0-2.3.4-4,1.3-5.1.9-1.1,2.1-1.9,3.5-2.3,1.4-.4,3-.6,4.6-.6.6,0,1.3,0,1.9.1s1,.1,1.3.2v3.6c-.7-.1-1.4-.2-2.1-.2-2.3,0-3.8.5-4.5,1.6-.6,1.1-1,2.5-1,4.3l.2,6.7c0,1.3-.1,2.5-.4,3.6-.2,1.1-.7,2.1-1.4,2.9-.7.8-1.8,1.4-3.3,1.8,1.5.5,2.7,1.2,3.4,2.1.7.9,1.2,2,1.4,3.1.2,1.2.4,2.4.4,3.7l-.2,6.8c0,1.8.3,3.3,1,4.4.6,1.1,2.1,1.7,4.5,1.7.6,0,1.3-.1,2.1-.2v4h-.1Z" fill="#5535ba" stroke-width="0"/>
    <path d="M92.36,457.19c.8.1,1.5.2,2.1.2,2.3,0,3.8-.6,4.5-1.7.6-1.1,1-2.6,1-4.4l-.2-6.8c0-1.3.1-2.6.3-3.7.2-1.2.7-2.2,1.4-3.1.7-.9,1.8-1.6,3.2-2.1-1.4-.4-2.5-1-3.2-1.8s-1.2-1.8-1.4-2.9c-.2-1.1-.3-2.3-.3-3.6l.2-6.7c0-1.8-.3-3.2-1-4.3-.6-1.1-2.1-1.6-4.5-1.6-.7,0-1.4.1-2.1.2v-3.6c.3-.1.8-.2,1.4-.2s1.2-.1,1.8-.1c1.7,0,3.4.2,4.8.6,1.5.4,2.7,1.1,3.6,2.3.9,1.1,1.4,2.8,1.4,5.1v7.3c0,1.5.1,2.8.3,4,.2,1.2.7,2.2,1.5,3,.8.7,2,1.2,3.7,1.2v3c-1.8.1-3.1.5-3.8,1.3s-1.2,1.8-1.4,3.1c-.2,1.3-.3,2.7-.3,4.3v7.4c0,2.3-.5,4-1.4,5.1s-2.1,1.9-3.6,2.3c-1.5.4-3.1.6-4.8.6-.6,0-1.7-.1-3.2-.4,0,0,0-4,0-4Z" fill="#5535ba" stroke-width="0"/>
    <g>
      <line x1="100.96" y1="294.49" x2="196.66" y2="294.49" fill="none" stroke="#000" stroke-miterlimit="10" stroke-width="3.44"/>
      <line x1="243.76" y1="294.49" x2="405.96" y2="294.49" fill="none" stroke="#000" stroke-miterlimit="10" stroke-width="3.44"/>
      <path d="M221.16,280.69c-.7,0-1.3-.2-1.8-.7s-.7-1.1-.7-1.8.2-1.3.7-1.8,1.1-.7,1.8-.7,1.3.2,1.8.7.7,1.1.7,1.8-.2,1.3-.7,1.8c-.5.4-1.1.7-1.8.7ZM221.16,294.49c-.7,0-1.3-.2-1.8-.7s-.7-1.1-.7-1.8.2-1.3.7-1.8,1.1-.7,1.8-.7,1.3.2,1.8.7.7,1.1.7,1.8-.2,1.3-.7,1.8c-.5.4-1.1.7-1.8.7Z" stroke-width="0"/>
      <path d="M428.66,280.99c-.7,0-1.3-.2-1.8-.7s-.7-1.1-.7-1.8.2-1.3.7-1.8,1.1-.7,1.8-.7,1.3.2,1.8.7.7,1.1.7,1.8-.2,1.3-.7,1.8c-.6.5-1.1.7-1.8.7ZM428.86,294.79c-.7,0-1.3-.2-1.8-.7s-.7-1.1-.7-1.8.2-1.3.7-1.8,1.1-.7,1.8-.7,1.3.2,1.8.7.7,1.1.7,1.8-.2,1.3-.7,1.8c-.5.5-1.1.7-1.8.7ZM426.46,299.19c.6-.6,1.2-1.2,1.7-2.1.5-.8.7-1.6.7-2.3l1.8-4.3c.7.6,1.1,1.3,1.3,2,.2.8.2,1.6.1,2.4-.1.8-.4,1.6-.8,2.4-.4.8-.8,1.4-1.2,2.1-.4.6-.9,1.1-1.3,1.5l-2.3-1.7Z" stroke-width="0"/>
    </g>
    <g>
      <line x1="105.76" y1="356.99" x2="201.46" y2="356.99" fill="none" stroke="#000" stroke-miterlimit="10" stroke-width="3.44"/>
      <line x1="248.56" y1="356.99" x2="410.76" y2="356.99" fill="none" stroke="#000" stroke-miterlimit="10" stroke-width="3.44"/>
      <path d="M225.96,343.19c-.7,0-1.3-.2-1.8-.7s-.7-1.1-.7-1.8.2-1.3.7-1.8,1.1-.7,1.8-.7,1.3.2,1.8.7.7,1.1.7,1.8-.2,1.3-.7,1.8c-.6.4-1.2.7-1.8.7ZM225.96,356.99c-.7,0-1.3-.2-1.8-.7s-.7-1.1-.7-1.8.2-1.3.7-1.8,1.1-.7,1.8-.7,1.3.2,1.8.7.7,1.1.7,1.8-.2,1.3-.7,1.8c-.6.4-1.2.7-1.8.7Z" stroke-width="0"/>
      <path d="M433.36,343.49c-.7,0-1.3-.2-1.8-.7s-.7-1.1-.7-1.8.2-1.3.7-1.8,1.1-.7,1.8-.7,1.3.2,1.8.7.7,1.1.7,1.8-.2,1.3-.7,1.8c-.5.5-1.1.7-1.8.7ZM433.66,357.29c-.7,0-1.3-.2-1.8-.7s-.7-1.1-.7-1.8.2-1.3.7-1.8,1.1-.7,1.8-.7,1.3.2,1.8.7.7,1.1.7,1.8-.2,1.3-.7,1.8-1.1.7-1.8.7ZM431.26,361.69c.6-.6,1.2-1.2,1.7-2.1.5-.8.7-1.6.7-2.3l1.8-4.3c.7.6,1.1,1.3,1.3,2,.2.8.2,1.6.1,2.4-.1.8-.4,1.6-.8,2.4-.4.8-.8,1.4-1.2,2.1-.4.6-.9,1.1-1.3,1.5l-2.3-1.7Z" stroke-width="0"/>
    </g>
    <g>
      <path d="M108.76,221.19l-5.4-.5v-28.5h5.4v29ZM108.76,221.19l-1.4,2.7h-4.1v-3.2l5.5.5ZM104.96,208.29c.6-1,1.2-1.9,1.8-2.6.6-.7,1.3-1.5,2-2.2s1.6-1.3,2.5-1.8c.9-.5,1.9-.7,2.9-.7l-1.4,3.9c-.7,0-1.5.2-2.3.6-.8.4-1.6.8-2.4,1.3s-1.6,1.1-2.5,1.9l-.6-.4ZM105.66,216.59c.9.8,1.8,1.4,2.5,1.9s1.5.9,2.4,1.3c.8.4,1.6.6,2.3.6l1.4,3.8c-1,0-2-.2-2.9-.7-.9-.5-1.8-1.1-2.5-1.9-.8-.7-1.4-1.5-2-2.2s-1.2-1.6-1.8-2.6l.6-.2ZM112.86,204.79l1.4-3.9c1.5,0,2.9.3,4,1s2,1.6,2.8,2.7c.7,1.1,1.3,2.4,1.6,3.8.3,1.4.5,2.8.5,4.3,0,1.4-.2,2.9-.5,4.3-.3,1.4-.9,2.6-1.6,3.8-.7,1.1-1.6,2-2.8,2.7-1.1.7-2.4,1-4,1l-1.4-3.8c1,0,1.8-.2,2.4-.7.6-.5,1.1-1.1,1.4-1.9.3-.8.6-1.7.7-2.6.1-.9.2-1.8.2-2.6s-.1-1.7-.2-2.6c-.1-.9-.3-1.7-.7-2.5-.3-.8-.8-1.4-1.4-1.9-.6-.9-1.4-1.1-2.4-1.1Z" stroke-width="0"/>
      <path d="M125.66,212.59c0-1.4.2-2.9.5-4.3.4-1.4.9-2.6,1.7-3.8.8-1.1,1.8-2,3.1-2.7s2.9-1,4.8-1,3.5.3,4.8,1,2.3,1.6,3.1,2.7c.8,1.1,1.4,2.4,1.7,3.8.4,1.4.5,2.8.5,4.3,0,1.4-.2,2.9-.5,4.3-.4,1.4-.9,2.6-1.7,3.8-.8,1.1-1.8,2-3.1,2.7s-2.9,1-4.8,1-3.5-.3-4.8-1-2.3-1.6-3.1-2.7c-.8-1.1-1.4-2.4-1.7-3.8-.3-1.5-.5-2.9-.5-4.3ZM131.16,212.59c0,.8.1,1.7.2,2.6.1.9.3,1.8.7,2.6.3.8.8,1.4,1.4,1.9.6.5,1.4.7,2.4.7s1.8-.2,2.4-.7c.6-.5,1.1-1.1,1.4-1.9.3-.8.5-1.7.7-2.6.1-.9.2-1.8.2-2.6s-.1-1.7-.2-2.6-.4-1.7-.7-2.5-.8-1.4-1.4-1.9c-.6-.5-1.4-.7-2.4-.7s-1.8.2-2.4.7c-.6.5-1.1,1.1-1.4,1.9-.3.8-.6,1.6-.7,2.5-.1.8-.2,1.7-.2,2.6Z" stroke-width="0"/>
      <path d="M158.76,204.79c-1,0-1.8.2-2.4.7-.6.5-1.1,1.1-1.4,1.9-.3.8-.6,1.6-.7,2.5-.1.9-.2,1.8-.2,2.6s.1,1.7.2,2.6c.1.9.3,1.8.7,2.6.3.8.8,1.4,1.4,1.9.6.5,1.4.7,2.4.7l-1.4,3.8c-1.5,0-2.9-.3-4-1s-2-1.6-2.8-2.7c-.7-1.1-1.3-2.4-1.6-3.8-.3-1.4-.5-2.8-.5-4.3,0-1.4.2-2.9.5-4.3.3-1.4.9-2.6,1.6-3.8.7-1.1,1.6-2,2.8-2.7,1.1-.7,2.4-1,4-1l1.4,4.3ZM165.96,208.49c-.9-.8-1.8-1.4-2.5-1.9-.8-.5-1.5-.9-2.4-1.3-.8-.4-1.6-.6-2.3-.6l-1.4-3.9c1,0,2,.2,2.9.7s1.8,1.1,2.5,1.8,1.4,1.5,2,2.2,1.2,1.6,1.8,2.6l-.6.4ZM166.76,216.89c-.6,1-1.2,1.9-1.8,2.6-.6.7-1.3,1.5-2,2.2-.8.7-1.6,1.4-2.5,1.9s-1.9.7-2.9.7l1.4-3.8c.7,0,1.5-.2,2.3-.6.8-.4,1.6-.8,2.4-1.3.8-.5,1.6-1.1,2.5-1.9l.6.2ZM162.86,221.19v-29h5.4v28.5l-5.4.5ZM162.86,221.19l5.4-.5v3.2h-4.1l-1.3-2.7Z" stroke-width="0"/>
      <path d="M171.26,228.99c.2,0,.5,0,.8.1.4,0,.9.1,1.5.1.8,0,1.5-.1,2.1-.4.6-.2,1-.6,1.4-1.2.4-.5.8-1.3,1.1-2.2l.5-1.5h4.8c-.8,2.3-1.6,4.2-2.5,5.5s-1.9,2.3-3.1,2.9c-1.2.6-2.7.9-4.5.9h-1.3c-.5,0-1-.1-1.7-.2l.9-4ZM176.46,201.29l4.5,16.8,4.5-16.8h5.6l-7.6,22.6-5,.5-7.7-23.1h5.7Z" stroke-width="0"/>
    </g>
  </g>
  <path d="M695.64,201.98c-7.83,8.78-29.21,32.98-46.24,52.22l-19.81-21.75c19.28-15.86,43.18-35.44,51.81-42.49,15.34-12.48,28.67-19.77,31.35-16.47,1.72,1.86-3.42,13.09-17.11,28.49h0ZM645.62,258.5c-6.57,7.43-12.25,13.86-15.71,17.82l-23.46-24.72c4.08-3.39,10.92-8.98,18.81-15.45l20.37,22.35ZM626.08,280.62v-.04c-16.28,53.81-78.01,20.07-78.01,20.07,0,0,26.3,4.38,27.25-20.29.95-23.88,25.29-25.11,26.8-25.13l24.03,25.32-.07.08h0Z" fill="#5535ba" stroke-width="0"/>
  <path d="M613.78,445.78c29.61,32.77,78.85,38.59,115.33,13.81,7.37-4.89,13.01-11.95,16.17-20.25,17.84-48.87-75.13-56.55-32.77-94.95,18.27-16.54,26.14-23.72,14.31-36.79-29.73-32.83-78.85-12.14-107.03,13.38-36.11,32.77-38.77,88.64-6.01,124.81h0ZM699.88,409.24c8.18,9.04,7.49,22.98-1.55,31.16-9.04,8.18-22.98,7.49-31.16-1.55-8.18-9.04-7.49-22.98,1.55-31.16,8.98-8.18,22.92-7.49,31.16,1.55ZM631.87,393.38c-5.39,4.89-13.81,4.52-18.71-.93-4.89-5.45-4.52-13.81.93-18.71,5.39-4.89,13.81-4.52,18.71.93,4.89,5.45,4.52,13.81-.93,18.71ZM685.76,314.78c4.89,5.39,4.52,13.81-.93,18.71-5.39,4.89-13.81,4.52-18.71-.93s-4.52-13.81.93-18.71c5.39-4.89,13.81-4.46,18.71.93ZM650.39,334.91c4.89,5.39,4.52,13.81-.93,18.71-5.39,4.89-13.81,4.52-18.71-.93-4.89-5.39-4.52-13.81.93-18.71,5.39-4.89,13.81-4.46,18.71.93Z" fill="#5535ba" stroke-width="0"/>
  <rect x="29.66" y="36.43" width="782.79" height="479.9" rx="48.1" ry="48.1" fill="none" stroke="#000" stroke-linecap="round" stroke-linejoin="round" stroke-width="8.72"/>
</svg>