<svg width="48" height="48" viewBox="0 0 48 48" fill="none" xmlns="http://www.w3.org/2000/svg">
<g clip-path="url(#clip0_1206_57)">
<path d="M36.75 0H11.25C5.0368 0 0 5.0368 0 11.25V36.75C0 42.9632 5.0368 48 11.25 48H36.75C42.9632 48 48 42.9632 48 36.75V11.25C48 5.0368 42.9632 0 36.75 0Z" fill="#F03C2E"/>
<mask id="mask0_1206_57" style="mask-type:luminance" maskUnits="userSpaceOnUse" x="5" y="5" width="38" height="38">
<path d="M5.25 5.25H42.75V42.75H5.25V5.25Z" fill="white"/>
</mask>
<g mask="url(#mask0_1206_57)">
<path d="M42.0422 22.3301L25.6699 5.95781C25.3323 5.61988 24.9021 5.38973 24.4336 5.2965C23.9651 5.20328 23.4795 5.25117 23.0383 5.43413C22.7455 5.55566 22.4794 5.7336 22.2551 5.95781L18.8567 9.35625L23.1692 13.6687C24.1723 13.3172 25.3208 13.5574 26.1199 14.3567C26.5004 14.7378 26.766 15.2182 26.8864 15.7431C27.0068 16.268 26.9771 16.8162 26.8007 17.325L30.9574 21.4817C31.963 21.1348 33.123 21.3585 33.9257 22.1636C34.3278 22.5655 34.6016 23.0777 34.7125 23.6353C34.8233 24.1929 34.7662 24.7709 34.5484 25.296C34.2564 26.0001 33.6968 26.5593 32.9926 26.8509C32.2884 27.1425 31.4972 27.1425 30.793 26.8509C30.4442 26.7064 30.1273 26.4947 29.8605 26.2277C29.0168 25.3839 28.8083 24.1417 29.2348 23.1022L25.3583 19.2257V29.427C25.6397 29.5662 25.8968 29.7498 26.1199 29.9707C26.6588 30.5097 26.9616 31.2406 26.9616 32.0028C26.9616 32.7649 26.6588 33.4959 26.1199 34.0348C25.581 34.5737 24.85 34.8765 24.0879 34.8765C23.3257 34.8765 22.5948 34.5737 22.0558 34.0348C21.6536 33.6331 21.3797 33.121 21.2687 32.5635C21.1576 32.0059 21.2146 31.428 21.4322 30.9028C21.5767 30.5541 21.7887 30.2374 22.0558 29.9707C22.3335 29.6942 22.6418 29.4844 22.9969 29.3437V19.0476C22.6445 18.9036 22.3245 18.6904 22.0558 18.4207C21.6523 18.0177 21.378 17.5036 21.2678 16.944C21.1576 16.3845 21.2165 15.8048 21.4371 15.2788L17.1833 11.0276L5.9567 22.2424C5.61873 22.5801 5.38854 23.0105 5.29526 23.4791C5.20197 23.9477 5.24978 24.4335 5.43264 24.8749C5.55425 25.1679 5.73232 25.4341 5.9567 25.6584L22.3301 42.0294C22.5544 42.2536 22.8205 42.4316 23.1133 42.5531C23.7052 42.7978 24.3699 42.7978 24.9617 42.5531C25.2546 42.4316 25.5207 42.2536 25.7449 42.0294L42.0422 25.758C42.2666 25.5338 42.4446 25.2675 42.5661 24.9745C42.6876 24.6814 42.7502 24.3673 42.7502 24.0501C42.7502 23.7328 42.6876 23.4186 42.5662 23.1256C42.4447 22.8325 42.2666 22.5662 42.0422 22.3419" fill="white"/>
</g>
</g>
<defs>
<clipPath id="clip0_1206_57">
<rect width="48" height="48" fill="white"/>
</clipPath>
</defs>
</svg>
