<svg width="87" height="87" viewBox="0 0 87 87" fill="none" xmlns="http://www.w3.org/2000/svg">
<path d="M37.7359 34.365C39.0047 38.4975 40.3097 42.63 41.6147 46.835H33.9297C35.2347 42.63 36.4672 38.4975 37.7359 34.365Z" fill="black"/>
<path d="M61.625 7.25H25.375C20.568 7.25 15.9578 9.15959 12.5587 12.5587C9.15959 15.9578 7.25 20.568 7.25 25.375V61.625C7.25 66.432 9.15959 71.0422 12.5587 74.4413C15.9578 77.8404 20.568 79.75 25.375 79.75H61.625C66.432 79.75 71.0422 77.8404 74.4413 74.4413C77.8404 71.0422 79.75 66.432 79.75 61.625V25.375C79.75 20.568 77.8404 15.9578 74.4413 12.5587C71.0422 9.15959 66.432 7.25 61.625 7.25ZM52.5262 60.8275H46.8713C46.6457 60.8588 46.4168 60.8004 46.2338 60.6648C46.0508 60.5293 45.9283 60.3274 45.8925 60.1025C45.2037 58.0725 44.4787 56.0425 43.79 53.9763C43.7683 53.8467 43.7207 53.7228 43.6502 53.6121C43.5796 53.5013 43.4874 53.4058 43.3792 53.3314C43.2709 53.257 43.1488 53.2051 43.0201 53.1789C42.8914 53.1527 42.7587 53.1526 42.63 53.1788H32.9875C32.8536 53.1472 32.7145 53.1442 32.5794 53.1699C32.4442 53.1957 32.316 53.2497 32.2031 53.3284C32.0902 53.4071 31.9952 53.5086 31.9242 53.6265C31.8533 53.7444 31.808 53.8759 31.7913 54.0125C31.175 56.0425 30.4862 58 29.87 60.03C29.8528 60.1581 29.8094 60.2812 29.7425 60.3918C29.6757 60.5024 29.5868 60.5981 29.4814 60.6729C29.376 60.7477 29.2564 60.8 29.1299 60.8266C29.0034 60.8532 28.8728 60.8535 28.7462 60.8275H23.78C22.91 60.8275 22.8375 60.8275 23.1275 59.9213L30.9575 37.3375C31.6825 35.2713 32.4075 33.205 33.06 31.1388C33.2392 30.5259 33.3368 29.8921 33.35 29.2537C33.35 28.4925 33.64 28.3113 34.3288 28.3475H41.2525C41.76 28.3475 42.0138 28.3475 42.195 29.0363L51.1125 54.1575C51.8013 56.115 52.49 58.0363 53.1425 59.9575C53.4325 60.755 53.3962 60.8275 52.5262 60.8275ZM63.6187 60.2113C63.6187 60.8275 63.365 61.0087 62.785 61.0087H57.565C56.84 61.0087 56.6588 60.7187 56.6588 60.0662V37.3012C56.6588 36.5762 56.8762 36.2863 57.6375 36.3225H62.7487C63.3287 36.3225 63.6187 36.3225 63.6187 37.12C63.5946 44.805 63.5946 52.5021 63.6187 60.2113ZM59.9937 33.7488C59.4743 33.7817 58.9539 33.7025 58.4678 33.5164C57.9818 33.3303 57.5415 33.0417 57.1769 32.6702C56.8124 32.2988 56.5321 31.8532 56.3551 31.3637C56.1781 30.8743 56.1086 30.3525 56.1512 29.8337C56.1559 29.3182 56.2632 28.8087 56.4671 28.3351C56.6709 27.8615 56.9671 27.4332 57.3384 27.0755C57.7097 26.7177 58.1486 26.4375 58.6294 26.2514C59.1102 26.0652 59.6233 25.9768 60.1388 25.9913C60.6402 25.9896 61.1365 26.0921 61.5964 26.2921C62.0562 26.4922 62.4696 26.7854 62.8102 27.1534C63.1509 27.5213 63.4116 27.956 63.5757 28.4298C63.7398 28.9037 63.8039 29.4064 63.7638 29.9062C63.7934 30.4003 63.7217 30.8951 63.5528 31.3604C63.384 31.8256 63.1217 32.2513 62.7821 32.6113C62.4425 32.9713 62.0327 33.2579 61.5781 33.4536C61.1235 33.6492 60.6337 33.7496 60.1388 33.7488H59.9937Z" fill="#232323"/>
<path d="M41.6147 46.835H33.9297C35.2347 42.63 36.4672 38.4975 37.5547 34.365C39.0047 38.4975 40.3097 42.63 41.6147 46.835Z" fill="#232323"/>
</svg>
