<svg width="96" height="96" viewBox="0 0 96 96" fill="none" xmlns="http://www.w3.org/2000/svg">
<g clip-path="url(#clip0_1197_2)">
<path d="M17.025 1.20001H79.05C88.425 1.20001 96.075 8.77501 96.075 18.225V77.85C96.075 87.225 88.5 94.875 79.05 94.875H17.025C7.575 94.8 0 87.225 0 77.775V18.225C0 8.77501 7.575 1.20001 17.025 1.20001Z" fill="#330000"/>
<path d="M46.425 57.225H31.5L28.5 66.6C28.425 66.975 28.125 67.2 27.75 67.125H20.25C19.8 67.125 19.725 66.9 19.8 66.375L32.7 29.325C32.85 28.95 32.925 28.5 33.075 27.975C33.225 27.15 33.3 26.25 33.3 25.35C33.225 25.125 33.45 24.975 33.6 24.9H43.95C44.25 24.9 44.4 25.05 44.475 25.2L59.1 66.375C59.25 66.825 59.1 67.05 58.725 67.05H50.325C50.025 67.125 49.8 66.9 49.65 66.6L46.425 57.225ZM33.825 49.05H43.95C43.725 48.225 43.425 47.175 43.05 46.2C42.675 45.15 42.3 43.95 42 42.75C41.625 41.475 41.25 40.275 40.875 39.075C40.5 37.8 40.125 36.675 39.825 35.55C39.525 34.425 39.225 33.375 38.925 32.4H38.85C38.475 34.125 38.025 35.85 37.5 37.575C36.9 39.525 36.3 41.475 35.625 43.5C35.025 45.525 34.425 47.4 33.825 49.05ZM68.025 32.025C66.675 32.1 65.4 31.575 64.5 30.6C63.6 29.625 63.075 28.275 63.15 26.925C63.075 25.575 63.6 24.3 64.575 23.4C65.55 22.5 66.825 21.975 68.1 21.975C69.675 21.975 70.875 22.425 71.775 23.4C72.675 24.375 73.125 25.65 73.125 26.925C73.2 28.275 72.675 29.625 71.7 30.6C70.725 31.575 69.375 32.1 68.025 32.025ZM63.525 66.75V35.925C63.525 35.55 63.675 35.4 64.05 35.4H72C72.375 35.4 72.525 35.625 72.525 35.925V66.75C72.525 67.2 72.375 67.425 72 67.425H64.125C63.75 67.35 63.525 67.125 63.525 66.75Z" fill="#FF9A00"/>
</g>
<defs>
<clipPath id="clip0_1197_2">
<rect width="96" height="96" fill="white"/>
</clipPath>
</defs>
</svg>
