<svg width="18" height="17" viewBox="0 0 18 17" fill="none" xmlns="http://www.w3.org/2000/svg">
<path fill-rule="evenodd" clip-rule="evenodd" d="M2.22594e-07 1.42027C2.22594e-07 1.04359 0.158438 0.682343 0.440458 0.41599C0.722479 0.149637 1.10498 1.89342e-06 1.50382 1.89342e-06H16.4945C16.6922 -0.000302987 16.888 0.0362141 17.0707 0.107463C17.2533 0.178711 17.4194 0.283291 17.5592 0.415216C17.699 0.547141 17.81 0.70382 17.8856 0.876282C17.9612 1.04874 18.0001 1.2336 18 1.42027V15.5782C18.0002 15.7649 17.9614 15.9498 17.8859 16.1224C17.8104 16.2949 17.6996 16.4517 17.5598 16.5837C17.4201 16.7158 17.2541 16.8205 17.0715 16.892C16.8888 16.9634 16.6931 17.0001 16.4954 17H1.50382C1.30627 17 1.11065 16.9632 0.928143 16.8918C0.745638 16.8204 0.579822 16.7157 0.440169 16.5837C0.300516 16.4518 0.189762 16.2951 0.114237 16.1227C0.0387109 15.9503 -0.00010726 15.7655 2.22594e-07 15.579V1.42027ZM7.12473 6.48164H9.56209V7.63764C9.91391 6.97309 10.8139 6.375 12.1664 6.375C14.7592 6.375 15.3736 7.69868 15.3736 10.1274V14.6262H12.7497V10.6806C12.7497 9.29746 12.3979 8.517 11.5045 8.517C10.2649 8.517 9.74945 9.3585 9.74945 10.6806V14.6262H7.12473V6.48164ZM2.62473 14.5203H5.24945V6.375H2.62473V14.5195V14.5203ZM5.625 3.71836C5.62995 3.93061 5.58996 4.14165 5.50738 4.33911C5.4248 4.53656 5.30129 4.71645 5.1441 4.86821C4.98691 5.01997 4.79921 5.14055 4.59201 5.22287C4.38481 5.30519 4.16229 5.3476 3.9375 5.3476C3.71271 5.3476 3.49019 5.30519 3.28299 5.22287C3.07579 5.14055 2.88809 5.01997 2.7309 4.86821C2.57371 4.71645 2.4502 4.53656 2.36762 4.33911C2.28504 4.14165 2.24505 3.93061 2.25 3.71836C2.25971 3.30175 2.44177 2.90529 2.75718 2.6139C3.07259 2.3225 3.49627 2.15932 3.9375 2.15932C4.37873 2.15932 4.80241 2.3225 5.11782 2.6139C5.43323 2.90529 5.61529 3.30175 5.625 3.71836Z" fill="#E2E2E2"/>
</svg>
