<?xml version="1.0" encoding="UTF-8"?>
<svg id="Capa_1" data-name="Capa 1" xmlns="http://www.w3.org/2000/svg" viewBox="0 0 595.28 414.11">
  <defs>
    <style>
      .cls-1 {
        fill: #fff;
      }
    </style>
  </defs>
  <path class="cls-1" d="M59.01,311.75V104.78c0-14.99-2.98-25.65-8.94-31.97h76.13c3.92,0,7.11.59,9.58,1.76,2.47,1.17,4.94,3.07,7.41,5.69,2.47,2.62,5.11,7.31,7.92,14.09,2.81,6.77,5.75,14.49,8.81,23.16s7.07,20.86,12.01,36.57l24.01,75.85c.51,1.81,1.36,4.52,2.55,8.13,2.89,9.03,5.11,15.85,6.64,20.45,1.53,4.61,3.49,9.98,5.88,16.12,2.38,6.14,4.6,10.57,6.64,13.27,2.04,2.71,4.09,4.06,6.13,4.06,6.3,0,9.45-9.84,9.45-29.53,0-16.07-2-31.56-6-46.46-4-14.9-8.81-27.72-14.43-38.47-5.62-10.75-11.28-20.81-16.99-30.21-5.7-9.39-10.56-18.42-14.56-27.09-4-8.67-6-16.53-6-23.57,0-7.77,2.68-13.68,8.05-17.74,5.36-4.06,12.13-6.1,20.31-6.1h53.39c-5.96,6.32-8.94,16.98-8.94,31.97v206.97c0,14.99,2.98,25.64,8.94,31.97h-66.93c-5.79,0-11.07-1.44-15.84-4.34-4.77-2.89-8.6-6.05-11.5-9.48-2.9-3.43-6-8.99-9.32-16.66-3.32-7.68-5.75-13.77-7.28-18.29-1.53-4.51-3.83-11.83-6.9-21.94-2.38-7.76-7.24-22.8-14.56-45.1-7.32-22.3-11.84-36.08-13.54-41.31-.51-1.81-1.36-4.51-2.55-8.13-2.89-9.03-5.11-15.85-6.64-20.45-1.53-4.61-3.49-9.98-5.88-16.12-2.38-6.14-4.6-10.57-6.64-13.27-2.04-2.71-4.09-4.06-6.13-4.06-6.3,0-9.45,9.84-9.45,29.53,0,16.07,2,31.56,6,46.46,4,14.9,8.81,27.72,14.43,38.47,5.62,10.75,11.28,20.82,16.99,30.21,5.71,9.39,10.56,18.42,14.56,27.09,4,8.67,6,16.53,6,23.57,0,7.77-2.68,13.68-8.05,17.74-5.36,4.06-12.13,6.1-20.31,6.1h-53.39c5.96-6.32,8.94-16.98,8.94-31.97Z"/>
  <path class="cls-1" d="M235.47,72.82h81.23c3.41,0,6.39.59,8.94,1.76,2.55,1.17,4.94,3.3,7.15,6.37s4.09,6.41,5.62,10.02c1.53,3.61,3.32,8.76,5.36,15.44,2.04,6.68,3.92,13.18,5.62,19.5,1.7,6.32,4.09,14.81,7.15,25.46,3.07,10.66,6.13,20.86,9.2,30.61,3.07-9.75,6.13-19.96,9.2-30.61,3.07-10.66,5.45-19.14,7.15-25.46,1.7-6.32,3.58-12.82,5.62-19.5,2.04-6.68,3.83-11.83,5.36-15.44,1.53-3.61,3.41-6.95,5.62-10.02,2.21-3.07,4.6-5.19,7.15-6.37,2.55-1.17,5.53-1.76,8.94-1.76h80.72c-5.96,6.32-8.94,16.98-8.94,31.97v206.97c0,14.99,2.98,25.65,8.94,31.97h-85.58c5.96-6.32,8.94-16.98,8.94-31.97v-157.67c0-19.69-3.15-29.53-9.45-29.53-8,0-19.84,34.31-35.51,102.94-1.36,5.6-3.32,14.27-5.87,26.01s-4.47,20.27-5.75,25.6-2.9,11.47-4.85,18.42c-1.96,6.95-3.83,11.83-5.62,14.63-1.79,2.8-3.62,4.2-5.49,4.2-1.19,0-2.51-.81-3.96-2.44-1.45-1.63-3.07-4.38-4.85-8.26s-3.36-7.59-4.73-11.11c-1.36-3.52-3.11-8.58-5.24-15.17-2.13-6.59-3.88-12.01-5.24-16.25-1.36-4.24-3.28-10.38-5.75-18.42s-4.3-14.04-5.49-18.01c-.17-.72-1.02-3.52-2.56-8.4-1.53-4.88-2.81-8.99-3.83-12.33-1.02-3.34-2.51-8.04-4.47-14.09-1.96-6.05-3.7-11.29-5.24-15.71-1.53-4.42-3.32-9.48-5.36-15.17-2.04-5.69-3.96-10.47-5.75-14.36-1.79-3.88-3.62-7.63-5.49-11.24-1.87-3.61-3.62-6.32-5.24-8.13s-3.11-2.71-4.47-2.71c-6.3,0-9.45,9.84-9.45,29.53,0,16.07,2,31.56,6,46.46,4,14.9,8.81,27.72,14.43,38.47,5.62,10.75,11.28,20.82,16.99,30.21,5.71,9.39,10.56,18.42,14.56,27.09,4,8.67,6,16.53,6,23.57,0,7.77-2.68,13.68-8.05,17.74-5.36,4.06-12.13,6.1-20.31,6.1h-53.39c5.96-6.32,8.94-16.98,8.94-31.97V104.78c0-14.99-2.98-25.65-8.94-31.97Z"/>
  <circle class="cls-1" cx="521.93" cy="98.85" r="9.41"/>
  <g>
    <path class="cls-1" d="M535.03,304.64h-1.58l-4.58-1.53v2.04c3.41,1.32,6.66,3.76,6.66,10.13,0,7.43-6.11,11.14-13.38,11.14s-13.33-3.72-13.33-11.14c0-6.36,3.26-8.8,6.66-10.13v-2.04l-4.58,1.53h-13.28v-8.14h37.4v8.14ZM515.95,311.46c0,4.38,1.88,6.82,6.21,6.82s6.26-2.44,6.26-6.82-1.93-6.82-6.26-6.82-6.21,2.44-6.21,6.82Z"/>
    <path class="cls-1" d="M508.83,276.6c0-7.99,4.73-13.59,12.52-13.59h2.55v19.49c2.95,0,5.04-2.14,5.04-6.77,0-2.85-1.02-4.99-2.95-5.5v-8.14c3.71.51,9.56,4.73,9.56,13.64,0,9.87-6.41,14.4-13.69,14.4-8.14,0-13.03-5.55-13.03-13.53ZM519.31,270.65c-1.93,0-3.87,1.42-3.87,5.95s1.93,5.9,3.87,5.9v-11.86Z"/>
    <path class="cls-1" d="M535.54,243.22c0,9.46-3.82,13.53-9.82,13.53v-8.14c1.99,0,3.72-1.37,3.72-5.65,0-2.19-.51-3.56-1.73-3.56-1.32,0-1.68,1.42-3.05,5.55-1.58,4.78-2.85,10.63-8.6,10.63-4.58,0-7.22-4.12-7.22-11.19,0-8.7,4.32-12.26,9.31-12.26v8.14c-1.83,0-3.21,1.37-3.21,4.17,0,1.93.46,3,1.48,3,1.22,0,1.98-2.55,3.31-6.62,1.63-4.99,2.9-9.57,8.24-9.57,4.32,0,7.58,3.1,7.58,11.96Z"/>
    <path class="cls-1" d="M502.72,219.14c-2.59,0-4.07-1.78-4.07-4.78s1.48-4.88,4.07-4.88,4.07,1.88,4.07,4.88-1.42,4.78-4.07,4.78ZM527.91,224.89v-7.28h-11.75l.31,6.26h-7.12l-.51-9.67c-.15-2.85,1.42-4.43,4.27-4.43h14.81v-7.28h7.12v22.39h-7.12Z"/>
    <path class="cls-1" d="M509.34,166.83h7.12v1.73c0,.76,0,1.68.46,2.39.41-.31,1.58-.71,2.95-.71,4.83,0,7.89,4.53,10.28,11.6-.36-5.85,1.17-11.3,6.61-11.3,7.58,0,8.45,8.9,8.45,27.98h-7.12c0-16.64-.25-19.79-3.05-19.79-3.76,0-2.09,9.21-.76,17.1l-4.58.86c-.61-5.85-1.22-11.14-2.34-15.82h-2.04c3.36,9.41,1.98,19.34-6.46,19.34-6.77,0-10.02-6.41-10.02-14.5,0-3.92.76-7.48,2.75-10.18-1.98-1.53-2.24-4.17-2.24-6.46v-2.24ZM519.36,178.38c-2.14,0-3.41,1.93-3.41,6.82s1.27,6.87,3.41,6.87,3.41-1.98,3.41-6.87-1.22-6.82-3.41-6.82Z"/>
    <path class="cls-1" d="M525.52,151.82h9.52v8.14h-25.7v-8.14h3.1l4.58,1.53v-2.04c-4.58-1.02-8.19-4.22-8.19-9.72,0-6.56,4.38-10.53,12.31-10.53h13.89v8.14h-12.62c-4.68,0-6.46,1.37-6.46,5.29,0,4.43,2.34,7.33,9.57,7.33Z"/>
  </g>
</svg>