<svg width="37" height="33" viewBox="0 0 37 33" fill="none" xmlns="http://www.w3.org/2000/svg">
<g clip-path="url(#clip0_1521_196)">
<path d="M27.3814 30.9432C27.2442 31.0082 27.2557 31.0288 27.3872 30.969C27.4277 30.9542 27.4648 30.9329 27.4967 30.9061C27.4967 30.8844 27.4967 30.8844 27.3814 30.9432ZM27.6581 30.8092C27.5924 30.8576 27.5924 30.8576 27.6708 30.8257C27.6998 30.8135 27.7263 30.7971 27.7492 30.7772C27.7492 30.7493 27.7308 30.7555 27.6581 30.8092ZM27.838 30.7122C27.7723 30.7607 27.7723 30.7607 27.8507 30.7287C27.8798 30.7163 27.9063 30.6996 27.9291 30.6792C27.9291 30.6534 27.9106 30.6586 27.838 30.7122ZM28.0202 30.6163C27.9544 30.6648 27.9544 30.6648 28.0305 30.6318C28.0732 30.6112 28.1089 30.5895 28.1089 30.5833C28.1089 30.5575 28.0905 30.5627 28.0202 30.6163ZM28.2657 30.4709C28.1401 30.5462 28.0962 30.5947 28.2115 30.541C28.2888 30.4988 28.4202 30.4059 28.3972 30.4059C28.3476 30.4224 28.3061 30.4503 28.2646 30.4709H28.2657ZM17.2401 0.0119132C17.1559 0.0170695 16.9034 0.0376945 16.682 0.0541945C11.4384 0.479069 6.53262 3.00357 3.42311 6.89241C1.70471 9.0253 0.587726 11.4979 0.167178 14.0998C0.0184472 15.0073 0 15.2754 0 16.5057C0 17.735 0.0184472 17.999 0.167178 18.9065C1.1714 25.1053 6.10141 30.309 12.7839 32.2374C13.9864 32.5808 15.2466 32.818 16.682 32.9634C17.2401 33.0171 19.6532 33.0171 20.2112 32.9634C22.6924 32.7159 24.7873 32.1684 26.8603 31.2227C27.1785 31.0783 27.2385 31.0402 27.1958 31.0082C26.1845 29.8125 25.1818 28.6111 24.1877 27.404L21.2397 23.8431L17.5468 18.9498C16.3184 17.3114 15.0774 15.6806 13.8239 14.0575C13.8112 14.0575 13.7951 16.2324 13.7881 18.8848C13.7755 23.5306 13.7755 23.7193 13.7097 23.8266C13.6467 23.9561 13.5338 24.0612 13.3915 24.1225C13.2774 24.171 13.1748 24.1813 12.6294 24.1813H12.0057L11.8431 24.0906C11.7413 24.0321 11.6586 23.9507 11.6033 23.8544L11.5249 23.709L11.5307 17.242L11.5433 10.7751L11.6575 10.6462C11.7304 10.5669 11.8201 10.5014 11.9215 10.4533C12.0725 10.3884 12.1325 10.378 12.7562 10.378C13.4884 10.378 13.6094 10.4038 13.802 10.5925C15.298 12.5827 16.7811 14.5806 18.2512 16.5862C20.6482 19.8367 23.9203 24.2721 25.5286 26.448L28.4537 30.407L28.5978 30.3214C30.0035 29.4858 31.2774 28.4852 32.3852 27.3462C34.709 24.9672 36.217 22.0395 36.7284 18.9137C36.8771 18.0062 36.8956 17.737 36.8956 16.5078C36.8956 15.2775 36.8771 15.0145 36.7284 14.107C35.7242 7.90819 30.7942 2.70451 24.1117 0.775038C22.8627 0.421238 21.5773 0.180438 20.2746 0.056257C19.9253 0.0242882 17.541 -0.013868 17.2412 0.0139757L17.2401 0.0119132ZM24.7884 9.99132C24.8742 10.029 24.9507 10.0816 25.0135 10.1461C25.0762 10.2105 25.124 10.2855 25.1539 10.3667C25.185 10.4533 25.1908 12.2467 25.185 16.2861L25.1724 22.0858L24.0321 20.5183L22.8849 18.9498V14.7392C22.8849 12.0095 22.8976 10.4791 22.9137 10.4038C22.9702 10.2312 23.0996 10.0851 23.2746 9.99648C23.4176 9.93151 23.4729 9.92635 24.0436 9.92635C24.5774 9.92635 24.6685 9.93151 24.7884 9.99132Z" fill="#232323"/>
</g>
<defs>
<clipPath id="clip0_1521_196">
<rect width="36.8944" height="33" rx="10" fill="white"/>
</clipPath>
</defs>
</svg>
