<svg width="62" height="34" viewBox="0 0 62 34" fill="none" xmlns="http://www.w3.org/2000/svg">
<path d="M30.3898 33.6863C30.1881 33.6863 29.9863 33.6347 29.8038 33.5488L27.959 32.5691C27.6804 32.4316 27.8149 32.38 27.911 32.3542C28.2761 32.2425 28.353 32.2167 28.7469 32.0105C28.7853 31.9933 28.843 32.0019 28.8814 32.0191L30.3034 32.7753C30.3514 32.8011 30.4283 32.8011 30.4763 32.7753L36.0297 29.905C36.0777 29.8792 36.1162 29.8277 36.1162 29.7675V24.0355C36.1162 23.9753 36.0873 23.9238 36.0297 23.898L30.4763 21.0363C30.4283 21.0105 30.361 21.0105 30.3034 21.0363L24.75 23.898C24.6924 23.9238 24.6635 23.9839 24.6635 24.0355V29.7675C24.6635 29.8191 24.702 29.8706 24.75 29.8964L26.2681 30.6784C27.0943 31.048 27.6036 30.6097 27.6036 30.18V24.5167C27.6036 24.4394 27.6708 24.3706 27.7669 24.3706H28.4683C28.5547 24.3706 28.6316 24.4308 28.6316 24.5167V30.18C28.6316 31.1683 28.0359 31.7269 26.9886 31.7269C26.6716 31.7269 26.4122 31.7269 25.7108 31.4175L24.2504 30.6698C23.8949 30.4808 23.6643 30.137 23.6643 29.7675V24.0355C23.6643 23.6659 23.8853 23.3136 24.2504 23.1331L29.8038 20.2628C30.1593 20.0823 30.6204 20.0823 30.9663 20.2628L36.5197 23.1331C36.8752 23.3222 37.1058 23.6659 37.1058 24.0355V29.7675C37.1058 30.137 36.8848 30.4894 36.5197 30.6698L30.9663 33.5402C30.803 33.6347 30.6012 33.6863 30.3898 33.6863ZM34.8767 28.0316C34.8767 26.9573 34.0697 26.6738 32.3595 26.4675C30.63 26.2613 30.4571 26.1581 30.4571 25.7972C30.4571 25.4964 30.6012 25.1011 31.8791 25.1011C33.0224 25.1011 33.4452 25.3245 33.6181 26.012C33.6373 26.0808 33.695 26.1238 33.7718 26.1238H34.4924C34.4934 26.1238 34.4944 26.1237 34.4954 26.1237C34.5773 26.1225 34.664 26.0489 34.6462 25.9691C34.5309 24.7831 33.6565 24.2331 31.8791 24.2331C30.2938 24.2331 29.3522 24.8347 29.3522 25.8316C29.3522 26.923 30.2938 27.2152 31.8118 27.3527C33.6277 27.5159 33.7718 27.748 33.7718 28.0659C33.7718 28.6245 33.2722 28.8566 32.1001 28.8566C30.63 28.8566 30.3034 28.53 30.1977 27.8769C30.1881 27.8081 30.1208 27.7566 30.0344 27.7566H29.3138C29.2273 27.7566 29.1504 27.8167 29.1504 27.9027C29.1504 28.7363 29.6596 29.7331 32.0905 29.7331C33.8679 29.7331 34.8767 29.1144 34.8767 28.0316ZM40.1131 23.7261C40.1131 24.2503 39.6327 24.68 39.0466 24.68C38.4605 24.68 37.9801 24.2503 37.9801 23.7261C37.9801 23.1847 38.4797 22.7722 39.0466 22.7722C39.6231 22.7636 40.1131 23.1847 40.1131 23.7261ZM39.9401 23.7261C39.9401 23.2792 39.5366 22.9269 39.037 22.9269C38.547 22.9269 38.1434 23.2792 38.1434 23.7261C38.1434 24.173 38.547 24.5339 39.037 24.5339C39.5366 24.5253 39.9401 24.1644 39.9401 23.7261ZM39.4662 24.0968C39.4779 24.1711 39.4151 24.2589 39.3398 24.2589C39.2924 24.2589 39.2522 24.225 39.2452 24.1781C39.2357 24.1143 39.2239 24.0304 39.2166 23.9767C39.2119 23.9416 39.2078 23.9048 39.1894 23.8745C39.1717 23.8452 39.144 23.8292 39.085 23.8292C38.9683 23.8292 38.8736 23.9239 38.8736 24.0406V24.1436C38.8736 24.2073 38.822 24.2589 38.7583 24.2589C38.6947 24.2589 38.6431 24.2073 38.6431 24.1436V23.5978C38.6431 23.3697 38.828 23.1847 39.0562 23.1847C39.2003 23.1847 39.4789 23.1847 39.4789 23.4683C39.4789 23.4803 39.4784 23.4917 39.4774 23.5025C39.4711 23.5705 39.4361 23.9085 39.4501 23.9753C39.4539 24.0095 39.4593 24.0533 39.4662 24.0968ZM39.2387 23.5027C39.2387 23.3566 39.1234 23.3566 39.0658 23.3566H39.024C38.941 23.3566 38.8736 23.4239 38.8736 23.507C38.8736 23.59 38.941 23.6573 39.024 23.6573H39.0562C39.2099 23.6573 39.2387 23.5628 39.2387 23.5027ZM13.1917 11.2566C13.1917 11.0245 13.0572 10.8183 12.8362 10.7066L6.94653 7.67297C6.85045 7.62141 6.73515 7.59563 6.61986 7.58703H6.56221C6.44691 7.58703 6.34123 7.62141 6.23554 7.67297L0.355493 10.7066C0.134511 10.8183 0 11.0331 0 11.2566L0.00960792 19.4206C0.00960792 19.5323 0.0768633 19.6355 0.18255 19.6956C0.288238 19.7558 0.422748 19.7558 0.538043 19.6956L4.03533 17.8995C4.25631 17.7792 4.39082 17.573 4.39082 17.3495V13.5339C4.39082 13.3105 4.52533 13.0956 4.74631 12.9839L6.23554 12.2191C6.35083 12.1589 6.46613 12.1331 6.59103 12.1331C6.71594 12.1331 6.84084 12.1589 6.94653 12.2191L8.43575 12.9839C8.65674 13.0956 8.79125 13.3105 8.79125 13.5339V17.3495C8.79125 17.573 8.92576 17.7878 9.14674 17.8995L12.644 19.6956C12.7497 19.7558 12.8938 19.7558 12.9995 19.6956C13.1052 19.6441 13.1725 19.5323 13.1725 19.4206L13.1917 11.2566ZM45.3974 2.34485V17.5042C45.3974 17.7277 45.2629 17.9425 45.0419 18.0542L39.1523 21.0964C38.9313 21.2081 38.6623 21.2081 38.4413 21.0964L32.5516 18.0542C32.3306 17.9425 32.1961 17.7277 32.1961 17.5042V11.4198C32.1961 11.1964 32.3306 10.9816 32.5516 10.8698L38.4413 7.82766C38.6623 7.71594 38.9313 7.71594 39.1523 7.82766L40.6223 8.58391C40.7856 8.66984 40.997 8.55813 40.997 8.39485V0.316721C40.997 0.0760957 41.2852 -0.0785918 41.5254 0.0417207L45.0323 1.79485C45.2533 1.89797 45.3974 2.11281 45.3974 2.34485ZM40.973 13.4222C40.9756 13.4222 40.9778 13.42 40.9777 13.4174C40.9757 13.3593 40.9381 13.3098 40.8913 13.2847L38.8736 12.2363C38.816 12.2105 38.7487 12.2105 38.6911 12.2363L36.6734 13.2847C36.6158 13.3105 36.587 13.362 36.587 13.4222V15.5105C36.587 15.5706 36.6254 15.6222 36.6734 15.648L38.6911 16.6878C38.7487 16.7136 38.816 16.7136 38.864 16.6878L40.8817 15.648C40.9393 15.6222 40.9682 15.5706 40.9682 15.5105V13.427C40.9682 13.4243 40.9703 13.4222 40.973 13.4222ZM61.1352 13.362C61.3562 13.2503 61.4907 13.0355 61.4907 12.812V11.3425C61.4907 11.1191 61.3562 10.9042 61.1352 10.7925L55.284 7.75031C55.063 7.6386 54.794 7.6386 54.573 7.75031L48.6833 10.7925C48.4623 10.9042 48.3278 11.1191 48.3278 11.3425V17.4269C48.3278 17.6589 48.4623 17.8652 48.6833 17.9769L54.5345 20.9589C54.7459 21.0706 55.0149 21.0706 55.2359 20.9589L58.7716 19.1972C59.0118 19.0769 59.0118 18.7675 58.7716 18.6472L52.8436 15.605C52.7283 15.5448 52.661 15.4417 52.661 15.33V13.4222C52.661 13.3105 52.7283 13.2073 52.8436 13.1472L54.6883 12.1933C54.794 12.1331 54.9381 12.1331 55.0438 12.1933L56.8885 13.1472C56.9942 13.2073 57.071 13.3105 57.071 13.4222V14.9175C57.071 15.1581 57.3689 15.3128 57.6091 15.1925L61.1352 13.362ZM53.7083 13.6628C53.6698 13.6886 53.641 13.723 53.641 13.7659V14.9347C53.641 14.9777 53.6698 15.0206 53.7083 15.0378L54.842 15.6222C54.8804 15.648 54.9381 15.648 54.9765 15.6222L56.1102 15.0378C56.1487 15.012 56.1775 14.9777 56.1775 14.9347V13.7659C56.1775 13.723 56.1487 13.68 56.1102 13.6628L54.9765 13.0784C54.9381 13.0527 54.8804 13.0527 54.842 13.0784L53.7083 13.6628ZM29.2849 17.4011V11.3511C29.2849 11.1277 29.1312 10.9128 28.9102 10.8011L23.0398 7.7761C22.838 7.67297 22.5594 7.65578 22.3288 7.7761L16.4584 10.8011C16.2374 10.9128 16.0837 11.1191 16.0837 11.3511V17.4011C16.0837 17.6417 16.2662 17.848 16.468 17.9511L22.348 20.9761C22.5786 21.0964 22.8476 21.0878 23.059 20.9761L28.9198 17.9511C29.0928 17.8652 29.2177 17.7191 29.2657 17.5472C29.2753 17.5042 29.2849 17.4527 29.2849 17.4011ZM22.1558 6.68167C22.1504 6.67366 22.1398 6.67112 22.1314 6.67582C22.1147 6.68513 22.1213 6.71047 22.1404 6.71047C22.1552 6.71047 22.164 6.69396 22.1558 6.68167ZM29.451 17.8639C29.4597 17.8601 29.4629 17.8494 29.4578 17.8413C29.4494 17.8282 29.4291 17.8342 29.4291 17.8497C29.4291 17.861 29.4407 17.8685 29.451 17.8639Z" fill="#232323"/>
</svg>
