<svg width="87" height="87" viewBox="0 0 87 87" fill="none" xmlns="http://www.w3.org/2000/svg">
<path d="M43.5001 3.34052C35.5573 3.34052 27.7928 5.69583 21.1887 10.1086C14.5845 14.5214 9.43713 20.7934 6.39755 28.1316C3.35798 35.4698 2.56269 43.5445 4.11225 51.3347C5.66181 59.1249 9.48663 66.2806 15.103 71.897C20.7194 77.5134 27.8752 81.3382 35.6653 82.8878C43.4555 84.4374 51.5302 83.6421 58.8684 80.6025C66.2066 77.5629 72.4787 72.4156 76.8914 65.8114C81.3042 59.2072 83.6595 51.4428 83.6595 43.5C83.6483 32.8525 79.4136 22.6443 71.8847 15.1154C64.3557 7.58644 54.1476 3.35176 43.5001 3.34052ZM58.0424 22.7792C57.7555 22.492 57.4148 22.2642 57.0398 22.1087C56.6648 21.9532 56.2628 21.8732 55.8568 21.8732C55.4509 21.8732 55.0489 21.9532 54.6738 22.1087C54.2988 22.2642 53.9581 22.492 53.6712 22.7792L27.7027 49.2922C26.8406 50.152 26.1564 51.1732 25.689 52.2974C25.2215 53.4216 24.9801 54.6269 24.9785 55.8445C24.9769 57.062 25.2151 58.2679 25.6795 59.3934C26.144 60.5189 26.8256 61.5418 27.6853 62.4039C28.5451 63.266 29.5663 63.9502 30.6905 64.4177C31.8148 64.8851 33.0201 65.1265 34.2376 65.1281C35.4551 65.1297 36.661 64.8915 37.7865 64.4271C38.912 63.9626 39.935 63.2811 40.797 62.4213L59.8419 42.9903C60.1232 42.6895 60.4618 42.448 60.8378 42.28C61.2138 42.112 61.6196 42.0209 62.0314 42.012C62.4431 42.0031 62.8525 42.0766 63.2354 42.2283C63.6183 42.3799 63.967 42.6066 64.2611 42.8949C64.5551 43.1833 64.7885 43.5275 64.9475 43.9074C65.1066 44.2873 65.1881 44.6952 65.1872 45.107C65.1863 45.5188 65.1031 45.9263 64.9425 46.3056C64.7818 46.6848 64.5469 47.028 64.2517 47.3151L45.1875 66.7693C43.7606 68.2312 42.0579 69.3956 40.1779 70.195C38.2979 70.9943 36.278 71.4128 34.2351 71.4262C32.1923 71.4396 30.1671 71.0476 28.2768 70.2729C26.3865 69.4982 24.6686 68.3562 23.2227 66.9131C21.7768 65.47 20.6315 63.7543 19.8531 61.8656C19.0748 59.9768 18.6788 57.9523 18.6882 55.9095C18.6976 53.8666 19.1122 51.8459 19.9079 49.9644C20.7036 48.0828 21.8646 46.3778 23.3238 44.948L49.2923 18.4351C50.1521 17.573 51.1732 16.8887 52.2975 16.4213C53.4217 15.9539 54.627 15.7125 55.8445 15.7109C57.0621 15.7092 58.268 15.9475 59.3935 16.4119C60.5189 16.8763 61.5419 17.5579 62.404 18.4177C63.266 19.2775 63.9503 20.2986 64.4177 21.4229C64.8852 22.5471 65.1266 23.7524 65.1282 24.9699C65.1298 26.1875 64.8916 27.3934 64.4271 28.5189C63.9627 29.6443 63.2811 30.6673 62.4213 31.5294L36.4374 58.0192C36.1561 58.32 35.8175 58.5614 35.4414 58.7294C35.0654 58.8974 34.6596 58.9886 34.2479 58.9974C33.8361 59.0063 33.4268 58.9328 33.0439 58.7812C32.661 58.6295 32.3123 58.4029 32.0182 58.1145C31.7242 57.8261 31.4908 57.4819 31.3317 57.102C31.1727 56.7221 31.0912 56.3143 31.0921 55.9024C31.093 55.4906 31.1762 55.0831 31.3368 54.7039C31.4975 54.3247 31.7323 53.9814 32.0276 53.6943L58.0193 27.1698C58.3109 26.884 58.543 26.5433 58.7022 26.1674C58.8614 25.7914 58.9444 25.3876 58.9466 24.9793C58.9487 24.5711 58.8699 24.1664 58.7147 23.7888C58.5595 23.4111 58.331 23.068 58.0424 22.7792Z" fill="#5855B7"/>
</svg>
