<svg width="96" height="96" viewBox="0 0 96 96" fill="none" xmlns="http://www.w3.org/2000/svg">
<path d="M17.0002 1.20001H78.9998C88.4003 1.20001 96 8.79976 96 18.2003V77.7998C96 87.2003 88.4003 94.8 78.9998 94.8H17.0002C7.59975 94.8 0 87.2003 0 77.7998V18.2003C0 8.79976 7.59975 1.20001 17.0002 1.20001Z" fill="#001E36"/>
<path d="M34.4002 24.9998C33.2002 24.9998 32.0002 24.9998 30.7605 25.0403C29.52 25.08 28.3597 25.08 27.2797 25.1205C26.1997 25.1603 25.2 25.1603 24.24 25.2C23.3197 25.2398 22.68 25.2398 21.9997 25.2398C21.72 25.2398 21.6 25.3995 21.6 25.68V66.84C21.6 67.2 21.7597 67.3605 22.08 67.3605H29.8402C30.12 67.32 30.3202 67.08 30.2797 66.8003V53.9603C31.0395 53.9603 31.5997 53.9603 32.0002 54C32.4 54.0398 33.0397 54.0398 33.9997 54.0398C37.2802 54.0398 40.2802 53.6798 42.9997 52.68C45.6 51.72 47.8402 50.04 49.44 47.7998C51.04 45.5598 51.84 42.7198 51.84 39.2798C51.84 37.4798 51.5205 35.76 50.9205 34.08C50.2847 32.3684 49.2888 30.8134 48 29.52C46.4788 28.0422 44.6478 26.9216 42.6397 26.2395C40.3995 25.3995 37.68 24.9998 34.4002 24.9998ZM35.2927 32.8785C36.7177 32.9055 38.1052 33.1545 39.3997 33.6795C40.56 34.1198 41.52 34.92 42.2002 35.9595C42.8382 37.0353 43.1573 38.2703 43.1205 39.5205C43.1205 41.28 42.72 42.6405 41.88 43.6403C40.9995 44.64 39.8797 45.4005 38.6002 45.7605C37.1197 46.2405 35.5597 46.4798 33.9997 46.4798H31.8795C31.3995 46.4798 30.8805 46.44 30.3202 46.4003V32.9603C30.6 32.9198 31.1602 32.88 31.9605 32.9205C32.7202 32.88 33.6397 32.88 34.68 32.88C34.885 32.875 35.0892 32.8745 35.2927 32.8785ZM68.8402 34.9208C66 34.9208 63.6397 35.3603 61.7602 36.3203C60.0405 37.1205 58.56 38.4 57.5602 39.9998C56.6805 41.4803 56.1997 43.1198 56.1997 44.8403C56.1655 46.2553 56.4817 47.6569 57.12 48.9203C57.8681 50.2655 58.9068 51.4269 60.1605 52.32C61.9201 53.5235 63.8295 54.4917 65.8402 55.2C67.8 55.9598 69.12 56.5598 69.7605 57.0795C70.4002 57.6 70.7205 58.1198 70.7205 58.68C70.7205 59.4 70.2802 60.0803 69.6405 60.36C68.9205 60.72 67.8405 60.9203 66.3202 60.9203C64.7205 60.9203 63.12 60.72 61.5997 60.3203C59.8542 59.9304 58.1806 59.2691 56.64 58.3605C56.52 58.2803 56.4 58.2405 56.28 58.3208C56.16 58.4003 56.1202 58.56 56.1202 58.68V65.64C56.0805 65.9602 56.28 66.24 56.5605 66.3998C57.8576 67.0057 59.2297 67.4363 60.6405 67.68C62.4405 68.04 64.2397 68.1998 66.0795 68.1998C68.9595 68.1998 71.3602 67.7603 73.32 66.9203C75.12 66.2003 76.68 64.9605 77.7997 63.36C78.8484 61.7866 79.3926 59.9309 79.3597 58.0403C79.3992 56.612 79.0832 55.1964 78.4402 53.9205C77.6797 52.56 76.5997 51.4403 75.2797 50.6003C73.3487 49.3876 71.2811 48.4073 69.12 47.6798C68.1549 47.2803 67.2073 46.8399 66.2797 46.3598C65.76 46.08 65.28 45.72 64.92 45.2798C64.68 44.9595 64.5202 44.6003 64.5202 44.2403C64.5202 43.8803 64.6402 43.4805 64.8397 43.1603C65.1202 42.7605 65.5597 42.48 66.0795 42.36C66.84 42.1605 67.68 42.0398 68.4795 42.0795C69.9997 42.0795 71.4795 42.2798 72.96 42.6C74.3205 42.8798 75.6 43.32 76.8 43.9605C76.9597 44.04 77.16 44.04 77.52 43.9605C77.5825 43.9142 77.6332 43.8538 77.668 43.7842C77.7028 43.7146 77.7207 43.6378 77.7202 43.56V37.0403C77.7202 36.8798 77.6797 36.72 77.64 36.5603C77.5597 36.4005 77.4 36.24 77.2402 36.2003C76.137 35.7493 74.981 35.4401 73.8 35.28C72.1575 35.0409 70.5 34.9213 68.8402 34.9208Z" fill="#31A8FF"/>
</svg>
