<svg width="88" height="87" viewBox="0 0 88 87" fill="none" xmlns="http://www.w3.org/2000/svg">
<path d="M38.3163 37.99C38.3718 39.0907 38.0353 40.1758 37.3654 41.0566C36.6955 41.9374 35.7346 42.5583 34.6496 42.8113C32.7356 43.3701 30.7393 43.603 28.7463 43.5C28.233 43.5 28.1963 43.1738 28.1963 42.8113V33.5675C28.1963 33.3138 28.453 32.8788 28.5996 32.8788C30.6971 32.6466 32.8195 32.7815 34.8696 33.2775C35.9014 33.5571 36.8055 34.1767 37.4324 35.0337C38.0592 35.8908 38.371 36.9338 38.3163 37.99Z" fill="#232323"/>
<path d="M62.333 7.25H25.6663C20.804 7.25 16.1409 9.15959 12.7027 12.5587C9.26455 15.9578 7.33301 20.568 7.33301 25.375V61.625C7.33301 66.432 9.26455 71.0422 12.7027 74.4413C16.1409 77.8404 20.804 79.75 25.6663 79.75H62.333C67.1953 79.75 71.8585 77.8404 75.2966 74.4413C78.7348 71.0422 80.6663 66.432 80.6663 61.625V25.375C80.6663 20.568 78.7348 15.9578 75.2966 12.5587C71.8585 9.15959 67.1953 7.25 62.333 7.25ZM40.333 47.125C38.4825 48.2869 36.3617 48.9609 34.173 49.0825H29.2597C28.233 49.0825 28.233 49.0825 28.233 50.0613V58.4712C28.233 59.1962 28.013 59.4137 27.2797 59.4137H22.4397C21.743 59.4137 21.5597 59.16 21.5597 58.5075V27.9488C21.5597 27.2238 21.5597 27.0062 22.4763 27.0062H33.953C36.0478 27.0624 38.0931 27.649 39.893 28.71C41.4475 29.576 42.7417 30.8342 43.6435 32.3563C44.5454 33.8784 45.0226 35.6098 45.0263 37.3738C45.2384 39.2698 44.9116 41.1868 44.0825 42.9093C43.2535 44.6319 41.955 46.0918 40.333 47.125ZM62.0397 59.0875C58.8509 60.3157 55.3597 60.5559 52.0297 59.7762C51.0299 59.5587 50.0521 59.2688 49.0963 58.9062C48.9489 58.8379 48.8194 58.737 48.7177 58.6113C48.6159 58.4856 48.5448 58.3384 48.5097 58.1812V52.7075C49.683 53.1425 50.783 53.65 51.9197 54.0125C53.8246 54.6144 55.8416 54.7878 57.823 54.52C58.219 54.4475 58.5979 54.3267 58.9597 54.1575C59.1746 54.0645 59.3614 53.9179 59.5019 53.7322C59.6424 53.5465 59.7318 53.3279 59.7613 53.0979C59.7909 52.8678 59.7596 52.6341 59.6705 52.4195C59.5814 52.205 59.4376 52.0169 59.253 51.8738C58.4142 51.2997 57.5171 50.8137 56.5763 50.4237C55.073 49.6987 53.533 49.1187 52.103 48.285C50.8119 47.664 49.7577 46.6479 49.0972 45.3875C48.4366 44.1271 48.2049 42.6897 48.4363 41.2888C48.6228 39.9404 49.1894 38.6712 50.0713 37.6263C50.9531 36.5814 52.1147 35.8029 53.423 35.38C55.7811 34.5916 58.2974 34.3802 60.7563 34.7638C61.9297 34.7638 63.0663 35.1988 64.2397 35.4163C64.863 35.4163 65.083 35.9237 65.0463 36.54V40.7812C65.0463 41.5787 64.863 41.6512 64.1297 41.3612C61.8396 40.313 59.3081 39.8876 56.7963 40.1287C56.4405 40.1697 56.0937 40.2676 55.7697 40.4187C55.5497 40.5041 55.3561 40.6448 55.2081 40.8269C55.06 41.009 54.9627 41.2262 54.9256 41.4569C54.8886 41.6877 54.9131 41.924 54.9969 42.1424C55.0806 42.3609 55.2206 42.554 55.403 42.7025C56.4639 43.4009 57.5761 44.0051 58.7397 44.515C60.133 45.2037 61.5997 45.7475 62.9563 46.5087C64.1874 47.0626 65.2071 47.9909 65.8668 49.1582C66.5264 50.3256 66.7914 51.6708 66.623 52.9975C66.5071 54.321 66.0105 55.5841 65.1918 56.6375C64.3732 57.691 63.2667 58.4908 62.003 58.9425L62.0397 59.0875Z" fill="#232323"/>
</svg>
