<svg width="87" height="87" viewBox="0 0 87 87" fill="none" xmlns="http://www.w3.org/2000/svg">
<g clip-path="url(#clip0_1215_2)">
<g clip-path="url(#clip1_1215_2)">
<path d="M66.6094 -0.329651H20.3906C9.12919 -0.329651 0 8.79954 0 20.061V66.2797C0 77.5412 9.12919 86.6703 20.3906 86.6703H66.6094C77.8708 86.6703 87 77.5412 87 66.2797V20.061C87 8.79954 77.8708 -0.329651 66.6094 -0.329651Z" fill="#00005B"/>
<path d="M18.3516 61.753V24.4154C18.3516 24.1619 18.4603 24.0168 18.7142 24.0168C19.3303 24.0168 19.9104 24.0168 20.7441 23.9804C21.6141 23.9444 22.5204 23.9444 23.4992 23.908C24.4779 23.8716 25.5291 23.8716 26.6529 23.8356C27.7764 23.7993 28.864 23.7993 29.9515 23.7993C32.9241 23.7993 35.3889 24.1619 37.4192 24.9231C39.2388 25.5411 40.8981 26.5564 42.2766 27.8954C43.4444 29.0675 44.3469 30.4768 44.9229 32.0279C45.4667 33.5504 45.7566 35.1093 45.7566 36.7405C45.7566 39.858 45.0316 42.4318 43.5816 44.4618C42.1315 46.4916 40.1016 48.0141 37.7454 48.8841C35.2802 49.7905 32.5614 50.1168 29.5892 50.1168C28.7192 50.1168 28.1391 50.1168 27.7764 50.0804C27.4142 50.0444 26.9065 50.0444 26.2179 50.0444V61.6806C26.254 61.9341 26.0728 62.1516 25.8189 62.188H18.7866C18.4967 62.188 18.3516 62.0429 18.3516 61.7166V61.753ZM26.2539 31.0491V43.2291C26.7617 43.2655 27.2327 43.3019 27.6677 43.3019H29.5892C31.0029 43.3019 32.4167 43.0844 33.7577 42.6494C34.9179 42.3231 35.9327 41.6343 36.7303 40.7279C37.4916 39.8219 37.8542 38.5893 37.8542 36.9944C37.8882 35.8615 37.5989 34.7424 37.0202 33.7679C36.4041 32.8255 35.5341 32.1006 34.4829 31.7016C33.1416 31.1579 31.6914 30.9404 30.2053 30.9768C29.2629 30.9768 28.4289 30.9768 27.7404 31.0131C27.0152 30.9768 26.5078 31.0131 26.2539 31.0491ZM50.9766 33.1881H57.3204C57.683 33.1881 57.9729 33.4416 58.0817 33.7679C58.1904 34.0581 58.2628 34.348 58.2992 34.6743C58.3716 35.0369 58.4443 35.4355 58.4803 35.7981C58.5167 36.1968 58.553 36.6318 58.553 37.1031C59.6414 35.8324 60.9567 34.7751 62.4317 33.9854C64.0993 33.043 66.0204 32.5716 67.9416 32.5716C68.1954 32.5356 68.4129 32.7168 68.4493 32.9706V40.1841C68.4493 40.4744 68.2678 40.5831 67.8692 40.5831C66.5642 40.5468 65.2228 40.6555 63.9542 40.9454C62.9029 41.1629 61.8879 41.4891 60.9092 41.9241C60.2203 42.2504 59.5678 42.6854 59.0604 43.2655V61.753C59.0604 62.1156 58.9153 62.2604 58.5891 62.2604H51.4479C51.158 62.2968 50.9042 62.1156 50.8678 61.8254V41.5979C50.8678 40.7279 50.8678 39.8219 50.8318 38.8791C50.7954 37.9368 50.7954 36.9944 50.7591 36.0516C50.7591 35.218 50.6867 34.4204 50.6143 33.5868C50.5779 33.4056 50.6867 33.2241 50.8678 33.1881C50.8678 33.1518 50.9405 33.1518 50.9766 33.1881Z" fill="#9999FF"/>
</g>
</g>
<defs>
<clipPath id="clip0_1215_2">
<rect width="87" height="87" fill="white"/>
</clipPath>
<clipPath id="clip1_1215_2">
<rect width="87" height="87" fill="white" transform="translate(0 -0.329651)"/>
</clipPath>
</defs>
</svg>
