<svg width="87" height="87" viewBox="0 0 87 87" fill="none" xmlns="http://www.w3.org/2000/svg">
<g clip-path="url(#clip0_1215_2)">
<path d="M4.5 5H82.5V82H4.5V5Z" fill="#F03E2F"/>
<path d="M28.5234 24.9496C28.5234 31.5656 32.736 35.5028 41.1704 37.5782L50.1075 39.588C58.0897 41.3662 62.95 45.7829 62.95 52.9776C63.009 56.1204 61.9566 59.1853 59.9739 61.6449C59.9739 54.4665 56.1452 50.5882 46.9095 48.2553L38.1345 46.3201C31.1072 44.7651 25.6837 41.1346 25.6837 33.3191C25.6492 30.2933 26.6497 27.3445 28.5234 24.9496Z" fill="white"/>
<path d="M54.4821 51.2163C58.2943 53.5816 59.9652 56.8896 59.9652 61.6372C56.8105 65.5569 51.267 67.7569 44.7522 67.7569C33.7853 67.7569 26.1102 62.5221 24.4045 53.4246H34.9364C36.2922 57.6013 39.8827 59.5365 44.6748 59.5365C50.5248 59.5365 54.4138 56.5094 54.4906 51.1995M33.9979 34.7581C32.2636 33.7621 30.8355 32.3203 29.8658 30.5863C28.9024 28.8648 28.4379 26.9146 28.5233 24.9497C31.5677 21.0624 36.8632 18.6892 43.3189 18.6892C54.4906 18.6892 60.9542 24.4119 62.5496 32.4674H52.4181C51.3011 29.2911 48.5041 26.8187 43.4042 26.8187C37.9552 26.8187 34.2368 29.8951 34.0235 34.7581" fill="#F9B1AB"/>
</g>
<defs>
<clipPath id="clip0_1215_2">
<rect width="78" height="77" fill="white" transform="translate(4.5 5)"/>
</clipPath>
</defs>
</svg>
