<svg width="87" height="87" viewBox="0 0 87 87" fill="none" xmlns="http://www.w3.org/2000/svg">
<g clip-path="url(#clip0_1215_2)">
<path d="M43.5001 3C65.9699 3 84.1842 21.5179 84.1842 44.3622C84.1842 67.2066 65.9699 85.7244 43.5001 85.7244C21.0302 85.7244 2.81592 67.2066 2.81592 44.3622C2.81592 21.5179 21.0302 3 43.5001 3ZM43.5001 60.9071C42.421 60.9071 41.3862 61.3429 40.6233 62.1186C39.8603 62.8943 39.4316 63.9463 39.4316 65.0433C39.4316 66.1403 39.8603 67.1924 40.6233 67.9681C41.3862 68.7438 42.421 69.1795 43.5001 69.1795C44.5791 69.1795 45.6139 68.7438 46.3769 67.9681C47.1398 67.1924 47.5685 66.1403 47.5685 65.0433C47.5685 63.9463 47.1398 62.8943 46.3769 62.1186C45.6139 61.3429 44.5791 60.9071 43.5001 60.9071ZM43.5001 21.613C39.5886 21.613 35.8374 23.1927 33.0716 26.0046C30.3059 28.8165 28.7521 32.6302 28.7521 36.6068C28.7521 37.7038 29.1807 38.7559 29.9437 39.5315C30.7066 40.3072 31.7415 40.743 32.8205 40.743C33.8995 40.743 34.9343 40.3072 35.6973 39.5315C36.4603 38.7559 36.8889 37.7038 36.8889 36.6068C36.8902 35.3868 37.2182 34.1901 37.8376 33.1451C38.457 32.1002 39.3444 31.2463 40.4048 30.6751C41.4652 30.1039 42.6585 29.8369 43.8568 29.9028C45.0551 29.9686 46.2132 30.3648 47.2068 31.0489C48.2005 31.7329 48.9923 32.679 49.4973 33.7858C50.0023 34.8925 50.2015 36.1181 50.0735 37.3312C49.9455 38.5443 49.4952 39.6991 48.7708 40.6717C48.0464 41.6444 47.0752 42.3983 45.9614 42.8525C43.2112 43.9693 39.4316 46.8315 39.4316 51.6006V52.6347C39.4316 53.7317 39.8603 54.7837 40.6233 55.5594C41.3862 56.3351 42.421 56.7709 43.5001 56.7709C44.5791 56.7709 45.6139 56.3351 46.3769 55.5594C47.1398 54.7837 47.5685 53.7317 47.5685 52.6347C47.5685 51.6254 47.7719 51.1208 48.6303 50.6906L48.9843 50.5252C52.161 49.226 54.7942 46.8438 56.4325 43.7869C58.0708 40.7301 58.6122 37.1891 57.9638 33.7709C57.3154 30.3528 55.5177 27.2704 52.8787 25.0521C50.2398 22.8339 46.9241 21.6181 43.5001 21.613Z" fill="#5855B7"/>
</g>
<defs>
<clipPath id="clip0_1215_2">
<rect width="87" height="87" fill="white"/>
</clipPath>
</defs>
</svg>
