<svg width="87" height="87" viewBox="0 0 87 87" fill="none" xmlns="http://www.w3.org/2000/svg">
<path d="M56.0166 15.9636C56.0166 19.2832 54.6979 22.4668 52.3506 24.8141C50.0033 27.1614 46.8196 28.4801 43.5 28.4801C40.1805 28.4801 36.9968 27.1614 34.6495 24.8141C32.3022 22.4668 30.9835 19.2832 30.9835 15.9636C30.9835 12.644 32.3022 9.4604 34.6495 7.11309C36.9968 4.76578 40.1805 3.44708 43.5 3.44708C46.8196 3.44708 50.0033 4.76578 52.3506 7.11309C54.6979 9.4604 56.0166 12.644 56.0166 15.9636ZM81.0496 18.4669C81.0496 21.1226 79.9947 23.6695 78.1168 25.5473C76.239 27.4252 73.6921 28.4801 71.0364 28.4801C68.3807 28.4801 65.8338 27.4252 63.956 25.5473C62.0782 23.6695 61.0232 21.1226 61.0232 18.4669C61.0232 15.8112 62.0782 13.2643 63.956 11.3865C65.8338 9.50866 68.3807 8.4537 71.0364 8.4537C73.6921 8.4537 76.239 9.50866 78.1168 11.3865C79.9947 13.2643 81.0496 15.8112 81.0496 18.4669ZM15.9637 28.4801C18.6193 28.4801 21.1663 27.4252 23.0441 25.5473C24.9219 23.6695 25.9769 21.1226 25.9769 18.4669C25.9769 15.8112 24.9219 13.2643 23.0441 11.3865C21.1663 9.50866 18.6193 8.4537 15.9637 8.4537C13.308 8.4537 10.7611 9.50866 8.88326 11.3865C7.00541 13.2643 5.95045 15.8112 5.95045 18.4669C5.95045 21.1226 7.00541 23.6695 8.88326 25.5473C10.7611 27.4252 13.308 28.4801 15.9637 28.4801ZM23.4736 39.745C23.4736 36.2905 26.2773 33.4868 29.7319 33.4868H57.2682C60.7228 33.4868 63.5265 36.2905 63.5265 39.745V63.5264C63.5265 68.8378 61.4166 73.9316 57.6609 77.6873C53.9052 81.443 48.8114 83.5529 43.5 83.5529C38.1887 83.5529 33.0949 81.443 29.3392 77.6873C25.5835 73.9316 23.4736 68.8378 23.4736 63.5264V39.745ZM18.467 39.745C18.467 37.427 19.1679 35.2791 20.3645 33.4868H9.70541C6.25085 33.4868 3.44714 36.2905 3.44714 39.745V58.5198C3.44691 60.6633 3.90544 62.7819 4.79193 64.7334C5.67841 66.6849 6.97232 68.4241 8.58671 69.8341C10.2011 71.2441 12.0986 72.2922 14.1516 72.908C16.2047 73.5239 18.3658 73.6931 20.4897 73.4045C19.1524 70.2831 18.4642 66.9222 18.467 63.5264V39.745ZM68.5331 63.5264C68.5331 67.0311 67.8122 70.3755 66.5104 73.4045C67.1713 73.4946 67.8455 73.5397 68.5331 73.5397C72.5166 73.5397 76.337 71.9572 79.1537 69.1405C81.9705 66.3237 83.553 62.5033 83.553 58.5198V39.745C83.553 36.2905 80.7493 33.4868 77.2947 33.4868H66.6356C67.8372 35.2791 68.5331 37.427 68.5331 39.745V63.5264Z" fill="#5855B7"/>
</svg>
