<svg width="87" height="87" viewBox="0 0 87 87" fill="none" xmlns="http://www.w3.org/2000/svg">
<path d="M43.5 3.3269C38.2244 3.3269 33.0004 4.36601 28.1264 6.3849C23.2524 8.40378 18.8237 11.3629 15.0933 15.0933C7.55941 22.6272 3.3269 32.8454 3.3269 43.5C3.3269 54.1545 7.55941 64.3727 15.0933 71.9066C18.8237 75.637 23.2524 78.5962 28.1264 80.6151C33.0004 82.6339 38.2244 83.673 43.5 83.673C54.1545 83.673 64.3727 79.4405 71.9066 71.9066C79.4405 64.3727 83.673 54.1545 83.673 43.5C83.673 38.2244 82.6339 33.0004 80.6151 28.1264C78.5962 23.2524 75.637 18.8237 71.9066 15.0933C68.1762 11.3629 63.7476 8.40378 58.8735 6.3849C53.9995 4.36601 48.7756 3.3269 43.5 3.3269ZM60.3727 60.3727L39.4827 47.5173V23.4134H45.5086V44.3034L63.5865 55.1502L60.3727 60.3727Z" fill="#5855B7"/>
</svg>
