<svg width="87" height="87" viewBox="0 0 87 87" fill="none" xmlns="http://www.w3.org/2000/svg">
<path d="M4.59253 43.5V82.4074H82.4073V4.59259H4.59253V43.5ZM67.2988 40.3874C69.1626 40.8199 70.8565 41.7947 72.1669 43.1887C72.8882 43.9399 73.5154 44.776 74.0345 45.6788C74.0345 45.7784 70.6729 48.0506 68.6248 49.3205C68.5501 49.3703 68.2513 49.0466 67.9213 48.5548C67.5475 47.9097 67.0162 47.3698 66.3772 46.9855C65.7382 46.6013 65.0123 46.3852 64.2672 46.3574C61.9078 46.1955 60.3889 47.4343 60.4013 49.4699C60.3824 49.9767 60.4984 50.4794 60.7375 50.9266C61.2542 52.0036 62.2191 52.6448 65.2445 53.9521C70.8161 56.3488 73.2003 57.93 74.6819 60.1773C76.3378 62.6673 76.7051 66.6888 75.5845 69.6645C74.3395 72.9015 71.2892 75.099 66.9751 75.8274C65.0048 76.0532 63.0139 76.0323 61.0487 75.7651C58.0368 75.2687 55.2623 73.8225 53.1303 71.6378C52.4144 70.8472 51.02 68.7867 51.1071 68.6373C51.3339 68.4679 51.5732 68.316 51.823 68.1829L54.7053 66.5892L56.9401 65.2944L57.407 65.9854C58.1952 67.1123 59.1979 68.0727 60.3577 68.8116C62.8478 70.1189 66.2468 69.9384 67.9276 68.4256C68.4919 67.8713 68.844 67.1366 68.9224 66.3495C69.0009 65.5624 68.8009 64.7726 68.3571 64.1178C67.7346 63.2525 66.4895 62.5242 63.0097 61.0052C58.9944 59.2746 57.2638 58.2039 55.6826 56.4982C54.6959 55.3724 53.9671 54.0445 53.5474 52.6074C53.2346 50.9655 53.1884 49.2839 53.4104 47.6273C54.2384 43.749 57.1455 41.041 61.3911 40.238C63.3573 39.9951 65.3489 40.0497 67.2988 40.3999V40.3874ZM49.0341 43.6494V46.8367H38.9307V75.6157H31.7655V46.8305H21.6371V43.7179C21.6053 42.6445 21.6303 41.5702 21.7118 40.4995C21.7616 40.4434 27.937 40.4434 35.4072 40.4434H48.9968L49.0341 43.6494Z" fill="#007ACC"/>
</svg>
